<?xml version="1.0" encoding="UTF-8" standalone="no"?>
<svg
   xmlns:dc="http://purl.org/dc/elements/1.1/"
   xmlns:cc="http://creativecommons.org/ns#"
   xmlns:rdf="http://www.w3.org/1999/02/22-rdf-syntax-ns#"
   xmlns:svg="http://www.w3.org/2000/svg"
   xmlns="http://www.w3.org/2000/svg"
   xmlns:sodipodi="http://sodipodi.sourceforge.net/DTD/sodipodi-0.dtd"
   xmlns:inkscape="http://www.inkscape.org/namespaces/inkscape"
   id="svg2"
   viewBox="0 0 746.49 766.28"
   version="1.1"
   sodipodi:docname="escalade.svg"
   inkscape:version="0.92.3 (2405546, 2018-03-11)">
  <defs
     id="defs12" />
  <sodipodi:namedview
     pagecolor="#ffffff"
     bordercolor="#666666"
     borderopacity="1"
     objecttolerance="10"
     gridtolerance="10"
     guidetolerance="10"
     inkscape:pageopacity="0"
     inkscape:pageshadow="2"
     inkscape:window-width="1920"
     inkscape:window-height="1017"
     id="namedview10"
     showgrid="false"
     inkscape:zoom="0.87110296"
     inkscape:cx="496.30196"
     inkscape:cy="558.0621"
     inkscape:window-x="-8"
     inkscape:window-y="-8"
     inkscape:window-maximized="1"
     inkscape:current-layer="svg2" />
  <path
     inkscape:connector-curvature="0"
     d="m 1222.0473,114.37525 c -0.4254,-1.2603 -0.9756,-3.9603 -1.2227,-6 -1.0955,-9.042696 -3.51,-24.840996 -4.0054,-26.208996 -0.5445,-1.5026 -1.5168,-9.2632 -3.3778,-26.961 -3.4865,-8.5982 -2.2378,-20.438 -3.6809,-26.039 -0.3595,-1.375 -0.5953,-2.7912 -0.524,-3.147 0.071,-0.35585 -0.5195,-5.7558 -1.313,-12 -3.034,-23.8760005 -3.8941,-26.52 -9.6609,-29.699 -1.6504,-0.90984 -6.2243,-3.5182 -10.164,-5.7963 -9.6938,-5.6051 -12.969,-3.8777 -9.3352,4.9242 3.9115,14.1659995 -6.863,7.0533995 -11.747,12.9979995 -1.6306,2.033 -2.4598,2.3808 -3.831,1.6073 -0.9625,-0.54296 -1.75,-1.5917 -1.75,-2.3305 0,-0.73883 -0.675,-1.6023 -1.5,-1.9189 -1.0684,-0.40997 -1.5,-2.0784 -1.5,-5.7980995 0,-4.6699 -0.1451,-5.024 -1.3716,-3.3468 -1.275,1.7437 -1.5152,1.5509 -3.4124,-2.738 -1.1225,-2.5376 -2.6019,-7.1206 -3.2876,-10.185 -1.1462,-5.122 -1.4701,-5.5708 -4.0195,-5.5708 -4.1351,0 -6.9459,-4.566 -7.5473,-12.26 l -0.4877,-6.2399 4.2771,-3.2748 c 2.3524,-1.8012 4.8695,-3.0475 5.5934,-2.7697 2.274,0.87262 3.7914,-4.0142 2.2374,-7.2055 -0.7365,-1.5125 -1.3782,-2.975 -1.4258,-3.25 -3.136,-6.6005 -5.6303,-22.548 -10.634,-28 -1.7168,-3.1101 -1.0292,-6.792204 -1.8188,-10.500004 -1.0437,-4.7463 1.2744,-14.572 5.1159,-21.684 1.9408,-3.5934 3.788,-8.0595 4.1048,-9.9245 0.3169,-1.8651 1.0327,-6.0911 1.5907,-9.3911 0.5581,-3.3 2.1554,-11.131 3.5498,-17.401 1.3943,-6.2708 2.5352,-12.253 2.5352,-13.293 0,-1.0405 0.7685,-4.4995 1.7078,-7.6866 1.609,-5.4595 1.995,-5.9223 6.6711,-7.998 2.7298,-1.2118 5.4766,-2.0063 6.1039,-1.7655 0.6273,0.24072 2.2378,-0.40568 3.5789,-1.4364 1.3411,-1.0308 2.9851,-1.8841 3.6534,-1.8964 0.6683,-0.0122 3.2724,-0.72072 5.7869,-1.5744 2.5145,-0.85369 5.7927,-1.7016 7.285,-1.8842 1.4922,-0.18259 5.5256,-0.65329 8.9631,-1.046 3.4375,-0.39272 6.25,-1.1198 6.25,-1.6158 0,-0.49599 -0.1188,-0.90181 -0.2641,-0.90181 -0.1453,0 -2.7264,-0.9 -5.7359,-2 -3.9272,-1.4354 -7.9624,-2 -14.295,-2 -7.7558,1.0443 -12.626,-4.2485 -8.6294,-8.5959 2.1098,-2.2592 3.0405,-2.5377 7.1743,-2.1468 2.6125,0.24703 4.75,0.0652 4.75,-0.40406 0,-0.46927 0.675,-0.85321 1.5,-0.85321 -2.0461,-4.1584 -15.068,-3.9386 -15.5,-11.622 0,-0.75766 0.4766,-1.3776 1.059,-1.3776 0.5825,0 0.7809,-0.45 0.441,-1 -0.4101,-0.66356 26.99,-1 81.441,-1 h 82.059 v 354 h -32.038 l 0.6302,-2.5112 c 0.3467,-1.3812 2.0427,-4.0027 3.7691,-5.8255 1.7263,-1.8229 3.837,-4.2743 4.6903,-5.4476 0.8534,-1.1733 2.601,-2.521496 3.8837,-2.995996 1.6971,-0.62782 2.4021,-1.752 2.589,-4.1286 0.2193,-2.7875 -0.3048,-3.6558 -3.5783,-5.9285 -2.1094,-1.4644 -4.3187,-3.7876 -4.9097,-5.1626 -3.0623,-4.8234 -8.4104,-6.1587 -12.031,-10.25 -0,-0.4125 -0.632,-0.75 -1.3982,-0.75 -2.1014,0 -2.802,-2.9478 -1.1041,-4.6457 2.1961,-2.1961 1.8543,-3.0328 -1.5139,-3.7065 -1.8964,-0.37929 -3.4366,-1.5361 -4.1605,-3.125 -3.5672,-4.7886 -14.593,-8.6991 -15.828,-14.46 0,-0.34437 -1.9125,-1.2046 -4.25,-1.9116 -3.0628,-0.92639 -5.0281,-2.4017 -7.0355,-5.2815 -1.532,-2.1978 -4.127,-4.5601 -5.7666,-5.2495 -1.6396,-0.68941 -2.7874,-1.4485 -2.5505,-1.6868 0.2369,-0.23833 -4.7662,-0.43332 -11.118,-0.43332 -12.185,0 -13.621,-0.46147 -16.12,-5.1802 -0.6351,-1.1991 -2.133,-2.3241 -3.3286,-2.5 -2.9238,-0.43018 -3.5613,-2.816 -0.9358,-3.5025 1.158,-0.30281 2.1054,-0.76978 2.1054,-1.0377 0,-0.40319 -4.2384,-4.9737 -13.869,-14.9560005 -2.5934,-2.6881 -2.225,-0.52863 1.418,8.3116005 5.7629,8.3619 8.3862,25.589 12.46,33.365 0.9023,1.6082 -1.3891,3.3907 -0.6731,5.4316 0.358,0.93309 0.8847,14.83 1.1704,30.882 0.2856,16.052 0.769,29.972996 1.0742,30.935996 0.3548,1.1194 0.03,1.75 -0.9013,1.75 -1.2082,0 -1.5948,-3.8727 -2.2711,-22.749996 -1.3323,-6.2749 1.454,-47.888 -2.1706,-50.177 -3.5874,-5.562 -3.2542,-18.733 -9.4022,-24.164 -0.5172,-0.3254 -0.8175,-1.0004 -0.6672,-1.5 0.42,-1.3965 -3.4506,-11.4080005 -4.4105,-11.4080005 -0.4663,0 -0.6179,1.4625 -0.3369,3.25 2.1529,19.8520005 5.9646,35.5410005 8.018,54.7950005 0.3152,3 0.7865,7.0295 1.0472,8.9545 0.2608,1.925 0.7264,5.525 1.0347,8 0.3083,2.475 1.4764,10.682 2.5959,18.237 1.9876,13.414996 2.2072,20.039996 0.4962,14.970996 z m 36.388,-94.879996 c 0,-0.36919 -0.684,-1.4271 -1.52,-2.3509 -0.9364,-1.0347 -1.6083,-4.003 -1.75,-7.7308005 -0.1265,-3.3281 -0.5093,-5.8797 -0.8507,-5.6701 -0.3413,0.20961 -2.2138,3.0556 -4.161,6.3243005 -3.5257,5.9186 -3.8394,8.1862 -0.8103,5.8572 1.1052,-0.84975 1.0381,-0.573 -0.2191,0.90496 -1.3972,1.6424 -1.5115,2.249 -0.5,2.6538 1.9471,0.77929 9.8111,0.78843 9.8111,0.0114 z m -15.69,-3.5787 c 1.3274,-1.2375 4.0823,-4.8656 6.1222,-8.0624005 3.1647,-4.9597 3.515,-6.0472 2.3881,-7.41259997 -1.0404,-1.2606 -1.0554,-1.68950003 -0.071,-2.02090003 1.8845,-0.63427 1.5018,-2.0393 -0.75,-2.754 -1.4883,-0.47236 -2,-1.513 -2,-4.0674 0,-1.8878995 0.375,-3.4325995 0.8333,-3.4325995 0.4583,0 0.8333,-0.675 0.8333,-1.5 0,-0.825 -0.375,-1.5 -0.8333,-1.5 -0.4583,0 -0.8333,0.41425 -0.8333,0.92054 0,0.5063 -1.4625,1.2316 -3.25,1.6119 -1.7875,0.38024 -6.0575,1.8785 -9.4889,3.3294995 -6.1682,2.6082 -6.239,2.6834 -6.2495,6.6381 -0.021,8.0456 6.252,20.1040005 9.7589,18.7580005 2.5304,0.0745 -0.2043,2.9473 3.5398,-0.50783 z m 7.7374,-41.265 c 1.8182,-0.57708 1.793,-0.72427 -0.4801,-2.797 -1.7765,-1.6199 -2.5696,-3.6805 -3.0555,-7.9378 -0.6671,-5.8456 0.3492,-7.5341 2.4077,-4 0.9658,1.6583 1.0209,1.6566 1.0497,-0.0322 0.017,-0.98023 1.0429,-2.2245 2.2804,-2.765 2.004,-0.87535 1.9028,-0.94659 -0.9265,-0.65176 l -3.1765,0.33102 1.9075,-3.739 c 1.0491,-2.0565 2.7036,-3.9065 3.6765,-4.1112 1.1339,-0.23859 -0.3849,-1.3519 -4.2311,-3.1014 -3.3,-1.501 -6.3539,-2.6057 -6.7865,-2.4548 -0.4326,0.1509 -1.1462,-0.30761 -1.5858,-1.0189 -0.6294,-1.0184 -1.2517,-0.91209 -2.9277,0.5 -1.659,1.3978 -2.3784,3.7288 -3.2615,10.569 -0.6232,4.8264 -0.8839,9.4245 -0.5794,10.218 0.3044,0.79345 0.1147,1.7139 -0.4217,2.0454 -0.5364,0.33151 -0.8543,2.3126 -0.7064,4.4023 0.3024,4.2711 2.2125,6.9515 3.172,4.451 0.3206,-0.83536 1.0049,-1.258 1.5208,-0.93914 0.5159,0.31883 1.2206,0.12235 1.5661,-0.43662 1.0905,-1.7645 2.6713,-1.0997 2.0488,0.86164 -0.4545,1.4322 -0,1.9911 1.8977,2.3547 1.3716,0.26219 2.6989,-0.0204 2.9497,-0.62795 0.2508,-0.60756 0.5437,-0.20466 0.6509,0.89534 0.1605,1.6463 0.2743,1.6988 0.6433,0.29699 0.2465,-0.93666 1.3119,-1.9771 2.3675,-2.3122 z m -27.048,-3.9848 c 0,-2.4101 -0.3811,-4.6175 -0.8468,-4.9053 -0.8194,-0.50641 -1.3413,-4.1558 -1.408,-9.8447 -0.018,-1.5125 -0.3689,-2.75 -0.7803,-2.75 -0.4115,0 -1.058,-1.235 -1.4369,-2.7444 -1.2367,-4.9273 -2.4317,-5.5144 -5.673,-2.7871 -1.6026,1.3485 -4.5882,2.7299 -6.6345,3.0696 -6.0541,1.0051 -6.4221,1.2461 -5.6613,3.707 0.8144,2.6344 5.7598,7.139 9.678,8.8157 1.5055,0.64423 2.5284,1.5093 2.2731,1.9225 -0.2554,0.41312 1.5504,2.5846 4.0127,4.8255 2.4623,2.2409 4.4769,4.5772 4.4769,5.1918 0,0.6146 0.45,0.83934 1,0.49942 0.55,-0.33992 1,-2.5899 1,-5 z m -31.999,-47.062 c 2.3736,-2.0504 28.058,-5.7738 34.757,-5.0387 4.0339,0.44266 4.2348,0.34254 3.8269,-1.9073 -0.4112,-2.2674 1.837,-5.4038 3.0232,-4.2176 0.3075,0.30754 1.4217,-0.30334 2.4758,-1.3575 1.2736,-1.2736 3.3425,-1.9269 6.1667,-1.9471 3.3732,-0.0241 3.8889,-0.2407 2.5,-1.0497 -0.9625,-0.5606 -1.75,-1.5965 -1.75,-2.302 0,-0.7348 -2.029,-1.6747 -4.75,-2.2003 -4.4309,-0.85595 -4.7454,-1.1192 -4.6814,-3.917604 0.104,-4.5454 1.371,-8.6553 2.4607,-7.9819 0.5338,0.32995 0.9706,0.14919 0.9706,-0.40169 0,-0.55088 0.9,-0.82827 2,-0.61643 1.1,0.21184 2,-0.0915 2,-0.67405 0,-0.58257 0.8008,-0.8498 1.7795,-0.59386 0.9788,0.25595 2.3465,-0.14157 3.0394,-0.88336 1.03,-1.1026 0.8878,-1.3487 -0.7795,-1.3487 -1.1217,0 -2.0394,-0.3884 -2.0394,-0.86311 0,-0.47471 -2.3625,-1.6106 -5.25,-2.5242 -7.0386,-2.227 -8.0843,-2.9841 -7.3438,-5.3172 0.6427,-2.0248 8.0731,-6.2955 10.953,-6.2955 2.2712,0 5.6405,-3.584 5.6405,-6 0,-1.1 -0.3591,-2 -0.7981,-2 -0.7238,0 -3.5343,-2.695 -9.0462,-8.6743 -1.1024,-1.1959 -2.5282,-3.1532 -3.1685,-4.3496 -0.8357,-1.5614 -1.8349,-2.0471 -3.5408,-1.721 -1.3071,0.24988 -2.5048,0.13259 -2.6615,-0.26064 -0.2972,-0.74571 -16.689,-5.9495 -20.435,-6.4876 -3.7696,-0.54135 -6.3496,-1.6113 -6.3496,-2.6332 0,-0.5454 -0.4293,-0.72631 -0.954,-0.40202 -1.34,0.82816 -6.1442,-0.50357 -5.5113,-1.5277 0.5341,-0.86418 -6.0474,-2.5371 -8.2734,-2.103 -0.6813,0.13287 -2.0956,-0.217 -3.1429,-0.7775 -1.676,-0.89698 -1.9868,-0.57244 -2.5941,2.7088 -0.3795,2.0503 -1.3642,5.1592 -2.1882,6.9086 -1.3992,2.9705 -1.3533,3.3768 0.6939,6.1459 3.0148,4.0777 3.8031,11.595 1.4846,14.157 -0.9631,1.0642 -1.9814,3.9782 -2.2629,6.4755 -0.2881,2.5561 -1.0317,4.5406 -1.7014,4.5406 -0.6543,0 -2.2054,1.1683 -3.447,2.5962 l -2.2574,2.5963 2.0471,5.1537 c 2.2541,5.6748 5.6054,21.518004 6.6956,31.654004 0.3846,3.575 1.1969,6.8232 1.8053,7.2183 1.5434,1.0023 8.7943,-0.21492 10.607,-1.7805 z m -26.01,-84.532004 c 4.2875,-1.8978 2.7071,-10.605 0.5153,-11.83 l -4,-2.1179 -0.3264,3.7656 c -2.2927,2.5407 3.8093,10.084 3.811,10.182 z"
     id="path3919" />
  <path
     inkscape:connector-curvature="0"
     d="m 1044.8084,279.09334 c -0.5321,-0.46483 -0.3748,-0.8424 0.6767,-1.62334 0.4045,-0.3004 1.1023,-1.39992 1.5506,-2.44329 0.4484,-1.04343 1.4701,-3.34229 2.2705,-5.10869 0.8003,-1.7663 1.4551,-3.43932 1.4551,-3.71778 0,-0.2785 0.5164,-1.59976 1.1476,-2.93606 0.6312,-1.33638 1.103,-2.46354 1.0486,-2.50476 -1.6124,-1.21969 -2.1928,-1.72171 -2.1943,-1.89808 0,-0.119 -0.5093,-0.31656 -1.1295,-0.43902 -0.7933,-0.15663 -1.3148,-0.0794 -1.7586,0.26051 -0.3471,0.26575 -1.6744,0.8961 -2.9497,1.4008 -2.493,0.98659 -3.1676,0.8922 -3.3407,-0.46741 -0.049,-0.38605 -0.2138,-0.70191 -0.3659,-0.70191 -0.1522,0 -0.2043,0.1369 -0.1158,0.30422 0.088,0.16731 0.033,0.39657 -0.1234,0.50947 -0.1563,0.11289 -0.2841,0.0646 -0.2841,-0.10731 0,-0.1719 -0.409,-0.29086 -0.9087,-0.26437 -0.8074,0.0428 -0.9026,-0.0429 -0.8528,-0.76879 0.031,-0.44933 -0.011,-1.36327 -0.093,-2.031 l -0.1487,-1.214 -1.8645,1.63457 c -1.0254,0.89902 -2.8074,2.47474 -3.9601,3.50152 -1.9548,1.74143 -6.7688,5.28462 -7.2131,5.30914 -0.5898,0.0324 -1.4111,1.2633 -1.2685,1.90092 0.1133,0.5062 -0.106,0.98236 -0.8108,1.76027 -1.7498,1.92989 -0.6248,1.96188 -4.9324,4.04103 l -2.271,2.20666 -0.2155,-21.104 c 16.8936,-4.23751 23.1269,-19.7792 23.1269,-19.7792 0.053,-0.0621 4.0039,-6.67602 4.2214,-19.83198 l 36.6979,-0.34739 -1.0905,1.21636 c -3.0455,3.39632 -4.2863,4.70992 -4.8671,5.15596 -1.1506,0.88161 -2.3262,4.6502 -4.8258,5.36124 -0.9377,0.87828 -2.5377,3.4352 -3.6627,3.69821 -0.5854,0.13683 -1.4301,0.89101 -2.5443,2.27179 -0.9173,1.13684 -1.8367,2.0669 -2.0432,2.0669 -0.296,0 -0.2833,0.1535 0.06,0.72629 0.2393,0.39946 0.4352,1.0685 0.4352,1.48677 0,0.41827 0.2139,1.23111 0.4754,1.80638 0.3619,0.79614 0.5026,2.13816 0.5892,5.62084 0.063,2.51632 0.2413,4.75861 0.3972,4.98288 0.1559,0.22428 0.5707,1.59782 0.9219,3.05227 0.6572,2.7221 0.5883,4.34207 -0.2093,4.91801 -0.2805,0.20266 -0.2815,0.33707 -0.01,0.66022 0.4753,0.55552 0.4357,1.41626 -0.089,1.92473 -0.3621,0.3512 -0.6469,0.30273 -1.6852,-0.28678 -0.6871,-0.39017 -1.3517,-0.70942 -1.4767,-0.70942 -0.1251,0 -0.3977,0.60313 -0.6059,1.34029 -0.3377,1.19578 -1.1353,2.39992 -2.2634,3.41711 -1.1928,1.07548 -3.7658,4.90717 -4.0495,6.03045 -0.3281,1.29853 -2.3827,4.62391 -3.8135,6.17208 -0.4229,0.45762 -0.7689,1.16691 -0.7689,1.57622 0,0.52634 -0.1637,0.74419 -0.5592,0.74419 -0.3147,0 -0.5592,0.21787 -0.5592,0.49828 0,0.96999 -2.2782,1.49475 -3.1569,0.72719 z m -1.4567,-22.78546 c 0.1538,-0.13416 0.8747,-0.50396 1.6019,-0.8218 0.7273,-0.31783 1.7268,-0.92672 2.2213,-1.35307 0.4944,-0.42635 1.1206,-0.77519 1.3914,-0.77519 0.5816,0 4.1287,1.91958 4.6617,2.52289 1.1259,1.27447 2.2322,-0.58511 2.0354,-3.42155 -0.03,-0.43892 -0.7594,-0.56926 -0.9137,-0.16339 -0.051,0.1348 -0.6706,0.56253 -1.3762,0.95051 -1.8995,1.04426 -2.0723,0.77734 -2.0723,-3.19906 0,-3.37126 -0.2266,-4.07639 -1.058,-3.2936 -0.187,0.17613 -1.4725,1.05207 -2.8566,1.94659 -1.384,0.89447 -2.9265,2.07454 -3.4276,2.62223 -0.5012,0.54774 -1.6022,1.45161 -2.4466,2.00861 -1.6918,1.11589 -1.8735,1.68822 -0.9142,2.8815 0.5289,0.65803 0.7885,0.74061 1.7476,0.55599 0.6194,-0.11926 1.2521,-0.32659 1.4059,-0.46074 z m 9.6465,-5.61302 c 0,-0.38686 0.858,-1.28518 2.1558,-2.25722 0.7319,-0.54824 1.0076,-0.60338 1.4944,-0.29888 0.5469,0.34207 0.5799,0.30939 0.393,-0.38996 -0.1122,-0.41983 -0.3289,-0.85716 -0.4817,-0.97188 -0.1528,-0.1147 -0.1978,-0.3597 -0.1002,-0.54445 0.098,-0.18474 0.048,-0.73645 -0.1119,-1.22599 -0.3522,-1.08291 0.1766,-1.93327 1.3767,-2.21386 1.1914,-0.27847 1.904,0.0722 2.2752,1.11948 0.476,1.34318 0.7381,1.18501 1.0746,-0.64842 0.4426,-2.412 -0.17,-6.2453 -0.998,-6.2453 -0.312,0 -0.3671,-0.23745 -0.2274,-0.98037 0.1013,-0.53919 0.085,-0.98036 -0.036,-0.98036 -0.3172,0 -2.3408,2.73169 -2.3408,2.73169 0,0 -1.2251,1.8764 -4.1535,5.31998 l -1.4974,1.76071 0.2009,3.01834 c 0.1104,1.66013 0.2582,3.13118 0.3283,3.2689 0.1643,0.32268 0.6481,-0.0225 0.6481,-0.46241 z"
     id="path3936"
     style="stroke-width:0.16437824"
     sodipodi:nodetypes="ccccscccccccsccsccccccccccccccccccccscsscccccccsccccssscccccsccccsccccccccccccccccccscsccccccc" />
  <path
     inkscape:connector-curvature="0"
     d="m 1772.2214,645.22933 c -2.0676,-2.3176 -3.7117,-5.21 -3.7117,-6.5301 0,-1.3034 -1.125,-5.0426 -2.5,-8.3095 -1.375,-3.2668 -2.5,-6.6281 -2.5,-7.4694 0,-0.84128 -1.0932,-3.6673 -2.4292,-6.2801 -3.406,-6.6605 -6.3203,-13.31 -7.1225,-16.251 -0.3751,-1.375 -2.6544,-6.036 -5.0651,-10.358 -2.4108,-4.3218 -4.3832,-8.2593 -4.3832,-8.75 0,-0.49068 -0.3955,-0.89215 -0.8787,-0.89215 -0.9437,0 -2.1656,2.8397 -4.3031,10 -1.2854,4.3058 -1.493,4.4877 -4.8094,4.2152 -1.9064,-0.15665 -4.5477,-1.0566 -5.8697,-2 -1.322,-0.94335 -3.2414,-2.2054 -4.2654,-2.8044 -1.024,-0.59909 -1.5638,-1.3872 -1.1996,-1.7514 0.3642,-0.3642 -5.3646,-6.7449 -12.731,-14.179 -14.259,-14.391 -15.305,-15.746 -16.969,-21.98 -2.8721,-10.758 -5.719,-12.835 -19.191,-14.005 -4.5561,-0.39561 -10.085,-1.3237 -12.286,-2.0624 -2.201,-0.73874 -5.6353,-1.1406 -7.6318,-0.89293 -2.4106,0.299 -4.035,-0.0376 -4.8354,-1.0022 -0.7758,-0.93476 -2.2003,-1.2534 -3.9969,-0.89411 -1.5582,0.31164 -3.092,0.072 -3.4718,-0.54245 -0.3742,-0.60541 -1.385,-1.1007 -2.2462,-1.1007 -2.2385,0 -13.316,-5.105 -13.316,-6.1366 0,-0.47489 -0.6813,-0.86344 -1.514,-0.86344 -1.2414,0 -1.4207,1.0804 -0.9956,6 0.3193,3.695 0.1326,6 -0.486,6 -0.5524,0 -0.9728,1.0125 -0.9341,2.25 0.067,2.1469 0.1096,2.1584 0.9297,0.25 0.9302,-2.1647 0.8989,-2.3493 1.4402,8.5 0.1235,2.475 0.5531,5.625 0.9548,7 l 0.7304,2.5 -2.0404,-2.5 -2.0404,-2.5 -0.022,4.25 c -0.023,4.4169 0.657,5.1204 2.9002,3 1.0913,-1.0316 1.1201,-0.85685 0.1648,1 -1.3326,2.5901 -3.3118,2.8826 -5.3967,0.79762 -0.7988,-0.79881 -1.6658,-1.2389 -1.9268,-0.97801 -0.2609,0.2609 -0.2572,-1.7855 0.01,-4.5476 0.3215,-3.3446 0.1062,-5.022 -0.6445,-5.022 -0.7259,0 -1.1272,-2.4236 -1.1272,-6.8077 v -6.8077 h -5.022 c -3.0958,0 -5.53,-0.55321 -6.3466,-1.4423 -1.3894,-1.5129 -5.6314,-14.368 -5.6314,-17.066 0,-2.2424 2.8078,-4.3708 8.0679,-6.1159 l 4.5679,-1.5154 1.2924,4.3773 c 0.7108,2.4075 1.6506,4.3773 2.0885,4.3773 0.4378,0 0.5606,0.9 0.273,2 -0.2877,1.1 -0.073,2 0.477,2 1.5383,0 2.3246,-4.3226 0.9456,-5.1989 -0.834,-0.52999 -0.6662,-0.77524 0.5376,-0.78578 0.9625,-0.008 1.75,-0.46531 1.75,-1.0153 0,-0.55 -0.5024,-1 -1.1166,-1 -0.6332,0 -0.8846,-0.88711 -0.5807,-2.0492 0.3811,-1.4575 -0.4198,-2.9189 -2.7738,-5.061 -1.9722,-1.7946 -3.1393,-3.6943 -2.888,-4.7008 0.5082,-2.0355 -4.9394,-8.1344 -9.1197,-10.21 -1.6384,-0.81348 -8.5809,-5.1916 -15.428,-9.7291 -6.8469,-4.5375 -12.798,-8.25 -13.224,-8.25 -0.4264,0 -1.5393,1.61 -2.473,3.5777 -0.9338,1.9677 -3.2325,4.7802 -5.1084,6.25 -2.1484,1.6833 -4.8357,5.6331 -7.261,10.672 -3.0779,6.3951 -4.7889,8.6606 -8.529,11.293 -3.5539,2.5014 -4.5027,3.7035 -3.9468,5 1.2531,2.9224 1.6992,7.0741 1.0416,9.6941 -0.8472,3.3755 -2.7427,3.2149 -2.3804,-0.20166 0.2045,-1.9282 -0.219,-2.8184 -1.4622,-3.0733 -2.1777,-0.44657 -2.4078,3.3971 -0.3781,6.3153 0.9124,1.3118 1.0907,2.7262 0.5322,4.2225 -1.0255,2.7479 -1.5366,2.7715 -5.6542,0.26096 -2.5526,-1.5563 -3.25,-2.6534 -3.25,-5.112 0,-3.1537 2.3955,-11.692 4.3204,-15.399 0.5712,-1.1 2.9482,-5.8825 5.2823,-10.628 2.3341,-4.7452 5.5449,-10.145 7.1351,-12 3.9913,-4.6552 9.2602,-13.541 9.272,-15.637 0.014,-2.4682 4.7448,-12.332 7.1421,-14.891 1.7604,-1.8791 1.8527,-2.4564 0.7193,-4.5 -0.7151,-1.2894 -1.3321,-2.5694 -1.3711,-2.8444 -0.2596,-1.8314 -2.8188,-5 -4.0384,-5 -1.1621,0 -1.3506,-0.97775 -0.9047,-4.6928 0.3099,-2.5811 0.7641,-5.0176 1.0094,-5.4146 0.2454,-0.39697 -0.016,-0.87579 -0.5808,-1.064 -1.5979,-0.53262 1.1949,-5.7202 3.5144,-6.5282 1.1,-0.38314 2.3219,-0.61267 2.7153,-0.51006 0.3934,0.10261 1.9684,-0.32172 3.5,-0.94296 1.5316,-0.62123 4.2828,-1.0285 6.1138,-0.905 2.0248,0.13655 4.0817,-0.45659 5.25,-1.5139 1.0779,-0.97546 1.9209,-1.2404 1.9209,-0.60375 0,0.62406 1.7928,2.0493 3.984,3.1672 4.4487,2.2696 5.6862,5.1153 4.0713,9.3627 -1.2374,3.2545 -0.4869,5.0247 4.8594,11.463 3.5526,4.278 3.6353,4.3135 9.0852,3.8931 11.287,-0.87064 18.198,-5.5769 36.032,-24.536 l 4.7782,-5.0798 -4.6628,-6.7886 c -3.1292,-4.5558 -5.4826,-6.9559 -7.1552,-7.2971 -3.2439,-0.66183 -6.9924,-3.1689 -6.9924,-4.6766 0,-0.65284 -1.348,-2.2419 -2.9955,-3.5313 -3.0862,-2.4153 -7.0045,-11.477 -7.0045,-16.199 0,-1.3465 -1.125,-3.7852 -2.5,-5.4193 -1.375,-1.6341 -2.5,-3.3989 -2.5,-3.9217 0,-0.52286 -0.955,-1.8079 -2.1223,-2.8556 -1.1672,-1.0478 -3.4602,-4.2675 -5.0955,-7.155 -1.6352,-2.8875 -3.3087,-5.25 -3.7188,-5.25 -2.1221,0 -8.9288,-17.127 -15.102,-38 -1.22,-4.125 -4.2539,-11.325 -6.7418,-16 -2.488,-4.675 -6.3254,-11.875 -8.5276,-16 -2.2022,-4.125 -4.3838,-7.65 -4.8478,-7.8333 -0.464,-0.18334 -0.8437,-0.9017 -0.8437,-1.5964 0,-1.65 -2.8619,-7.3669 -4.058,-8.1061 -0.5122,-0.31657 -1.3996,-1.4505 -1.9719,-2.5199 -1.0283,-1.9215 0.6159,-1.9443 139.99,-1.9443 h 141.04 v 385 h -67.576 l -3.7117,-4.1604 z m -39.452,-70.83 c 2.5154,-2.9377 1.267,-10.686 -2.2564,-14.006 -3.6791,-3.4664 -24.386,-20.882 -27.03,-22.734 -2.3505,-1.6464 -1.9761,-0.87715 10.452,21.474 8.8775,15.966 14.402,20.444 18.835,15.267 z m 4.3471,-5.5912 c -0.3339,-0.86998 -0.607,-1.77 -0.607,-2 0,-0.23001 -0.4079,-0.41821 -0.9064,-0.41821 -0.4985,0 -0.671,0.9 -0.3834,2 0.2877,1.1 0.9687,2 1.5134,2 0.5447,0 0.7172,-0.7118 0.3834,-1.5818 z m -13.227,-16.668 c -0.406,-0.6875 -1.7128,-2.6 -2.9041,-4.25 -1.1913,-1.65 -4.5464,-7.725 -7.4558,-13.5 -6.8881,-13.672 -6.6666,-13.423 -9.7653,-10.986 -1.3884,1.0921 -3.0835,1.9856 -3.767,1.9856 -0.6835,0 -1.7818,0.64951 -2.4406,1.4434 -0.9786,1.1791 -0.223,2.4159 4.1276,6.7558 4.7954,4.7837 21.872,19.7 22.634,19.772 0.1699,0.016 -0.023,-0.53351 -0.4292,-1.221 z m -101.2,-18.96 c -0.7176,-0.71756 -1.1833,-0.7766 -1.1833,-0.15 0,1.3348 1.1826,2.5174 1.85,1.85 0.2841,-0.28416 -0.016,-1.0492 -0.6667,-1.7 z m -1.8936,-4.7833 c 0.2876,-1.1 0.1151,-2 -0.3834,-2 -0.4985,0 -0.9064,0.9 -0.9064,2 0,1.1 0.1725,2 0.3834,2 0.2108,0 0.6187,-0.9 0.9064,-2 z m -1.3753,-5 c -0.05,-2.2896 -0.1274,-2.3317 -0.9144,-0.5 -0.4727,1.1 -0.8842,2.9 -0.9144,4 -0.045,1.6507 0.1143,1.738 0.9144,0.5 0.5331,-0.825 0.9446,-2.625 0.9144,-4 z m 57.071,-4.75 c -0.01,-0.4125 -0.6134,-2.4682 -1.3445,-4.5682 -1.3606,-3.9075 -14.038,-17.682 -16.274,-17.682 -1.0436,0 -5.366,7.504 -5.366,9.3157 0,0.37636 1.26,0.68428 2.8,0.68428 3.4828,0 5.2,1.6372 5.2,4.9578 0,2.2264 0.8743,2.9048 6.75,5.237 7.4346,2.951 8.257,3.1562 8.2349,2.0553 z m 21.222,-5.6277 c 2.039,-2.2673 3.7266,-4.9353 3.75,-5.929 0.023,-0.99365 -1.845,-5.4729 -4.1521,-9.9538 -3.0354,-5.8955 -4.25,-9.5146 -4.3948,-13.095 -0.1353,-3.3455 -0.7199,-5.2384 -1.8053,-5.8458 -0.8829,-0.49408 -1.6052,-1.7062 -1.6052,-2.6936 0,-0.98743 -0.8831,-2.5945 -1.9624,-3.5712 -1.0793,-0.97675 -2.4511,-3.2567 -3.0484,-5.0666 -0.5974,-1.8099 -1.7392,-3.5413 -2.5376,-3.8477 -1.9045,-0.73084 -1.902,5.5231 0.011,27.099 2.0471,23.087 4.0309,28.902 9.4275,27.637 1.4353,-0.33633 4.278,-2.4666 6.317,-4.7338 z m -26.757,-10.872 c -1.9884,-6.2429 -5.8738,-15.714 -6.4506,-15.725 -0.275,-0.005 -1.5235,1.8758 -2.7744,4.1792 l -2.2744,4.188 5.7431,5.8037 c 3.1587,3.192 6.0507,5.8037 6.4266,5.8037 0.3758,0 0.074,-1.9125 -0.6702,-4.25 z m -31.99,-21.68 c 0.3141,-0.50837 -0.1897,-1.0709 -1.1196,-1.25 -1.5642,-0.30129 -1.5572,-0.45927 0.093,-2.1096 0.9994,-0.99944 2.5521,-1.5402 3.5306,-1.2296 1.1333,0.35969 3.1154,-0.7167 5.6446,-3.0653 2.1439,-1.9908 7.0611,-5.7717 10.927,-8.4019 3.866,-2.6302 7.6336,-5.5106 8.3724,-6.4008 0.8634,-1.0403 2.9072,-1.6185 5.7208,-1.6185 2.9567,0 4.3776,-0.42796 4.3776,-1.3185 0,-3.7806 -3.2972,-11.592 -5.9765,-14.159 -1.6629,-1.5932 -3.0235,-3.6627 -3.0235,-4.5988 0,-2.7749 -3.274,-5.7868 -6.6214,-6.0914 -2.3385,-0.21275 -4.2196,0.60167 -7.5,3.247 -2.4082,1.9421 -5.8318,4.5427 -7.608,5.7793 -1.7762,1.2366 -5.9175,5.5379 -9.2028,9.5585 -3.2854,4.0206 -7.5505,8.0586 -9.4781,8.9733 -1.9276,0.9147 -3.7697,2.0919 -4.0937,2.6161 -0.7979,1.291 1.829,8.7779 5.2233,14.887 2.2202,3.9961 3.3855,5.0837 5.7807,5.3955 1.65,0.21479 3.3109,0.46254 3.691,0.55056 0.38,0.088 0.948,-0.2559 1.2622,-0.76428 z"
     id="path3949" />
  <path
     inkscape:connector-curvature="0"
     d="M 1098.7684,959.66296 V 841.16941 772.16296 h 75.584 l -1.6774,9.9983 c -0.9226,5.4991 -2.5041,11.687 -3.5146,13.75 -1.9335,3.9483 -4.4342,14.248 -3.4614,14.257 0.313,0.003 0.6244,4.1652 0.6919,9.25 0.079,5.9699 0.6897,10.594 1.7229,13.052 1.2973,3.0868 1.5147,6.4932 1.1487,18 -0.4361,13.713 -0.5367,14.262 -2.9729,16.23 -1.3868,1.1206 -2.5215,2.7182 -2.5215,3.55 0,0.83184 -0.5265,2.0389 -1.17,2.6824 -2.9054,2.9054 5.0703,15.374 21.405,33.464 3.7042,4.1022 7.914,10.034 9.355,13.182 1.4411,3.1477 3.5854,6.1777 4.7651,6.7333 1.1797,0.55558 4.395,3.8751 7.145,7.3767 5.0158,6.3866 12.781,12.58 19.712,15.723 2.0417,0.92571 3.9266,1.3362 4.1886,0.91215 1.4997,-2.4265 -3.8075,-14.335 -6.921,-15.53 -1.5603,-0.59876 -2.0965,-4.6306 -0.6157,-4.6306 1.4586,0 6.136,-7.4733 6.136,-9.8038 0,-1.7722 0.5775,-2.1962 2.9915,-2.1962 1.9085,0 3.4437,-0.72405 4.2405,-2 0.6869,-1.1 1.6125,-2 2.0568,-2 0.4442,0 2.4735,-0.80248 4.5095,-1.7833 11.056,-3.578 19.814,2.5338 23.769,9.9071 3.444,6.6492 1.3325,16.987 -4.0591,19.872 -3.79,2.0283 -3.6583,3.4208 0.9134,9.6582 6.7243,9.1742 22.103,43.632 23.273,52.14499 0.5865,4.268 0.5403,4.3473 -6.3019,10.807 -8.1537,7.698 -17.06,14.183 -23.643,17.216 -4.91,2.2618 -5.8395,4.0288 -3.25,6.1779 0.825,0.6847 1.5,1.8321 1.5,2.5498 0,2.2824 6.8147,14.477 9.2027,16.468 2.7702,2.3096 1.9158,2.476 -2.7348,0.5329 -3.4306,-1.4334 -3.4678,-1.4215 -3.4678,1.107 -0.772,4.7326 -8.2305,8.8919 -13.576,7.2787 -5.7518,-1.0288 -11.07,-4.7388 -10.104,-9.7866 0.3818,-1.9087 0.2225,-3.1501 -0.404,-3.1501 -0.5687,0 -0.785,-0.4028 -0.4807,-0.8952 0.9785,-1.5834 -1.9583,-1.9318 -4.4856,-0.5322 -1.3473,0.7461 -2.0856,1.3725 -1.6406,1.392 0.4449,0.019 0.4579,0.5979 0.029,1.2854 -1.3436,2.1529 -1.4586,4.9426 -0.1711,4.1468 0.7901,-0.4883 0.9646,-0.1818 0.5344,0.9391 -0.376,0.98 -0.1376,1.6929 0.5801,1.7343 0.6702,0.039 0.3186,0.4218 -0.7814,0.8514 -1.5828,0.6181 -2.3833,0.1513 -3.8373,-2.238 -1.4431,-2.3713 -2.0253,-2.7149 -2.7135,-1.6014 -0.4819,0.7797 -1.3426,1.474 -1.9127,1.5427 -1.5568,1.5361 -7.0503,4.5512 -7.7922,4.8642 -8.8903,3.2384 -20.611,0.9149 -28.592,-2.98 -7.6713,-5.1636 -16.814,-11.183 -23.218,-14.96 -2.0504,-1.3435 -2.2715,-1.2848 -2.8162,0.7465 0.6102,10.306 0.1719,21.956 1.8247,31.253 0.6024,3.2107 0.9856,3.6029 3.1218,3.1946 1.3393,-0.2561 2.4352,-0.078 2.4352,0.3958 0,1.8416 0.2294,2.3851 1.2812,3.0351 0.7603,0.4699 0.6825,1.1651 -0.2572,2.2973 -1.0783,1.2992 -1.5322,1.3644 -2.2724,0.3262 -0.6162,-0.8642 -0.7161,-0.4627 -0.2993,1.2027 2.644,10.565 1.6406,12.073 -8.5851,12.91 -5.557,0.4545 -8.1601,1.1755 -10.288,2.8493 -1.5668,1.2324 -3.9045,2.2408 -5.1948,2.2408 -2.2925,0 -2.8034,0.8664 -3.8681,6.5588 -0.1997,1.0676 -0.3975,2.7552 -0.4396,3.7502 -0.042,0.995 -0.4795,1.56 -0.972,1.2556 -1.0795,-0.6672 -2.2244,5.7812 -2.4441,13.766 -0.123,4.4695 -0.6078,6.1577 -2.0771,7.2321 -1.1559,0.8453 -1.9167,2.5995 -1.9167,4.4195 v 3.0179 h -26.666 z m 41.51,121.49004 c 0.3455,-0.559 1.047,-0.7575 1.559,-0.441 0.512,0.3164 0.9309,-0.1638 0.9309,-1.0671 0,-2.1746 -3.7187,-16.673 -5.1804,-20.198 -1.275,-3.0744 -1.511,-3.8094 -1.6946,-5.2777 -0.069,-0.55 -0.6351,-1 -1.2586,-1 -0.8146,0 -0.9491,2.9649 -0.4779,10.535 0.8092,13 3.7283,21.321 6.1216,17.449 z m 126.07,-76.5 c 2.0516,-2.6898 2.2653,-3.5134 1.2068,-4.6504 -0.7075,-0.75995 -1.435,-2.04174 -1.6166,-2.84844 -1.085,-2.4157 -2.6771,-4.6605 -3.5993,-6.7356 -1.0309,-2.3375 -1.9941,-4.25 -2.1406,-4.25 -1.2857,2.0969 -28.298,35.68704 -18.322,43.06704 10.388,-2.2064 19.553,-18.046 24.471,-24.583 z m -90.678,2.5156 c -0.4962,0 -0.9022,0.4461 -0.9022,0.9913 -0.925,2.2973 -6.9654,6.7175 -4.9614,8.0585 3.1337,-0.2501 4.3314,1.6778 6.7114,2.5621 7.2787,2.6996 -0.5513,-11.534 -0.8478,-11.612 z m -20.923,-3.3011 c 3.4348,-3.95944 6.9168,-8.75984 7.7379,-10.66804 1.7173,-3.9902 7.4441,-9.8451 13.157,-13.451 l 3.941,-2.4879 3.9512,1.909 c 4.684,2.2631 12.292,10.328 17.786,18.854 3.872,6.00914 5.4161,7.38824 5.4813,4.89554 0.018,-0.6875 0.4218,-4.26684 0.8973,-7.95394 0.7484,-5.8022 0.5947,-7.2495 -1.1421,-10.76 -2.5926,-5.24 -1.8625,-9.162 2.7963,-15.022 l 3.5663,-4.4858 -4.851,-4.5142 c -6.6783,-6.2145 -12.875,-13.888 -19.795,-24.514 -3.2239,-4.95 -7.0186,-10.398 -8.4329,-12.107 -1.4142,-1.709 -3.3374,-4.0516 -4.2737,-5.2059 -0.9363,-1.1542 -4.8532,-7.406 -8.7042,-13.893 -10.772,-18.145 -10.81,-18.184 -12.885,-13.544 -1.5289,3.4185 -3.3832,6.5506 -5.1094,8.6306 -0.7275,0.87666 -1.0577,2.2849 -0.7336,3.1293 0.3274,0.85309 -0.2895,2.4141 -1.3881,3.5127 -1.0875,1.0875 -1.9773,2.6042 -1.9773,3.3703 0,0.76616 -0.675,1.652 -1.5,1.9686 -0.825,0.31658 -1.5,1.7147 -1.5,3.107 0,1.7141 -0.565,2.5569 -1.75,2.6103 -1.1025,0.0497 -0.7326,0.45055 1,1.0833 3.189,1.1647 3.404,2.8337 1.3208,10.25 -3.4654,12.336 -3.4838,12.523 -1.9214,19.418 0.8312,3.6684 1.7501,10.045 2.0418,14.17 0.2918,4.125 0.9318,8.2602 1.4224,9.1893 0.5391,1.0211 0.5125,1.9238 -0.067,2.282 -0.5275,0.32599 -0.7121,1.2361 -0.4104,2.0224 0.3018,0.78636 -0.1734,2.8771 -1.0559,4.6461 -0.8825,1.769 -1.8813,5.7237 -2.2196,8.7882 -0.3383,3.0646 -1.3474,6.9219 -2.2425,8.5719 -1.053,1.941 -1.5217,4.77824 -1.3279,8.03754 l 0.2996,5.0375 5.822,0.1613 5.822,0.1614 6.245,-7.1989 z"
     id="path3962"
     sodipodi:nodetypes="cccccccscccsccccccccssscscccccccsscccccscccccccscccccccccsccccccscccscscccccsccscccccccccccccccccccccccccccccccccccccscsccccccccccccccccc" />
  <metadata
     id="metadata7">
    <rdf:RDF>
      <cc:Work>
        <dc:format>image/svg+xml</dc:format>
        <dc:type
           rdf:resource="http://purl.org/dc/dcmitype/StillImage" />
        <cc:license
           rdf:resource="http://creativecommons.org/licenses/publicdomain/" />
        <dc:publisher>
          <cc:Agent
             rdf:about="http://openclipart.org/">
            <dc:title>Openclipart</dc:title>
          </cc:Agent>
        </dc:publisher>
        <dc:title>Escalade</dc:title>
        <dc:date>2012-01-14T06:28:58</dc:date>
        <dc:description>Différentes poistions en escalade</dc:description>
        <dc:source>http://openclipart.org/detail/167045/escalade-by-cyrille</dc:source>
        <dc:creator>
          <cc:Agent>
            <dc:title>cyrille</dc:title>
          </cc:Agent>
        </dc:creator>
        <dc:subject>
          <rdf:Bag>
            <rdf:li>climb</rdf:li>
            <rdf:li>clip art</rdf:li>
            <rdf:li>clipart</rdf:li>
            <rdf:li>escalade</rdf:li>
            <rdf:li>montagne</rdf:li>
            <rdf:li>mountain</rdf:li>
            <rdf:li>silhouette</rdf:li>
            <rdf:li>sport</rdf:li>
          </rdf:Bag>
        </dc:subject>
      </cc:Work>
      <cc:License
         rdf:about="http://creativecommons.org/licenses/publicdomain/">
        <cc:permits
           rdf:resource="http://creativecommons.org/ns#Reproduction" />
        <cc:permits
           rdf:resource="http://creativecommons.org/ns#Distribution" />
        <cc:permits
           rdf:resource="http://creativecommons.org/ns#DerivativeWorks" />
      </cc:License>
    </rdf:RDF>
  </metadata>
  <flowRoot
     xml:space="preserve"
     id="flowRoot826"
     style="font-style:normal;font-variant:normal;font-weight:normal;font-stretch:normal;font-size:40px;line-height:1.25;font-family:sans-serif;-inkscape-font-specification:'sans-serif, Normal';font-variant-ligatures:normal;font-variant-caps:normal;font-variant-numeric:normal;font-feature-settings:normal;text-align:center;letter-spacing:0px;word-spacing:0px;writing-mode:lr-tb;text-anchor:middle;fill:#000000;fill-opacity:1;stroke:none"><flowRegion
       id="flowRegion828"><rect
         id="rect830"
         width="422.45294"
         height="112.50106"
         x="89.541656"
         y="91.273712" /></flowRegion><flowPara
       id="flowPara832" /></flowRoot>  <g
     aria-label="FINLAND"
     style="font-style:normal;font-variant:normal;font-weight:bold;font-stretch:normal;font-size:192px;line-height:1.25;font-family:sans-serif;-inkscape-font-specification:'sans-serif, Bold';font-variant-ligatures:normal;font-variant-caps:normal;font-variant-numeric:normal;font-feature-settings:normal;text-align:center;letter-spacing:0px;word-spacing:0px;writing-mode:lr-tb;text-anchor:middle;fill:#000000;fill-opacity:1;stroke:none"
     id="text836">
    <path
       d="m 153.26593,144.16391 h 97.40625 v 27.28125 h -61.3125 v 26.0625 h 57.65625 v 27.28125 h -57.65625 v 59.34375 h -36.09375 z"
       style="font-style:normal;font-variant:normal;font-weight:bold;font-stretch:normal;font-size:192px;font-family:sans-serif;-inkscape-font-specification:'sans-serif, Bold';font-variant-ligatures:normal;font-variant-caps:normal;font-variant-numeric:normal;font-feature-settings:normal;text-align:center;writing-mode:lr-tb;text-anchor:middle"
       id="path842" />
    <path
       d="m 284.51593,144.16391 h 36.09375 v 139.96875 h -36.09375 z"
       style="font-style:normal;font-variant:normal;font-weight:bold;font-stretch:normal;font-size:192px;font-family:sans-serif;-inkscape-font-specification:'sans-serif, Bold';font-variant-ligatures:normal;font-variant-caps:normal;font-variant-numeric:normal;font-feature-settings:normal;text-align:center;writing-mode:lr-tb;text-anchor:middle"
       id="path844" />
    <path
       d="m 356.14093,144.16391 h 40.3125 l 50.90625,96 v -96 h 34.21875 v 139.96875 h -40.3125 l -50.90625,-96 v 96 h -34.21875 z"
       style="font-style:normal;font-variant:normal;font-weight:bold;font-stretch:normal;font-size:192px;font-family:sans-serif;-inkscape-font-specification:'sans-serif, Bold';font-variant-ligatures:normal;font-variant-caps:normal;font-variant-numeric:normal;font-feature-settings:normal;text-align:center;writing-mode:lr-tb;text-anchor:middle"
       id="path846" />
    <path
       d="m 517.01593,144.16391 h 36.09375 v 112.6875 h 63.375 v 27.28125 h -99.46875 z"
       style="font-style:normal;font-variant:normal;font-weight:bold;font-stretch:normal;font-size:192px;font-family:sans-serif;-inkscape-font-specification:'sans-serif, Bold';font-variant-ligatures:normal;font-variant-caps:normal;font-variant-numeric:normal;font-feature-settings:normal;text-align:center;writing-mode:lr-tb;text-anchor:middle"
       id="path848" />
    <path
       d="m 724.20343,258.63266 h -56.4375 l -8.90625,25.5 h -36.28125 l 51.84375,-139.96875 h 43.03125 l 51.84375,139.96875 h -36.28125 z m -47.4375,-25.96875 h 38.34375 l -19.125,-55.6875 z"
       style="font-style:normal;font-variant:normal;font-weight:bold;font-stretch:normal;font-size:192px;font-family:sans-serif;-inkscape-font-specification:'sans-serif, Bold';font-variant-ligatures:normal;font-variant-caps:normal;font-variant-numeric:normal;font-feature-settings:normal;text-align:center;writing-mode:lr-tb;text-anchor:middle"
       id="path850" />
    <path
       d="m 787.76593,144.16391 h 40.3125 l 50.90625,96 v -96 h 34.21875 v 139.96875 h -40.3125 l -50.90625,-96 v 96 h -34.21875 z"
       style="font-style:normal;font-variant:normal;font-weight:bold;font-stretch:normal;font-size:192px;font-family:sans-serif;-inkscape-font-specification:'sans-serif, Bold';font-variant-ligatures:normal;font-variant-caps:normal;font-variant-numeric:normal;font-feature-settings:normal;text-align:center;writing-mode:lr-tb;text-anchor:middle"
       id="path852" />
    <path
       d="m 984.73468,171.44516 v 85.40625 h 12.9375 c 14.75002,0 26.00002,-3.65625 33.75002,-10.96875 7.8125,-7.3125 11.7187,-17.9375 11.7187,-31.875 0,-13.875 -3.875,-24.4375 -11.625,-31.6875 -7.75,-7.25 -19.0312,-10.875 -33.84372,-10.875 z m -36.09375,-27.28125 h 38.0625 c 21.24997,0 37.06247,1.53125 47.43747,4.59375 10.4375,3 19.375,8.125 26.8125,15.375 6.5625,6.3125 11.4375,13.59375 14.625,21.84375 3.1875,8.25 4.7813,17.59375 4.7813,28.03125 0,10.5625 -17.0914,11.96421 -20.2789,20.27671 -6.9184,7.10203 -17.8202,17.5402 -24.3827,23.8527 -7.5,7.25 -9.8992,10.39731 -18.3902,17.19071 -7.6301,5.86992 -9.6045,8.80488 -30.60447,8.80488 h -38.0625 z"
       style="font-style:normal;font-variant:normal;font-weight:bold;font-stretch:normal;font-size:192px;font-family:sans-serif;-inkscape-font-specification:'sans-serif, Bold';font-variant-ligatures:normal;font-variant-caps:normal;font-variant-numeric:normal;font-feature-settings:normal;text-align:center;writing-mode:lr-tb;text-anchor:middle"
       id="path854"
       inkscape:connector-curvature="0"
       sodipodi:nodetypes="ccscsssccscccscccscc" />
  </g>
  <text
     xml:space="preserve"
     style="font-style:normal;font-variant:normal;font-weight:bold;font-stretch:normal;font-size:192px;line-height:1.25;font-family:Montserrat;-inkscape-font-specification:'Montserrat, Bold';font-variant-ligatures:normal;font-variant-caps:normal;font-variant-numeric:normal;font-feature-settings:normal;text-align:center;letter-spacing:0px;word-spacing:0px;writing-mode:lr-tb;text-anchor:middle;fill:#000000;fill-opacity:1;stroke:none"
     x="505.10678"
     y="139.48845"
     id="text840"><tspan
       sodipodi:role="line"
       id="tspan838"
       x="505.10678"
       y="139.48845">CLIMBING</tspan></text>
</svg>
