<?xml version="1.0" encoding="UTF-8" standalone="no"?>
<svg
   xmlns:dc="http://purl.org/dc/elements/1.1/"
   xmlns:cc="http://creativecommons.org/ns#"
   xmlns:rdf="http://www.w3.org/1999/02/22-rdf-syntax-ns#"
   xmlns:svg="http://www.w3.org/2000/svg"
   xmlns="http://www.w3.org/2000/svg"
   xmlns:sodipodi="http://sodipodi.sourceforge.net/DTD/sodipodi-0.dtd"
   xmlns:inkscape="http://www.inkscape.org/namespaces/inkscape"
   id="svg2"
   viewBox="0 0 746.49 766.28"
   version="1.1"
   sodipodi:docname="logoInTheMaking.svg"
   inkscape:version="0.92.3 (2405546, 2018-03-11)">
  <defs
     id="defs12" />
  <sodipodi:namedview
     pagecolor="#ffffff"
     bordercolor="#666666"
     borderopacity="1"
     objecttolerance="10"
     gridtolerance="10"
     guidetolerance="10"
     inkscape:pageopacity="0"
     inkscape:pageshadow="2"
     inkscape:window-width="1920"
     inkscape:window-height="1017"
     id="namedview10"
     showgrid="false"
     inkscape:zoom="1"
     inkscape:cx="560.85947"
     inkscape:cy="398.43445"
     inkscape:window-x="-8"
     inkscape:window-y="-8"
     inkscape:window-maximized="1"
     inkscape:current-layer="svg2"
     inkscape:snap-page="false"
     showguides="false" />
  <path
     inkscape:connector-curvature="0"
     d="m 31.359656,148.47743 c -0.14965,-0.49509 -0.34314,-1.55572 -0.43001,-2.35698 -0.38528,-3.55222 -1.2344,-9.75822 -1.40862,-10.29561 -0.19154,-0.59026 -0.53347,-3.63884 -1.18796,-10.59102 -1.22611,-3.37761 -0.78699,-8.02862 -1.29451,-10.22883 -0.1264,-0.54015 -0.20936,-1.09648 -0.18431,-1.23624 0.0252,-0.13979 -0.18267,-2.26104 -0.46173,-4.71393 -1.06694,-9.379159 -1.3695,-10.41779 -3.39756,-11.66659 -0.5804,-0.35742 -2.18894,-1.38206 -3.57446,-2.27696 -3.40911,-2.20183 -4.56096,-1.52327 -3.28304,1.93437 1.3756,5.56479 -2.41359,2.770771 -4.1312,5.10597 -0.57348,0.79862 -0.86506,0.93525 -1.34729,0.63139 -0.33851,-0.21329 -0.61546,-0.62527 -0.61546,-0.91548 0,-0.29023 -0.2374099,-0.62943 -0.5275299,-0.7538 -0.37576,-0.16105 -0.52753,-0.81645 -0.52753,-2.27765 0,-1.83447 -0.0512,-1.97357 -0.48231,-1.31472 -0.44839,0.68498 -0.5329,0.60925 -1.200159,-1.07556 -0.39472,-0.99684 -0.91501,-2.79717 -1.1561604,-4.00095 -0.40309,-2.01206 -0.51704,-2.18836 -1.41359,-2.18836 -1.45425,0 -2.4427,-1.79365 -2.65417,-4.81607 l -0.17161,-2.45121 1.50419,-1.28643 c 0.82733,-0.70756 1.71256,-1.19714 1.96706,-1.08801 0.79984,0.34279 1.3333904,-1.57689 0.7869,-2.83052 -0.25896,-0.59415 -0.48466,-1.16866 -0.50142,-1.27669 -1.10289,-2.59286 -1.98007,-8.85748 -3.73981,-10.99917 -0.60374,-1.22174 -0.36194,-2.66817 -0.63961,-4.1247 -0.36706004,-1.86447 0.44815,-5.72429 1.79918,-8.51807 0.68256,-1.41159 1.33217,-3.166 1.4436,-3.89862 0.11143,-0.73266 0.36316,-2.39275 0.55941,-3.68908 0.19626,-1.29633 0.75804,-4.37256 1.2484,-6.83559 0.4903604,-2.46335 0.8915804,-4.81331 0.8915804,-5.22187 0,-0.40873 0.27027,-1.76752 0.600569,-3.0195 0.56592,-2.14464 0.70159,-2.32645 2.3461599,-3.14183 0.95998,-0.47604 1.92598,-0.78814 2.14656,-0.69354 0.22066,0.0946 0.78707,-0.15937 1.25872,-0.56426 0.47158,-0.40493 1.04978,-0.74014 1.28475,-0.74495 0.23506,-0.005 1.15088,-0.28313 2.03522,-0.61847 0.88426,-0.33536 2.03717,-0.66845 2.56194,-0.74018 0.52477,-0.0717 1.94331,-0.25662 3.15218,-0.4109 1.20894,-0.15426 2.19804,-0.43988 2.19804,-0.63473 0,-0.19483 -0.0423,-0.35425 -0.0929,-0.35425 -0.0512,0 5.387437,2.789726 4.329037,2.357616 -1.38105,-0.56387 2.227,0 0,0 -2.72761,0.41023 3.464894,-0.321553 0,0 0.74201,-0.88747 5.127977,-0.591001 6.581747,-0.437451 0.91883,0.097 7.961394,0.634503 7.961394,0.450083 0,-0.18435 6.122596,0.476577 6.412626,0.476577 l 4.695637,0.102049 c 0,-0.29764 3.414579,0.676436 3.619459,0.676436 0.20488,0 7.78316,2.055508 7.6636,1.839458 -0.14421,-0.26067 -11.395213,18.747329 -3.828093,36.338284 l 5.500806,24.762937 53.077731,57.945961 -39.972394,-0.8754 -9.316285,-2.60994 c 0.12192,-0.54257 -5.908425,-1.64065 -5.301265,-2.3567 0.60708,-0.71608 -0.30004,0.46089 0,0 0.3002,-0.46091 4.850185,2.5431 5.301265,2.3567 0.59683,-0.24662 -5.366975,-1.4231 -5.301265,-2.3567 0.0773,-1.09501 -0.10711,-1.4361 -1.25839,-2.32889 -0.74185,-0.57525 -1.51883,-1.48787 -1.72664,-2.02801 -1.07694,-1.89476 -2.95779,-2.4193 -4.23107,-4.02647 0,-0.16205 -0.22229,-0.29463 -0.49175,-0.29463 -0.739,0 -0.98544,-1.15797 -0.38829,-1.82495 0.77235,-0.86269 0.65214,-1.19137 -0.53241,-1.45602 -0.66693,-0.149 -1.20862,-0.60342 -1.46319,-1.22759 -1.25458,-1.88109 -5.13209,-3.41724 -5.56641,-5.68028 0,-0.13528 -0.67264,-0.4732 -1.49468,-0.75093 -1.0771,-0.36392 -1.76828,-0.94346 -2.47426,-2.07473 -0.53875,-0.86335 -1.4514,-1.79133 -2.02797,-2.06214 -0.57666,-0.27082 -0.98032,-0.56902 -0.89704,-0.66262 0.0834,-0.0936 -1.67612,-0.17022 -3.90996,-0.17022 -4.28524,0 -4.79024,-0.18128 -5.66905,-2.03492 -0.22343,-0.47105 -0.75023,-0.91298 -1.17072,-0.98208 -1.02823,-0.16898 -1.25238,-1.1062 -0.329,-1.37587 0.40724,-0.11896 0.74038,-0.3024 0.74038,-0.40765 0,-0.15838 -1.49052,-1.9538 -4.87751,-5.87512 -0.912,-1.05596 -0.78243,-0.20767 0.49874,3.26502 2.02676,3.28479 2.94925,10.05207 4.38194,13.1067 0.31729,0.63174 -0.48857,1.33195 -0.23668,2.13368 0.12591,0.36655 0.31111,5.82564 0.41163,12.1313 0.10037,6.30567 0.27036,11.77422 0.37772,12.15251 0.12476,0.43973 0.0106,0.68745 -0.31696,0.68745 -0.42489,0 -0.56088,-1.5213 -0.7987,-8.93682 -0.46856,-2.46495 0.51135,-18.81173 -0.7634,-19.71092 -1.26157,-2.1849 -1.14445,-7.35883 -3.30655,-9.49228 -0.18194,-0.12783 -0.28751,-0.39298 -0.23464,-0.58924 0.1477,-0.54859 -1.21351,-4.48138 -1.55104,-4.48138 -0.16405,0 -0.21741,0.57451 -0.11859,1.27669 0.75714,7.79841 2.09769,13.96149 2.81985,21.52499 0.11086,1.17848 0.27662,2.76138 0.36828,3.51757 0.0917,0.75619 0.25547,2.17038 0.36389,3.14263 0.10841,0.97224 0.51915,4.19618 0.91289,7.16398 0.69898,5.26979 0.77625,7.87227 0.17454,5.88103 z m 12.797,-37.27149 c 0,-0.14503 -0.24059,-0.56061 -0.53453,-0.9235 -0.3294,-0.40645 -0.56568,-1.57249 -0.61553,-3.03687 -0.0447,-1.30736 -0.1791,-2.30971 -0.29915,-2.22737 -0.11997,0.0823 -0.77853,1.20032 -1.46336,2.48436 -1.23994,2.32499 -1.35022,3.21577 -0.28499,2.30087 0.38877,-0.33381 0.3651,-0.22509 -0.0773,0.35549 -0.49142,0.64519 -0.5316,0.88347 -0.17593,1.04249 0.68475,0.30613 3.45043,0.30971 3.45043,0.005 z m -5.51786,-1.40581 c 0.46678,-0.48613 1.43563,-1.91134 2.15307,-3.16713 1.1129,-1.94831 1.23612,-2.37551 0.83978,-2.91187 -0.36584,-0.49521 -0.37113,-0.66369 -0.0252,-0.79388 0.66279,-0.24916 0.52818,-0.80109 -0.26376,-1.08185 -0.52339,-0.18555 -0.70338,-0.59435 -0.70338,-1.59778 0,-0.74163 0.13192,-1.34842 0.29313,-1.34842 0.16112,0 0.29296,-0.26516 0.29296,-0.58924 0,-0.32409 -0.13184,-0.58925 -0.29296,-0.58925 -0.16121,0 -0.29313,0.16272 -0.29313,0.36161 0,0.19889 -0.51427,0.48381 -1.1429,0.6332 -0.62863,0.14937 -2.13038,0.73793 -3.33713,1.30792 -2.16918,1.02458 -2.19415,1.05412 -2.19781,2.60763 -0.008,3.16054 2.1987,7.89742 3.43205,7.36867 0.88987,0.0293 -0.0716,1.15778 1.24481,-0.19949 z m 2.72103,-16.21005 c 0.63945,-0.22668 0.63058,-0.28451 -0.16885,-1.09873 -0.62473,-0.63634 -0.90362,-1.4458 -1.0745,-3.11819 -0.23457,-2.29631 0.12273,-2.9596 0.84676,-1.5713 0.33957,0.65142 0.35901,0.65074 0.36918,-0.0127 0.008,-0.38505 0.36673,-0.87384 0.80195,-1.08616 0.70468,-0.34386 0.66913,-0.37185 -0.32582,-0.25603 l -1.11721,0.13003 0.67085,-1.46878 c 0.36893,-0.80785 0.95079,-1.53459 1.29296,-1.615 0.39878,-0.0937 -0.13534,-0.53106 -1.488,-1.21831 -1.16056,-0.58963 -2.23449,-1.02359 -2.38666,-0.96432 -0.1521,0.0593 -0.40309,-0.12083 -0.55771,-0.40024 -0.22131,-0.40006 -0.44018,-0.3583 -1.02961,0.19641 -0.5834,0.5491 -0.83643,1.46478 -1.14705,4.15179 -0.21919,1.89595 -0.31086,3.70221 -0.20374,4.01392 0.10704,0.31169 0.0399,0.67326 -0.14835,0.80348 -0.18862,0.13023 -0.30045,0.90846 -0.2484,1.72936 0.10639,1.67779 0.77813,2.73073 1.11558,1.74846 0.11273,-0.32814 0.3534,-0.49417 0.53485,-0.36891 0.18138,0.12524 0.42928,0.048 0.55079,-0.17152 0.38341,-0.69314 0.93941,-0.43199 0.72046,0.33848 -0.15982,0.56261 0,0.78215 0.66743,0.92499 0.48231,0.10299 0.94908,-0.008 1.03733,-0.24668 0.0882,-0.23866 0.19121,-0.0804 0.22887,0.35172 0.0569,0.64671 0.0965,0.66733 0.22627,0.11666 0.0867,-0.36794 0.46141,-0.77666 0.83262,-0.90829 z m -9.51233,-1.56532 c 0,-0.94677 -0.13395,-1.81389 -0.29776,-1.92694 -0.28817,-0.19894 -0.47174,-1.63252 -0.49516,-3.86727 -0.008,-0.59416 -0.12973,-1.08028 -0.27434,-1.08028 -0.14477,0 -0.3721,-0.48515 -0.50541,-1.07808 -0.43489,-1.93558 -0.85514,-2.16621 -1.99504,-1.09485 -0.56364,0.52973 -1.61358,1.07238 -2.3333,1.20582 -2.12908,0.39484 -2.25857,0.48951 -1.99098,1.45621 0.28646,1.03487 2.02562,2.8044 3.40358,3.46305 0.52949,0.25308 0.88923,0.5929 0.79943,0.75522 -0.0898,0.16228 0.54527,1.01531 1.41123,1.89559 0.86596,0.88028 1.57438,1.79804 1.57438,2.03947 0,0.24145 0.15827,0.32973 0.35169,0.1962 0.19341,-0.13354 0.35168,-1.01739 0.35168,-1.96414 z M 20.594056,73.5375 c 0.83482,-0.80546 9.86751,-2.26811 12.22343,-1.97934 1.41863,0.17388 1.48931,0.13456 1.34592,-0.74924 -0.1447,-0.8907 0.64595,-2.12276 1.06319,-1.65679 0.10809,0.12081 0.49996,-0.11916 0.87068,-0.53327 0.44791,-0.5003 1.17552,-0.75694 2.16869,-0.76487 1.18625,-0.009 1.36763,-0.0946 0.87922,-0.41235 -0.33851,-0.22022 -0.61546,-0.62716 -0.61546,-0.90429 0,-0.28865 -0.71354,-0.65787 -1.67051,-0.86434 -1.55828,-0.33624 -1.66889,-0.43965 -1.64636,-1.53895 0.0366,-1.78556 0.48214,-3.40004 0.86539,-3.1355 0.1878,0.12961 0.34136,0.0586 0.34136,-0.1578 0,-0.2164 0.31655,-0.32537 0.70337,-0.24215 0.38683,0.0832 0.70338,-0.0359 0.70338,-0.26479 0,-0.22884 0.28158,-0.33382 0.62578,-0.23328 0.34429,0.10054 0.82521,-0.0556 1.06889,-0.34702 0.36226,-0.43312 0.31224,-0.5298 -0.27409,-0.5298 -0.39455,0 -0.71729,-0.15257 -0.71729,-0.33905 0,-0.18648 -0.83074,-0.63269 -1.84628,-0.99158 -2.47539,-0.87482 -2.8431,-1.17223 -2.58267,-2.08874 0.22602,-0.7954 2.83912,-2.47304 3.85197,-2.47304 0.7987,0 1.98365,-1.4079 1.98365,-2.35697 0,-0.43211 -0.12631,-0.78566 -0.28068,-0.78566 -0.25449,0 -1.24295,-1.05867 -3.18138,-3.4075 -0.38772,-0.46978 -0.88914,-1.23866 -1.11427,-1.70864 -0.29394,-0.61336 -0.64539,-0.80417 -1.24522,-0.67606 -0.4597,0.0982 -0.88093,0.0521 -0.93607,-0.10238 -0.10452,-0.29294 -5.86922,-2.33713 -7.18659,-2.54851 -1.32566,-0.21266 -2.23302,-0.63297 -2.23302,-1.0344 0,-0.21425 -0.15104,-0.28531 -0.3355,-0.15792 -0.47125,0.32533 -2.16088,-0.19782 -1.93827,-0.60013 0.18788,-0.33948 -2.1268,-0.99664 -2.90964,-0.82612 -0.23961,0.0523 -0.73696,-0.0852 -1.10524,-0.30542 -0.58943,-0.35235 -0.69874,-0.22487 -0.91233,1.0641 -0.13346,0.80541 -0.47978,2.02667 -0.76958,2.71389 -0.49199,1.16689 -0.47588,1.32649 0.24409,2.41428 1.06026,1.60182 1.33745,4.55483 0.52208,5.56125 -0.33876,0.41805 -0.69679,1.56275 -0.79585,2.54376 -0.10126,1.0041 -0.36283,1.78368 -0.59838,1.78368 -0.23001,0 -0.7756,0.45893 -1.2122,1.01985 l -0.79382,1.0199 0.71989,2.02451 c 0.79268,2.22922 1.97129,8.45287 2.3547,12.43458 0.13526,1.40436 0.4209,2.68034 0.63489,2.83554 0.54274,0.39374 3.0928,-0.0844 3.7303,-0.69942 z m -9.14721,-33.20651 c 1.50785,-0.74551 0.95201,-4.16594 0.18121,-4.64715 l -1.40675,-0.83197 -0.11476,1.47924 c -0.8063499,0.99804 1.33965,3.96127 1.3403,3.99976 z"
     id="path3919"
     style="fill:#000000;stroke-width:0.37168595"
     sodipodi:nodetypes="ccccccccccccscscccsccccccccccccsccccccccssccccsccscscccccccccccsccccccccscccsccccccsccccsccccccccccccccccccccccssssscsccccccccccccccccccccccccccccccccsccscccsccsscscccccccscccscsccssccssscccccscccccccccsccscccccccccc" />
  <path
     inkscape:connector-curvature="0"
     d="m 1034.9938,325.45785 c -1.3117,-0.94227 -0.9239,-1.70764 1.6683,-3.29065 0.9973,-0.60895 2.7175,-2.83776 3.8226,-4.95276 1.1055,-2.11511 3.6243,-6.77509 5.5976,-10.35573 1.973,-3.58044 3.5872,-6.97178 3.5872,-7.53625 0,-0.56454 1.273,-3.24283 2.8291,-5.95162 1.5561,-2.70896 2.7192,-4.9938 2.5852,-5.07737 -3.975,-2.4724 -5.4059,-3.49005 -5.4097,-3.84755 0,-0.24124 -1.2555,-0.6417 -2.7845,-0.88994 -1.9558,-0.31749 -3.2414,-0.16095 -4.3354,0.52809 -0.8558,0.53868 -4.1279,1.81645 -7.2719,2.83952 -6.1461,1.9999 -7.809,1.80857 -8.2359,-0.94747 -0.1215,-0.78256 -0.527,-1.42284 -0.902,-1.42284 -0.3753,0 -0.5036,0.27751 -0.2855,0.61669 0.217,0.33915 0.081,0.80388 -0.3043,1.03274 -0.3852,0.22883 -0.7003,0.13094 -0.7003,-0.21753 0,-0.34845 -1.0083,-0.5896 -2.2402,-0.5359 -1.9906,0.0868 -2.2251,-0.0869 -2.1024,-1.5584 0.076,-0.91084 -0.027,-2.76347 -0.2293,-4.11701 l -0.3666,-2.46087 -4.5965,3.31341 c -2.528,1.82238 -4.2829,1.56661 -7.9364,2.43037 -5.2251,1.29774 -11.08553,0.20948 -11.08553,0.20948 -1.4542,0.0657 -5.91411,-1.29494 -5.56251,-0.002 0.2794,1.02611 -3.50835,-1.86443 -5.24575,-0.28754 -14.66352,3.30325 2.51838,-3.53168 -11.95688,0.48 l -9.04867,0.009 -0.12535,-7.67189 c 41.64769,-8.58977 72.64069,-32.58548 72.64069,-32.58548 0,0 11.697,-27.53532 3.3042,-47.70963 l 37.9111,0.31048 0.7615,3.88621 c -7.5081,6.88461 2.015,11.17086 0.5831,12.07503 -2.8365,1.78709 2.3826,-1.73505 0.4819,8.02658 l -1.9269,2.62615 c -1.4431,0.27737 0.3301,3.63257 -2.4166,6.43152 -2.2615,2.30446 0.1394,6.01619 -0.3698,6.01619 -0.7297,0 -0.6983,0.31116 0.1481,1.47224 0.5899,0.80974 1.0728,2.16594 1.0728,3.01381 0,0.84787 0.5274,2.49556 1.1719,3.66168 0.8923,1.61384 1.2391,4.33422 1.4527,11.39391 0.1558,5.10078 0.5948,9.64609 0.9792,10.1007 0.3844,0.45463 1.407,3.23892 2.2728,6.1872 1.6201,5.51791 1.4503,8.80173 -0.5159,9.96921 -0.6916,0.4108 -0.6941,0.68327 -0.025,1.33831 1.1718,1.12609 1.0741,2.87089 -0.2194,3.90159 -0.8928,0.71192 -1.5948,0.61366 -4.1545,-0.58133 -1.6939,-0.7909 -3.3323,-1.43805 -3.6405,-1.43805 -0.3084,0 -0.9805,1.22261 -1.4937,2.71689 -0.8325,2.42393 -2.7988,4.86483 -5.58,6.92677 -2.9405,2.18007 -9.2838,9.94722 -9.9833,12.2242 -0.8088,2.63223 -5.874,9.37305 -9.4012,12.51132 -1.0427,0.92763 -1.8958,2.36541 -1.8958,3.19512 0,1.06694 -0.4034,1.50854 -1.3784,1.50854 -0.7758,0 -1.3786,0.44164 -1.3786,1.01005 0,1.96626 -5.6165,3.02998 -7.7828,1.47408 z m -3.5912,-46.188 c 0.3793,-0.27196 2.1564,-1.02158 3.9492,-1.66587 1.793,-0.64426 4.257,-1.87853 5.4762,-2.74278 1.2188,-0.86425 2.7626,-1.57137 3.4301,-1.57137 1.4338,0 10.1784,3.89113 11.4924,5.1141 2.7758,2.58346 5.5032,-1.18607 5.0179,-6.93576 -0.073,-0.88973 -1.8722,-1.15395 -2.2524,-0.3312 -0.1262,0.27324 -1.6534,1.14028 -3.3928,1.92676 -4.6827,2.11679 -5.1089,1.57573 -5.1089,-6.48476 0,-6.83382 -0.5586,-8.26318 -2.6082,-6.6764 -0.4611,0.35703 -3.6302,2.13263 -7.0424,3.9459 -3.4119,1.81316 -7.2147,4.20527 -8.45,5.31547 -1.2356,1.11032 -3.9498,2.94254 -6.0316,4.07163 -4.1707,2.26199 -4.6188,3.42215 -2.2539,5.84102 1.3039,1.33389 1.9441,1.50128 4.3085,1.12705 1.5269,-0.24175 3.0868,-0.66203 3.4659,-0.93397 z m 23.7815,-11.37806 c 0,-0.78419 2.1153,-2.60517 5.3147,-4.57557 1.8043,-1.11133 2.4839,-1.22311 3.6841,-0.60585 1.3483,0.6934 1.4296,0.62716 0.9689,-0.79049 -0.2767,-0.85102 -0.8108,-1.73753 -1.1875,-1.97007 -0.3768,-0.23252 -0.4877,-0.72915 -0.247,-1.10365 0.2415,-0.37449 0.1183,-1.49284 -0.2759,-2.48518 -0.8684,-2.19515 0.4353,-3.91889 3.394,-4.48769 2.937,-0.56446 4.6938,0.14637 5.609,2.26928 1.1734,2.72274 1.8195,2.40212 2.6491,-1.31439 1.0912,-4.88933 -0.4191,-12.65974 -2.4603,-12.65974 -0.7692,0 -0.905,-0.48132 -0.5606,-1.98728 0.2496,-1.09299 0.2095,-1.98728 -0.089,-1.98728 -0.7819,0 -5.7707,5.53737 -5.7707,5.53737 0,0 -3.0202,3.8036 -10.2396,10.78402 l -3.6916,3.56911 0.4954,6.11842 c 0.272,3.36523 0.6364,6.34716 0.8093,6.62633 0.4051,0.6541 1.5977,-0.0456 1.5977,-0.93734 z"
     id="path3936"
     style="stroke-width:0.36746365"
     sodipodi:nodetypes="ccccscccccccsccsccccccccccccccccccccscsscccccccsccccssscccccsccccsccccccccccccccccccscscccccc" />
  <path
     inkscape:connector-curvature="0"
     d="m 163.16223,282.6203 c -0.75979,-0.84257 -1.36396,-1.89412 -1.36396,-2.37405 0,-0.47386 -0.41342,-1.83326 -0.9187,-3.02096 -0.50528,-1.18766 -0.9187,-2.40968 -0.9187,-2.71554 0,-0.30586 -0.40172,-1.33326 -0.89267,-2.28316 -1.25163,-2.42146 -2.32257,-4.83892 -2.61737,-5.90814 -0.13784,-0.49989 -0.97543,-2.19442 -1.86131,-3.7657 -0.88591,-1.57122 -1.61073,-3.00272 -1.61073,-3.18111 0,-0.17839 -0.14534,-0.32435 -0.3229,-0.32435 -0.34679,0 -0.79581,1.03239 -1.5813,3.63555 -0.47235,1.5654 -0.54864,1.63153 -1.76734,1.53246 -0.70057,-0.057 -1.67118,-0.38413 -2.15699,-0.72711 -0.48581,-0.34296 -1.19114,-0.80178 -1.56744,-1.01955 -0.3763,-0.21781 -0.57466,-0.50433 -0.44083,-0.63673 0.13384,-0.13241 -1.97137,-2.45215 -4.67836,-5.15485 -5.23987,-5.23192 -5.62425,-5.72454 -6.23574,-7.99095 -1.05543,-3.91112 -2.1016,-4.66623 -7.05227,-5.09159 -1.67426,-0.14382 -3.70601,-0.48123 -4.51483,-0.74979 -0.80882,-0.26857 -2.07085,-0.41467 -2.80452,-0.32463 -0.88584,0.1087 -1.48278,-0.0137 -1.7769,-0.36436 -0.28509,-0.33983 -0.80857,-0.45568 -1.46878,-0.32505 -0.5726,0.11329 -1.13624,0.0262 -1.27581,-0.19721 -0.13751,-0.2201 -0.50896,-0.40017 -0.82543,-0.40017 -0.8226,0 -4.89334,-1.85595 -4.89334,-2.23099 0,-0.17265 -0.25036,-0.31391 -0.55636,-0.31391 -0.45618,0 -0.52207,0.39278 -0.36586,2.18133 0.11734,1.34334 0.0487,2.18133 -0.17859,2.18133 -0.203,0 -0.35748,0.3681 -0.34326,0.818 0.0246,0.78052 0.0403,0.7847 0.34164,0.0909 0.34183,-0.78699 0.33033,-0.8541 0.52924,3.09022 0.0454,0.8998 0.20325,2.045 0.35087,2.54488 l 0.26841,0.90889 -0.74981,-0.90889 -0.7498,-0.90888 -0.008,1.54511 c -0.009,1.60578 0.24144,1.86154 1.06576,1.09066 0.40103,-0.37504 0.41161,-0.31151 0.0606,0.36356 -0.4897,0.94164 -1.21701,1.04798 -1.98317,0.28998 -0.29354,-0.29042 -0.61214,-0.45041 -0.70805,-0.35556 -0.0959,0.0949 -0.0945,-0.64913 0.004,-1.65331 0.11814,-1.21594 0.039,-1.82577 -0.23684,-1.82577 -0.26675,0 -0.41422,-0.88111 -0.41422,-2.47498 v -2.47497 h -1.84548 c -1.13764,0 -2.03215,-0.20112 -2.33223,-0.52436 -0.51058,-0.55002 -2.069421,-5.22356 -2.069421,-6.20443 0,-0.81524 1.031801,-1.58903 2.964781,-2.22347 l 1.6786,-0.55093 0.47493,1.59139 c 0.2612,0.87526 0.60656,1.59139 0.76748,1.59139 0.16088,0 0.206,0.3272 0.10032,0.72711 -0.10573,0.39991 -0.0268,0.72711 0.17528,0.72711 0.5653,0 0.85424,-1.5715 0.34749,-1.89008 -0.30648,-0.19268 -0.24481,-0.28185 0.19756,-0.28568 0.35369,-0.003 0.64308,-0.16916 0.64308,-0.36912 0,-0.19995 -0.18462,-0.36355 -0.41032,-0.36355 -0.23269,0 -0.32507,-0.32251 -0.2134,-0.745 0.14005,-0.52988 -0.15426,-1.06118 -1.01931,-1.83995 -0.72474,-0.65244 -1.15362,-1.34308 -1.06127,-1.709 0.18675,-0.74002 -1.81512,-2.9573 -3.35129,-3.7119 -0.60208,-0.29574 -3.153296,-1.88743 -5.669455,-3.53706 -2.516086,-1.64964 -4.702984,-2.99933 -4.85953,-2.99933 -0.156693,0 -0.565659,0.58532 -0.908773,1.30069 -0.343151,0.71536 -1.187873,1.73786 -1.877225,2.27222 -0.78949,0.61197 -1.777014,2.04794 -2.668258,3.87986 -1.131061,2.32497 -1.759816,3.1486 -3.134221,4.10563 -1.30598,0.90939 -1.654647,1.34642 -1.450366,1.81777 0.460491,1.06246 0.624423,2.57183 0.382769,3.52434 -0.311327,1.22718 -1.007886,1.1688 -0.874748,-0.0733 0.07515,-0.70101 -0.08048,-1.02465 -0.537327,-1.11732 -0.800257,-0.16235 -0.884813,1.23504 -0.138943,2.29596 0.335287,0.47691 0.400808,0.99113 0.195572,1.53511 -0.376849,0.99902 -0.564667,1.0076 -2.077795,0.0949 -0.938024,-0.5658 -1.194303,-0.96466 -1.194303,-1.8585 0,-1.14654 0.880293,-4.25068 1.587652,-5.59838 0.209903,-0.39991 1.083399,-2.13862 1.941129,-3.86387 0.857734,-1.72514 2.037633,-3.68826 2.621996,-4.36266 1.466716,-1.69242 3.402921,-4.9229 3.407257,-5.68491 0.0051,-0.89733 1.74361,-4.48336 2.624565,-5.4137 0.646908,-0.68316 0.680827,-0.89304 0.264327,-1.636 -0.262784,-0.46877 -0.489518,-0.93412 -0.503849,-1.03409 -0.0954,-0.66582 -1.035847,-1.81778 -1.484024,-1.81778 -0.427046,0 -0.496315,-0.35547 -0.332457,-1.70609 0.113881,-0.93837 0.28079,-1.82418 0.370932,-1.96851 0.09018,-0.14432 -0.0059,-0.3184 -0.213431,-0.38682 -0.587193,-0.19364 0.4391,-2.07961 1.291465,-2.37336 0.404226,-0.13929 0.853247,-0.22274 0.997813,-0.18544 0.144566,0.0373 0.723344,-0.11696 1.286173,-0.34281 0.56283,-0.22586 1.573835,-0.37392 2.246688,-0.32902 0.744069,0.0496 1.499935,-0.166 1.929259,-0.55039 0.396105,-0.35463 0.705889,-0.45095 0.705889,-0.21949 0,0.22688 0.658815,0.74503 1.464032,1.15145 1.6348,0.82512 2.089554,1.85969 1.496114,3.40386 -0.454717,1.18319 -0.178925,1.82675 1.785723,4.16743 1.3055,1.55529 1.33589,1.56819 3.33861,1.41535 4.14773,-0.31652 6.68737,-2.02751 13.24097,-8.92018 l 1.75588,-1.84679 -1.71347,-2.46803 c -1.14991,-1.65629 -2.01474,-2.52886 -2.62938,-2.6529 -1.19206,-0.24061 -2.56955,-1.15207 -2.56955,-1.7002 0,-0.23735 -0.49537,-0.81506 -1.10079,-1.28383 -1.13411,-0.87809 -2.574,-4.17252 -2.574,-5.88923 0,-0.48952 -0.41341,-1.37612 -0.91869,-1.97021 -0.50528,-0.59409 -0.9187,-1.23569 -0.9187,-1.42575 0,-0.19009 -0.35094,-0.65728 -0.77989,-1.03817 -0.42892,-0.38094 -1.27155,-1.55147 -1.87249,-2.60124 -0.6009,-1.04977 -1.21587,-1.90866 -1.36658,-1.90866 -0.77982,0 -3.281134,-6.22661 -5.54965,-13.8151 -0.448323,-1.49967 -1.563215,-4.11726 -2.477463,-5.81688 -0.914286,-1.69962 0.80926,1.49967 0,0 -0.80926,-1.49966 -2.676204,-2.59333 -2.846714,-2.65997 -0.17051,-0.0667 -6.98232,-2.00729 -3.329502,-4.28919 0.508758,-0.31782 -3.410144,-3.808 -3.410144,-3.808 -0.188223,-0.11509 -6.207394,-2.17069 -6.417701,-2.55948 -0.377878,-0.69857 4.77143,-0.49846 60.006254,-0.49846 h 51.8291 v 139.96875 h -24.8327 l -1.36396,-1.51253 z m -14.49774,-25.75061 c 0.92435,-1.06802 0.46559,-3.88495 -0.82918,-5.09196 -1.35199,-1.26022 -8.96132,-7.59176 -9.93293,-8.26506 -0.86376,-0.59856 -0.72617,-0.31889 3.84088,7.80698 3.26229,5.80453 5.29242,7.43253 6.92145,5.5504 z m 1.59746,-2.03271 c -0.1227,-0.31629 -0.22306,-0.6435 -0.22306,-0.72711 0,-0.0836 -0.14989,-0.15205 -0.33308,-0.15205 -0.18319,0 -0.24658,0.3272 -0.14089,0.72712 0.10572,0.39991 0.35598,0.72711 0.55614,0.72711 0.20017,0 0.26356,-0.25878 0.14089,-0.57508 z m -4.86063,-6.05974 c -0.1492,-0.24994 -0.62942,-0.94524 -1.06719,-1.54511 -0.43778,-0.59987 -1.6707,-2.80846 -2.73984,-4.90799 -2.53123,-4.97053 -2.44983,-4.88001 -3.58854,-3.99402 -0.5102,0.39704 -1.13312,0.72187 -1.38429,0.72187 -0.25117,0 -0.65477,0.23614 -0.89686,0.52476 -0.35962,0.42867 -0.082,0.87831 1.5168,2.45611 1.7622,1.73913 8.03748,7.16203 8.3175,7.18821 0.0624,0.006 -0.008,-0.19396 -0.15773,-0.4439 z m -37.18878,-6.89301 c -0.2637,-0.26087 -0.43483,-0.28233 -0.43483,-0.0545 0,0.48527 0.43458,0.91521 0.67983,0.67258 0.1044,-0.10331 -0.006,-0.38144 -0.245,-0.61805 z m -0.69585,-1.73899 c 0.10568,-0.39991 0.0423,-0.72711 -0.14089,-0.72711 -0.18319,0 -0.33309,0.3272 -0.33309,0.72711 0,0.39991 0.0634,0.72711 0.14089,0.72711 0.0775,0 0.22736,-0.3272 0.33309,-0.72711 z m -0.5054,-1.81778 c -0.0184,-0.83239 -0.0468,-0.8477 -0.33602,-0.18177 -0.1737,0.39991 -0.32492,1.05431 -0.33602,1.45422 -0.0165,0.60012 0.042,0.63186 0.33602,0.18178 0.1959,-0.29994 0.34712,-0.95434 0.33602,-1.45423 z m 20.97234,-1.72688 c -0.004,-0.14997 -0.22541,-0.89733 -0.49407,-1.66079 -0.49999,-1.4206 -5.15866,-6.42839 -5.98034,-6.42839 -0.3835,0 -1.97189,2.72812 -1.97189,3.38677 0,0.13683 0.46303,0.24878 1.02894,0.24878 1.27986,0 1.91089,0.59521 1.91089,1.80243 0,0.80942 0.32128,1.05606 2.48048,1.90394 2.73205,1.07285 3.03426,1.14745 3.02614,0.74721 z m 7.79862,-2.04598 c 0.74929,-0.82429 1.36945,-1.79426 1.37804,-2.15552 0.008,-0.36125 -0.67799,-1.9897 -1.5258,-3.61876 -1.11544,-2.14334 -1.56178,-3.45908 -1.61499,-4.76075 -0.0497,-1.21627 -0.26455,-1.90445 -0.66341,-2.12527 -0.32445,-0.17963 -0.58988,-0.6203 -0.58988,-0.97927 0,-0.35899 -0.32452,-0.94325 -0.72114,-1.29833 -0.39661,-0.3551 -0.90072,-1.18399 -1.12022,-1.84199 -0.21953,-0.658 -0.63911,-1.28746 -0.93251,-1.39885 -0.69986,-0.2657 -0.69894,2.00795 0.004,9.85198 0.75227,8.3934 1.48127,10.50747 3.4644,10.04757 0.52744,-0.12227 1.57207,-0.89674 2.32136,-1.72099 z m -9.83261,-3.95257 c -0.73069,-2.26964 -2.15849,-5.71291 -2.37045,-5.71691 -0.10106,-0.002 -0.55985,0.68196 -1.01953,1.51937 l -0.83579,1.52257 2.11046,2.10997 c 1.16075,1.16046 2.2235,2.10996 2.36163,2.10996 0.1381,0 0.0272,-0.6953 -0.24628,-1.54511 z m -11.75562,-7.88188 c 0.11542,-0.18482 -0.0697,-0.38933 -0.41143,-0.45444 -0.57481,-0.10954 -0.57224,-0.16697 0.0342,-0.76696 0.36726,-0.36335 0.93784,-0.55995 1.29742,-0.44703 0.41646,0.13077 1.14484,-0.26056 2.07427,-1.1144 0.78783,-0.72377 2.5948,-2.09833 4.01543,-3.05456 1.42067,-0.95622 2.80518,-2.0034 3.07667,-2.32704 0.31728,-0.37821 1.06833,-0.58841 2.10227,-0.58841 1.08652,0 1.60867,-0.15559 1.60867,-0.47935 0,-1.37446 -1.21165,-4.21433 -2.19623,-5.14758 -0.61108,-0.57922 -1.11107,-1.33159 -1.11107,-1.67192 0,-1.00883 -1.20312,-2.10382 -2.43322,-2.21456 -0.85935,-0.0773 -1.55061,0.21874 -2.75608,1.18047 -0.88497,0.70606 -2.14306,1.65152 -2.79578,2.10109 -0.65271,0.44957 -2.17455,2.01333 -3.38182,3.47504 -1.20732,1.46171 -2.77465,2.92975 -3.483,3.26229 -0.70835,0.33255 -1.38528,0.76052 -1.50434,0.9511 -0.29321,0.46935 0.67211,3.19125 1.91945,5.41224 0.81587,1.45281 1.24409,1.84821 2.12428,1.96157 0.60633,0.0781 1.21668,0.16816 1.35636,0.20016 0.13964,0.032 0.34837,-0.093 0.46383,-0.27786 z"
     id="path3949"
     style="stroke-width:0.36551136"
     sodipodi:nodetypes="cscscccssscccsccccccccssscscccccccccccccsscscscccscsccsscccccsccccccccsccscccccccsccccscccsccccccccscsssccsccccsccsccccccccccccsscsccccccsccccccsccccsssccccccccssssccccccccsccccccccccccscccccccccsscsccccccccccc" />
  <path
     inkscape:connector-curvature="0"
     d="m 1031.1343,152.19646 -13.4589,-29.16948 0.248,-41.280185 14.2342,-12.405142 1.7366,3.272008 c 0.7579,1.66148 1.4769,3.61728 1.5975,4.346344 0.2312,1.39493 1.4606,4.62943 1.7018,4.47737 0.078,-0.0493 0.8998,1.04822 1.8272,2.43823 1.0888,1.632 2.0676,2.80878 2.7622,3.32173 0.8725,0.64421 1.5362,1.54795 3.5073,4.77599 2.349,3.84697 2.4226,4.01414 2.1754,4.94334 -0.1409,0.52909 -0.1341,1.14943 0.015,1.3786 0.1489,0.22936 0.2357,0.64535 0.1923,0.92491 -0.1949,1.262085 4.0024,3.429445 11.2649,5.817145 1.6469,0.54143 3.746,1.50663 4.6648,2.14476 0.9186,0.63816 1.9895,1.13204 2.3794,1.09774 0.3901,-0.0342 1.7763,0.36909 3.0807,0.89666 2.379,0.96241 5.4004,1.43456 7.6701,1.19895 0.6684,-0.0697 1.2062,-0.25586 1.1946,-0.41418 -0.065,-0.90687 -3.5054,-3.34388 -4.486,-3.17838 -0.4924,0.0792 -1.3456,-0.94251 -0.9811,-1.17786 0.3591,-0.23158 0.1722,-3.03373 -0.2453,-3.67565 -0.3174,-0.48826 -0.2512,-0.69682 0.3432,-1.08046 0.4702,-0.30301 0.7183,-0.74657 0.6858,-1.224645 -0.028,-0.41217 0.039,-0.80727 0.1482,-0.87789 0.1097,-0.0706 0.4654,-0.61417 0.7909,-1.20777 2.0814,-2.74249 5.3325,-2.45047 7.6273,-1.04786 2.039,1.28455 3.3709,4.467845 2.5602,6.119275 -0.57,1.16104 -0.288,1.52362 1.955,2.51539 3.299,1.45882 13.2581,8.50734 15.0711,10.66656 0.9089,1.0825 0.9118,1.1117 0.3842,3.97846 -0.6288,3.41629 -1.66,6.61795 -2.7376,8.49946 -0.8038,1.40341 -0.7161,2.03777 0.3065,2.21841 0.3258,0.0575 0.6974,0.26634 0.826,0.46408 0.4085,0.62881 4.2712,2.90506 5.2158,3.07417 1.096,0.19595 0.9154,0.37756 -0.5778,0.58127 -1.1016,0.14968 -1.1084,0.15994 -0.6556,0.85606 0.6577,1.4263 -0.4339,3.7574 -2.0389,4.16234 -1.6005,0.63054 -3.5746,0.45372 -4.241,-1.0904 -0.2477,-0.58662 -0.5104,-0.90254 -0.6631,-0.80397 -0.1399,0.0906 -0.2656,0.014 -0.2787,-0.17027 -0.043,-0.59165 -0.8283,-0.22091 -1.1998,0.56618 -0.1982,0.41967 -0.2677,0.7095 -0.1547,0.64424 0.1138,-0.0648 0.2194,0.0922 0.2429,0.34589 0.055,0.80663 0.5262,1.59333 0.7,1.17003 0.1071,-0.26014 0.2049,-0.20342 0.2998,0.17374 0.083,0.32992 0.27,0.48787 0.4535,0.38552 0.172,-0.0957 0.1538,0.0658 -0.04,0.35872 -0.279,0.4219 -0.5597,0.42037 -1.3457,-0.007 -0.7802,-0.42391 -0.9851,-0.42601 -0.955,-0.01 0.021,0.29113 -0.066,0.61932 -0.1946,0.72891 -0.1083,0.67057 -0.9207,2.37406 -1.0474,2.57824 -1.6089,2.30471 -4.911,3.52717 -7.5737,3.72233 -2.8139,-0.20336 -6.1434,-0.40881 -8.3967,-0.43159 -0.7455,-0.0443 -0.7895,0.007 -0.5598,0.65317 1.9965,2.74201 3.9759,6.02057 6.0477,8.3195 0.7235,0.78865 0.8881,0.83582 1.341,0.3839 0.2837,-0.28355 0.5856,-0.40842 0.6705,-0.27788 0.33,0.50712 0.4844,0.62013 0.8591,0.63238 0.2714,0.009 0.3768,0.21257 0.3477,0.67412 -0.033,0.52924 -0.1329,0.61933 -0.5011,0.45092 -0.3066,-0.14013 -0.2592,-0.0133 0.1415,0.379 2.5435,2.49026 2.5665,3.06516 0.1987,4.92064 -1.2869,1.00819 -1.7987,1.62044 -2.0228,2.4197 -0.165,0.58841 -0.56,1.23776 -0.8777,1.44278 -0.5644,0.36451 -0.5351,0.68411 0.2224,2.42146 0.1416,0.32611 0.3957,0.82212 0.5633,1.10314 0.1655,0.28226 0.161,0.50609 -0.014,0.50029 -0.3855,-0.0125 0.4878,1.94606 1.864,4.18059 0.7704,1.25081 -2.2035,1.79288 -2.3728,2.32231 -0.1331,0.41654 -3.1242,9.84486 -3.1242,9.84486 l 1.8034,11.03552 -2.1118,8.9197 z m 48.342,7.92986 c -0.016,-0.20838 0.1221,-0.37501 0.3048,-0.36911 0.1829,0.006 0.1998,-0.19314 0.038,-0.4419 -0.3898,-0.59883 -3.9023,-4.00216 -4.8935,-4.7409 -0.8647,-0.64431 -1.0545,-0.80928 -1.3627,-1.18462 -0.1153,-0.14064 -0.3355,-0.17453 -0.4891,-0.0754 -0.2005,0.12969 0.2974,0.96744 1.7701,2.97768 2.528,3.45251 4.7373,5.28079 4.6329,3.83393 z m 17.338,-41.1067 c 0.024,-1.06707 -0.072,-1.32793 -0.5359,-1.47291 -0.3102,-0.0969 -0.719,-0.33437 -0.9082,-0.52784 -0.6999,-0.49306 -1.4941,-0.8584 -2.0928,-1.28355 -0.6726,-0.48005 -1.2524,-0.85375 -1.2885,-0.83053 0.059,0.78189 -0.5749,14.32752 3.2034,14.77526 2.1625,-2.25848 1.5817,-8.07819 1.6218,-10.66053 z m -21.8766,15.10196 c -0.1217,0.0797 -0.1422,0.26623 -0.045,0.41648 0.1838,0.77983 -0.5117,2.95732 0.222,3.00826 0.7268,-0.56686 1.3658,-0.23109 2.1116,-0.3602 2.2758,-0.41297 -2.2019,-3.08978 -2.2889,-3.06411 z m -5.7431,2.41547 c 0.1366,-1.6366 0.134,-3.51228 -0.01,-4.16841 -0.292,-1.37205 0.069,-3.89495 0.8301,-5.79616 l 0.5247,-1.31159 1.3149,-0.10151 c 1.5587,-0.12079 4.8766,0.89186 7.7567,2.36755 2.0299,1.03999 2.6572,1.17458 2.2267,0.4775 -0.1234,-0.18917 -0.6605,-1.24233 -1.2039,-2.33359 -0.8551,-1.7173 -1.1522,-2.09153 -2.2087,-2.78266 -1.5769,-1.03153 -2.0998,-2.22799 -2.0024,-4.58258 l 0.074,-1.80231 -2.0029,-0.47282 c -2.7576,-0.65073 -5.658,-1.77988 -9.2653,-3.60751 -1.6804,-0.85133 -3.5908,-1.74907 -4.2452,-1.99508 -0.6543,-0.24615 -1.5475,-0.58583 -1.9848,-0.75498 -0.4372,-0.16928 -2.5216,-1.26899 -4.6318,-2.44416 -5.9026,-3.28682 -5.919,-3.2914 -5.5989,-1.68347 0.2361,1.18453 0.3405,2.3421 0.2881,3.18935 -0.022,0.35711 0.1487,0.79759 0.38,0.97858 0.2334,0.18294 0.3619,0.71052 0.2874,1.18829 -0.073,0.4724 -0.02,1.03166 0.1167,1.24266 0.1369,0.21134 0.1298,0.56231 -0.017,0.78066 -0.1465,0.21819 -0.062,0.71071 0.1871,1.09423 0.3069,0.47232 0.319,0.79415 0.037,0.99714 -0.2625,0.18888 -0.1,0.24051 0.4402,0.1396 0.9939,-0.18619 1.3457,0.23974 2.1613,2.6138 1.3565,3.94888 1.3855,4.00331 3.0054,5.65441 0.8618,0.87841 2.2302,2.48909 3.041,3.57901 0.8095,1.09079 1.709,2.1274 1.9963,2.30545 0.3155,0.1956 0.4707,0.4485 0.3919,0.63948 -0.071,0.17355 0.046,0.45371 0.2609,0.62241 0.2157,0.1684 0.4726,0.8203 0.5723,1.4477 0.1,0.62763 0.5622,1.8756 1.0278,2.77365 0.4657,0.89791 0.9081,2.12094 0.9832,2.71771 0.089,0.70203 0.4813,1.55805 1.1129,2.42519 l 0.9763,1.3399 1.4625,-0.88062 1.4623,-0.88066 0.2482,-2.97553 z"
     id="path3962"
     sodipodi:nodetypes="cccccccscccsccccccccssscscccccccsscccccscccccccscccccccccsccccccscccscccccccsccscccccccccccccccccccccccccccccccccccccscsccccccccccccccccc"
     style="stroke-width:0.3103117" />
  <metadata
     id="metadata7">
    <rdf:RDF>
      <cc:Work>
        <dc:format>image/svg+xml</dc:format>
        <dc:type
           rdf:resource="http://purl.org/dc/dcmitype/StillImage" />
        <cc:license
           rdf:resource="http://creativecommons.org/licenses/publicdomain/" />
        <dc:publisher>
          <cc:Agent
             rdf:about="http://openclipart.org/">
            <dc:title>Openclipart</dc:title>
          </cc:Agent>
        </dc:publisher>
        <dc:title></dc:title>
        <dc:date>2012-01-14T06:28:58</dc:date>
        <dc:description>Différentes poistions en escalade</dc:description>
        <dc:source>http://openclipart.org/detail/167045/escalade-by-cyrille</dc:source>
        <dc:creator>
          <cc:Agent>
            <dc:title>cyrille</dc:title>
          </cc:Agent>
        </dc:creator>
        <dc:subject>
          <rdf:Bag>
            <rdf:li>climb</rdf:li>
            <rdf:li>clip art</rdf:li>
            <rdf:li>clipart</rdf:li>
            <rdf:li>escalade</rdf:li>
            <rdf:li>montagne</rdf:li>
            <rdf:li>mountain</rdf:li>
            <rdf:li>silhouette</rdf:li>
            <rdf:li>sport</rdf:li>
          </rdf:Bag>
        </dc:subject>
      </cc:Work>
      <cc:License
         rdf:about="http://creativecommons.org/licenses/publicdomain/">
        <cc:permits
           rdf:resource="http://creativecommons.org/ns#Reproduction" />
        <cc:permits
           rdf:resource="http://creativecommons.org/ns#Distribution" />
        <cc:permits
           rdf:resource="http://creativecommons.org/ns#DerivativeWorks" />
      </cc:License>
    </rdf:RDF>
  </metadata>
  <flowRoot
     xml:space="preserve"
     id="flowRoot826"
     style="font-style:normal;font-variant:normal;font-weight:normal;font-stretch:normal;font-size:40px;line-height:1.25;font-family:sans-serif;-inkscape-font-specification:'sans-serif, Normal';font-variant-ligatures:normal;font-variant-caps:normal;font-variant-numeric:normal;font-feature-settings:normal;text-align:center;letter-spacing:0px;word-spacing:0px;writing-mode:lr-tb;text-anchor:middle;fill:#000000;fill-opacity:1;stroke:none"><flowRegion
       id="flowRegion828"><rect
         id="rect830"
         width="422.45294"
         height="112.50106"
         x="89.541656"
         y="91.273712" /></flowRegion><flowPara
       id="flowPara832" /></flowRoot>  <g
     aria-label="FINLAND"
     style="font-style:normal;font-variant:normal;font-weight:bold;font-stretch:normal;font-size:192px;line-height:1.25;font-family:sans-serif;-inkscape-font-specification:'sans-serif, Bold';font-variant-ligatures:normal;font-variant-caps:normal;font-variant-numeric:normal;font-feature-settings:normal;text-align:center;letter-spacing:0px;word-spacing:0px;writing-mode:lr-tb;text-anchor:middle;fill:#000000;fill-opacity:1;stroke:none"
     id="text836">
    <path
       d="m 153.26593,144.16391 h 97.40625 v 27.28125 h -61.3125 v 26.0625 h 57.65625 v 27.28125 h -57.65625 v 59.34375 h -36.09375 z"
       style="font-style:normal;font-variant:normal;font-weight:bold;font-stretch:normal;font-size:192px;font-family:sans-serif;-inkscape-font-specification:'sans-serif, Bold';font-variant-ligatures:normal;font-variant-caps:normal;font-variant-numeric:normal;font-feature-settings:normal;text-align:center;writing-mode:lr-tb;text-anchor:middle"
       id="path842" />
    <path
       d="m 284.51593,144.16391 h 36.09375 v 139.96875 h -36.09375 z"
       style="font-style:normal;font-variant:normal;font-weight:bold;font-stretch:normal;font-size:192px;font-family:sans-serif;-inkscape-font-specification:'sans-serif, Bold';font-variant-ligatures:normal;font-variant-caps:normal;font-variant-numeric:normal;font-feature-settings:normal;text-align:center;writing-mode:lr-tb;text-anchor:middle"
       id="path844" />
    <path
       d="m 356.14093,144.16391 h 40.3125 l 50.90625,96 v -96 h 34.21875 v 139.96875 h -40.3125 l -50.90625,-96 v 96 h -34.21875 z"
       style="font-style:normal;font-variant:normal;font-weight:bold;font-stretch:normal;font-size:192px;font-family:sans-serif;-inkscape-font-specification:'sans-serif, Bold';font-variant-ligatures:normal;font-variant-caps:normal;font-variant-numeric:normal;font-feature-settings:normal;text-align:center;writing-mode:lr-tb;text-anchor:middle"
       id="path846" />
    <path
       d="m 517.01593,144.16391 h 36.09375 v 112.6875 h 63.375 v 27.28125 h -99.46875 z"
       style="font-style:normal;font-variant:normal;font-weight:bold;font-stretch:normal;font-size:192px;font-family:sans-serif;-inkscape-font-specification:'sans-serif, Bold';font-variant-ligatures:normal;font-variant-caps:normal;font-variant-numeric:normal;font-feature-settings:normal;text-align:center;writing-mode:lr-tb;text-anchor:middle"
       id="path848" />
    <path
       d="m 724.20343,258.63266 h -56.4375 l -8.90625,25.5 h -36.28125 l 51.84375,-139.96875 h 43.03125 l 51.84375,139.96875 h -36.28125 z m -47.4375,-25.96875 h 38.34375 l -19.125,-55.6875 z"
       style="font-style:normal;font-variant:normal;font-weight:bold;font-stretch:normal;font-size:192px;font-family:sans-serif;-inkscape-font-specification:'sans-serif, Bold';font-variant-ligatures:normal;font-variant-caps:normal;font-variant-numeric:normal;font-feature-settings:normal;text-align:center;writing-mode:lr-tb;text-anchor:middle"
       id="path850" />
    <path
       d="m 787.76593,144.16391 h 40.3125 l 50.90625,96 v -96 h 34.21875 v 139.96875 h -40.3125 l -50.90625,-96 v 96 h -34.21875 z"
       style="font-style:normal;font-variant:normal;font-weight:bold;font-stretch:normal;font-size:192px;font-family:sans-serif;-inkscape-font-specification:'sans-serif, Bold';font-variant-ligatures:normal;font-variant-caps:normal;font-variant-numeric:normal;font-feature-settings:normal;text-align:center;writing-mode:lr-tb;text-anchor:middle"
       id="path852" />
    <path
       d="m 984.73468,171.44516 v 85.40625 h 12.9375 c 14.75002,0 26.00002,-3.65625 33.75002,-10.96875 7.8125,-7.3125 11.7187,-17.9375 11.7187,-31.875 0,-13.875 -3.875,-24.4375 -11.625,-31.6875 -7.75,-7.25 -19.0312,-10.875 -33.84372,-10.875 z m -36.09375,-27.28125 h 38.0625 c 21.24997,0 37.06247,1.53125 47.43747,4.59375 10.4375,3 19.375,8.125 26.8125,15.375 6.5625,6.3125 11.4375,13.59375 14.625,21.84375 3.1875,8.25 4.7813,17.59375 4.7813,28.03125 0,10.5625 -17.0914,11.96421 -20.2789,20.27671 -6.9184,7.10203 -17.8202,17.5402 -24.3827,23.8527 -7.5,7.25 -9.8992,10.39731 -18.3902,17.19071 -7.6301,5.86992 -9.6045,8.80488 -30.60447,8.80488 h -38.0625 z"
       style="font-style:normal;font-variant:normal;font-weight:bold;font-stretch:normal;font-size:192px;font-family:sans-serif;-inkscape-font-specification:'sans-serif, Bold';font-variant-ligatures:normal;font-variant-caps:normal;font-variant-numeric:normal;font-feature-settings:normal;text-align:center;writing-mode:lr-tb;text-anchor:middle"
       id="path854"
       inkscape:connector-curvature="0"
       sodipodi:nodetypes="ccscsssccscccscccscc" />
  </g>
  <text
     xml:space="preserve"
     style="font-style:normal;font-variant:normal;font-weight:bold;font-stretch:normal;font-size:192px;line-height:1.25;font-family:Montserrat;-inkscape-font-specification:'Montserrat, Bold';font-variant-ligatures:normal;font-variant-caps:normal;font-variant-numeric:normal;font-feature-settings:normal;text-align:center;letter-spacing:0px;word-spacing:0px;writing-mode:lr-tb;text-anchor:middle;fill:#000000;fill-opacity:1;stroke:none"
     x="540.69385"
     y="138.34048"
     id="text876"><tspan
       sodipodi:role="line"
       id="tspan874"
       x="540.69385"
       y="138.34048">CLIMBING</tspan></text>
</svg>
