<?xml version="1.0" encoding="UTF-8" standalone="no"?>
<svg
   xmlns:dc="http://purl.org/dc/elements/1.1/"
   xmlns:cc="http://creativecommons.org/ns#"
   xmlns:rdf="http://www.w3.org/1999/02/22-rdf-syntax-ns#"
   xmlns:svg="http://www.w3.org/2000/svg"
   xmlns="http://www.w3.org/2000/svg"
   xmlns:sodipodi="http://sodipodi.sourceforge.net/DTD/sodipodi-0.dtd"
   xmlns:inkscape="http://www.inkscape.org/namespaces/inkscape"
   id="svg2"
   viewBox="0 0 746.49 766.28"
   version="1.1"
   sodipodi:docname="escalade.svg"
   inkscape:version="0.92.3 (2405546, 2018-03-11)">
  <defs
     id="defs12" />
  <sodipodi:namedview
     pagecolor="#ffffff"
     bordercolor="#666666"
     borderopacity="1"
     objecttolerance="10"
     gridtolerance="10"
     guidetolerance="10"
     inkscape:pageopacity="0"
     inkscape:pageshadow="2"
     inkscape:window-width="1920"
     inkscape:window-height="1017"
     id="namedview10"
     showgrid="false"
     inkscape:zoom="0.87110296"
     inkscape:cx="496.30196"
     inkscape:cy="558.0621"
     inkscape:window-x="-8"
     inkscape:window-y="-8"
     inkscape:window-maximized="1"
     inkscape:current-layer="svg2" />
  <path
     inkscape:connector-curvature="0"
     d="m 1222.0473,114.37525 c -0.4254,-1.2603 -0.9756,-3.9603 -1.2227,-6 -1.0955,-9.042696 -3.51,-24.840996 -4.0054,-26.208996 -0.5445,-1.5026 -1.5168,-9.2632 -3.3778,-26.961 -3.4865,-8.5982 -2.2378,-20.438 -3.6809,-26.039 -0.3595,-1.375 -0.5953,-2.7912 -0.524,-3.147 0.071,-0.35585 -0.5195,-5.7558 -1.313,-12 -3.034,-23.8760005 -3.8941,-26.52 -9.6609,-29.699 -1.6504,-0.90984 -6.2243,-3.5182 -10.164,-5.7963 -9.6938,-5.6051 -12.969,-3.8777 -9.3352,4.9242 3.9115,14.1659995 -6.863,7.0533995 -11.747,12.9979995 -1.6306,2.033 -2.4598,2.3808 -3.831,1.6073 -0.9625,-0.54296 -1.75,-1.5917 -1.75,-2.3305 0,-0.73883 -0.675,-1.6023 -1.5,-1.9189 -1.0684,-0.40997 -1.5,-2.0784 -1.5,-5.7980995 0,-4.6699 -0.1451,-5.024 -1.3716,-3.3468 -1.275,1.7437 -1.5152,1.5509 -3.4124,-2.738 -1.1225,-2.5376 -2.6019,-7.1206 -3.2876,-10.185 -1.1462,-5.122 -1.4701,-5.5708 -4.0195,-5.5708 -4.1351,0 -6.9459,-4.566 -7.5473,-12.26 l -0.4877,-6.2399 4.2771,-3.2748 c 2.3524,-1.8012 4.8695,-3.0475 5.5934,-2.7697 2.274,0.87262 3.7914,-4.0142 2.2374,-7.2055 -0.7365,-1.5125 -1.3782,-2.975 -1.4258,-3.25 -3.136,-6.6005 -5.6303,-22.548 -10.634,-28 -1.7168,-3.1101 -1.0292,-6.792204 -1.8188,-10.500004 -1.0437,-4.7463 1.2744,-14.572 5.1159,-21.684 1.9408,-3.5934 3.788,-8.0595 4.1048,-9.9245 0.3169,-1.8651 1.0327,-6.0911 1.5907,-9.3911 0.5581,-3.3 2.1554,-11.131 3.5498,-17.401 1.3943,-6.2708 2.5352,-12.253 2.5352,-13.293 0,-1.0405 0.7685,-4.4995 1.7078,-7.6866 1.609,-5.4595 1.995,-5.9223 6.6711,-7.998 2.7298,-1.2118 5.4766,-2.0063 6.1039,-1.7655 0.6273,0.24072 2.2378,-0.40568 3.5789,-1.4364 1.3411,-1.0308 2.9851,-1.8841 3.6534,-1.8964 0.6683,-0.0122 3.2724,-0.72072 5.7869,-1.5744 2.5145,-0.85369 5.7927,-1.7016 7.285,-1.8842 1.4922,-0.18259 5.5256,-0.65329 8.9631,-1.046 3.4375,-0.39272 6.25,-1.1198 6.25,-1.6158 0,-0.49599 -0.1188,-0.90181 -0.2641,-0.90181 -0.1453,0 -2.7264,-0.9 -5.7359,-2 -3.9272,-1.4354 -7.9624,-2 -14.295,-2 -7.7558,1.0443 -12.626,-4.2485 -8.6294,-8.5959 2.1098,-2.2592 3.0405,-2.5377 7.1743,-2.1468 2.6125,0.24703 4.75,0.0652 4.75,-0.40406 0,-0.46927 0.675,-0.85321 1.5,-0.85321 -2.0461,-4.1584 -15.068,-3.9386 -15.5,-11.622 0,-0.75766 0.4766,-1.3776 1.059,-1.3776 0.5825,0 0.7809,-0.45 0.441,-1 -0.4101,-0.66356 26.99,-1 81.441,-1 h 82.059 v 354 h -32.038 l 0.6302,-2.5112 c 0.3467,-1.3812 2.0427,-4.0027 3.7691,-5.8255 1.7263,-1.8229 3.837,-4.2743 4.6903,-5.4476 0.8534,-1.1733 2.601,-2.521496 3.8837,-2.995996 1.6971,-0.62782 2.4021,-1.752 2.589,-4.1286 0.2193,-2.7875 -0.3048,-3.6558 -3.5783,-5.9285 -2.1094,-1.4644 -4.3187,-3.7876 -4.9097,-5.1626 -3.0623,-4.8234 -8.4104,-6.1587 -12.031,-10.25 -0,-0.4125 -0.632,-0.75 -1.3982,-0.75 -2.1014,0 -2.802,-2.9478 -1.1041,-4.6457 2.1961,-2.1961 1.8543,-3.0328 -1.5139,-3.7065 -1.8964,-0.37929 -3.4366,-1.5361 -4.1605,-3.125 -3.5672,-4.7886 -14.593,-8.6991 -15.828,-14.46 0,-0.34437 -1.9125,-1.2046 -4.25,-1.9116 -3.0628,-0.92639 -5.0281,-2.4017 -7.0355,-5.2815 -1.532,-2.1978 -4.127,-4.5601 -5.7666,-5.2495 -1.6396,-0.68941 -2.7874,-1.4485 -2.5505,-1.6868 0.2369,-0.23833 -4.7662,-0.43332 -11.118,-0.43332 -12.185,0 -13.621,-0.46147 -16.12,-5.1802 -0.6351,-1.1991 -2.133,-2.3241 -3.3286,-2.5 -2.9238,-0.43018 -3.5613,-2.816 -0.9358,-3.5025 1.158,-0.30281 2.1054,-0.76978 2.1054,-1.0377 0,-0.40319 -4.2384,-4.9737 -13.869,-14.9560005 -2.5934,-2.6881 -2.225,-0.52863 1.418,8.3116005 5.7629,8.3619 8.3862,25.589 12.46,33.365 0.9023,1.6082 -1.3891,3.3907 -0.6731,5.4316 0.358,0.93309 0.8847,14.83 1.1704,30.882 0.2856,16.052 0.769,29.972996 1.0742,30.935996 0.3548,1.1194 0.03,1.75 -0.9013,1.75 -1.2082,0 -1.5948,-3.8727 -2.2711,-22.749996 -1.3323,-6.2749 1.454,-47.888 -2.1706,-50.177 -3.5874,-5.562 -3.2542,-18.733 -9.4022,-24.164 -0.5172,-0.3254 -0.8175,-1.0004 -0.6672,-1.5 0.42,-1.3965 -3.4506,-11.4080005 -4.4105,-11.4080005 -0.4663,0 -0.6179,1.4625 -0.3369,3.25 2.1529,19.8520005 5.9646,35.5410005 8.018,54.7950005 0.3152,3 0.7865,7.0295 1.0472,8.9545 0.2608,1.925 0.7264,5.525 1.0347,8 0.3083,2.475 1.4764,10.682 2.5959,18.237 1.9876,13.414996 2.2072,20.039996 0.4962,14.970996 z m 36.388,-94.879996 c 0,-0.36919 -0.684,-1.4271 -1.52,-2.3509 -0.9364,-1.0347 -1.6083,-4.003 -1.75,-7.7308005 -0.1265,-3.3281 -0.5093,-5.8797 -0.8507,-5.6701 -0.3413,0.20961 -2.2138,3.0556 -4.161,6.3243005 -3.5257,5.9186 -3.8394,8.1862 -0.8103,5.8572 1.1052,-0.84975 1.0381,-0.573 -0.2191,0.90496 -1.3972,1.6424 -1.5115,2.249 -0.5,2.6538 1.9471,0.77929 9.8111,0.78843 9.8111,0.0114 z m -15.69,-3.5787 c 1.3274,-1.2375 4.0823,-4.8656 6.1222,-8.0624005 3.1647,-4.9597 3.515,-6.0472 2.3881,-7.41259997 -1.0404,-1.2606 -1.0554,-1.68950003 -0.071,-2.02090003 1.8845,-0.63427 1.5018,-2.0393 -0.75,-2.754 -1.4883,-0.47236 -2,-1.513 -2,-4.0674 0,-1.8878995 0.375,-3.4325995 0.8333,-3.4325995 0.4583,0 0.8333,-0.675 0.8333,-1.5 0,-0.825 -0.375,-1.5 -0.8333,-1.5 -0.4583,0 -0.8333,0.41425 -0.8333,0.92054 0,0.5063 -1.4625,1.2316 -3.25,1.6119 -1.7875,0.38024 -6.0575,1.8785 -9.4889,3.3294995 -6.1682,2.6082 -6.239,2.6834 -6.2495,6.6381 -0.021,8.0456 6.252,20.1040005 9.7589,18.7580005 2.5304,0.0745 -0.2043,2.9473 3.5398,-0.50783 z m 7.7374,-41.265 c 1.8182,-0.57708 1.793,-0.72427 -0.4801,-2.797 -1.7765,-1.6199 -2.5696,-3.6805 -3.0555,-7.9378 -0.6671,-5.8456 0.3492,-7.5341 2.4077,-4 0.9658,1.6583 1.0209,1.6566 1.0497,-0.0322 0.017,-0.98023 1.0429,-2.2245 2.2804,-2.765 2.004,-0.87535 1.9028,-0.94659 -0.9265,-0.65176 l -3.1765,0.33102 1.9075,-3.739 c 1.0491,-2.0565 2.7036,-3.9065 3.6765,-4.1112 1.1339,-0.23859 -0.3849,-1.3519 -4.2311,-3.1014 -3.3,-1.501 -6.3539,-2.6057 -6.7865,-2.4548 -0.4326,0.1509 -1.1462,-0.30761 -1.5858,-1.0189 -0.6294,-1.0184 -1.2517,-0.91209 -2.9277,0.5 -1.659,1.3978 -2.3784,3.7288 -3.2615,10.569 -0.6232,4.8264 -0.8839,9.4245 -0.5794,10.218 0.3044,0.79345 0.1147,1.7139 -0.4217,2.0454 -0.5364,0.33151 -0.8543,2.3126 -0.7064,4.4023 0.3024,4.2711 2.2125,6.9515 3.172,4.451 0.3206,-0.83536 1.0049,-1.258 1.5208,-0.93914 0.5159,0.31883 1.2206,0.12235 1.5661,-0.43662 1.0905,-1.7645 2.6713,-1.0997 2.0488,0.86164 -0.4545,1.4322 -0,1.9911 1.8977,2.3547 1.3716,0.26219 2.6989,-0.0204 2.9497,-0.62795 0.2508,-0.60756 0.5437,-0.20466 0.6509,0.89534 0.1605,1.6463 0.2743,1.6988 0.6433,0.29699 0.2465,-0.93666 1.3119,-1.9771 2.3675,-2.3122 z m -27.048,-3.9848 c 0,-2.4101 -0.3811,-4.6175 -0.8468,-4.9053 -0.8194,-0.50641 -1.3413,-4.1558 -1.408,-9.8447 -0.018,-1.5125 -0.3689,-2.75 -0.7803,-2.75 -0.4115,0 -1.058,-1.235 -1.4369,-2.7444 -1.2367,-4.9273 -2.4317,-5.5144 -5.673,-2.7871 -1.6026,1.3485 -4.5882,2.7299 -6.6345,3.0696 -6.0541,1.0051 -6.4221,1.2461 -5.6613,3.707 0.8144,2.6344 5.7598,7.139 9.678,8.8157 1.5055,0.64423 2.5284,1.5093 2.2731,1.9225 -0.2554,0.41312 1.5504,2.5846 4.0127,4.8255 2.4623,2.2409 4.4769,4.5772 4.4769,5.1918 0,0.6146 0.45,0.83934 1,0.49942 0.55,-0.33992 1,-2.5899 1,-5 z m -31.999,-47.062 c 2.3736,-2.0504 28.058,-5.7738 34.757,-5.0387 4.0339,0.44266 4.2348,0.34254 3.8269,-1.9073 -0.4112,-2.2674 1.837,-5.4038 3.0232,-4.2176 0.3075,0.30754 1.4217,-0.30334 2.4758,-1.3575 1.2736,-1.2736 3.3425,-1.9269 6.1667,-1.9471 3.3732,-0.0241 3.8889,-0.2407 2.5,-1.0497 -0.9625,-0.5606 -1.75,-1.5965 -1.75,-2.302 0,-0.7348 -2.029,-1.6747 -4.75,-2.2003 -4.4309,-0.85595 -4.7454,-1.1192 -4.6814,-3.917604 0.104,-4.5454 1.371,-8.6553 2.4607,-7.9819 0.5338,0.32995 0.9706,0.14919 0.9706,-0.40169 0,-0.55088 0.9,-0.82827 2,-0.61643 1.1,0.21184 2,-0.0915 2,-0.67405 0,-0.58257 0.8008,-0.8498 1.7795,-0.59386 0.9788,0.25595 2.3465,-0.14157 3.0394,-0.88336 1.03,-1.1026 0.8878,-1.3487 -0.7795,-1.3487 -1.1217,0 -2.0394,-0.3884 -2.0394,-0.86311 0,-0.47471 -2.3625,-1.6106 -5.25,-2.5242 -7.0386,-2.227 -8.0843,-2.9841 -7.3438,-5.3172 0.6427,-2.0248 8.0731,-6.2955 10.953,-6.2955 2.2712,0 5.6405,-3.584 5.6405,-6 0,-1.1 -0.3591,-2 -0.7981,-2 -0.7238,0 -3.5343,-2.695 -9.0462,-8.6743 -1.1024,-1.1959 -2.5282,-3.1532 -3.1685,-4.3496 -0.8357,-1.5614 -1.8349,-2.0471 -3.5408,-1.721 -1.3071,0.24988 -2.5048,0.13259 -2.6615,-0.26064 -0.2972,-0.74571 -16.689,-5.9495 -20.435,-6.4876 -3.7696,-0.54135 -6.3496,-1.6113 -6.3496,-2.6332 0,-0.5454 -0.4293,-0.72631 -0.954,-0.40202 -1.34,0.82816 -6.1442,-0.50357 -5.5113,-1.5277 0.5341,-0.86418 -6.0474,-2.5371 -8.2734,-2.103 -0.6813,0.13287 -2.0956,-0.217 -3.1429,-0.7775 -1.676,-0.89698 -1.9868,-0.57244 -2.5941,2.7088 -0.3795,2.0503 -1.3642,5.1592 -2.1882,6.9086 -1.3992,2.9705 -1.3533,3.3768 0.6939,6.1459 3.0148,4.0777 3.8031,11.595 1.4846,14.157 -0.9631,1.0642 -1.9814,3.9782 -2.2629,6.4755 -0.2881,2.5561 -1.0317,4.5406 -1.7014,4.5406 -0.6543,0 -2.2054,1.1683 -3.447,2.5962 l -2.2574,2.5963 2.0471,5.1537 c 2.2541,5.6748 5.6054,21.518004 6.6956,31.654004 0.3846,3.575 1.1969,6.8232 1.8053,7.2183 1.5434,1.0023 8.7943,-0.21492 10.607,-1.7805 z m -26.01,-84.532004 c 4.2875,-1.8978 2.7071,-10.605 0.5153,-11.83 l -4,-2.1179 -0.3264,3.7656 c -2.2927,2.5407 3.8093,10.084 3.811,10.182 z"
     id="path3919" />
  <path
     inkscape:connector-curvature="0"
     d="m 1606.8006,645.22941 c 2.0676,-2.3176 3.7117,-5.21 3.7117,-6.5301 0,-1.3034 1.125,-5.0426 2.5,-8.3095 1.375,-3.2668 2.5,-6.6281 2.5,-7.4694 0,-0.8413 1.0932,-3.6673 2.4292,-6.2801 3.406,-6.6605 6.3203,-13.31 7.1225,-16.251 0.3751,-1.375 2.6544,-6.036 5.0651,-10.358 2.4108,-4.3218 4.3832,-8.2593 4.3832,-8.75 0,-0.4907 0.3955,-0.8922 0.8787,-0.8922 0.9437,0 2.1656,2.8397 4.3031,10 1.2854,4.3058 1.493,4.4877 4.8094,4.2152 1.9064,-0.1566 4.5477,-1.0566 5.8697,-2 1.322,-0.9433 3.2414,-2.2054 4.2654,-2.8044 1.024,-0.5991 1.5638,-1.3872 1.1996,-1.7514 -0.3642,-0.3642 5.3646,-6.7449 12.731,-14.179 14.259,-14.391 15.305,-15.746 16.969,-21.98 2.8721,-10.758 5.719,-12.835 19.191,-14.005 4.5561,-0.3956 10.085,-1.3237 12.286,-2.0624 2.201,-0.7387 5.6353,-1.1406 7.6318,-0.8929 2.4106,0.299 4.035,-0.038 4.8354,-1.0022 0.7758,-0.9348 2.2003,-1.2534 3.9969,-0.8941 1.5582,0.3116 3.092,0.072 3.4718,-0.5425 0.3742,-0.6054 1.385,-1.1007 2.2462,-1.1007 2.2385,0 13.316,-5.105 13.316,-6.1366 0,-0.4749 0.6813,-0.8634 1.514,-0.8634 1.2414,0 1.4207,1.0804 0.9956,6 -0.3193,3.695 -0.1326,6 0.486,6 0.5524,0 0.9728,1.0125 0.9341,2.25 -0.067,2.1469 -0.1096,2.1584 -0.9297,0.25 -0.9302,-2.1647 -0.8989,-2.3493 -1.4402,8.5 -0.1235,2.475 -0.5531,5.625 -0.9548,7 l -0.7304,2.5 2.0404,-2.5 2.0404,-2.5 0.022,4.25 c 0.023,4.4169 -0.657,5.1204 -2.9002,3 -1.0913,-1.0316 -1.1201,-0.8569 -0.1648,1 1.3326,2.5901 3.3118,2.8826 5.3967,0.7976 0.7988,-0.7988 1.6658,-1.2389 1.9268,-0.978 0.2609,0.2609 0.2572,-1.7855 -0.01,-4.5476 -0.3215,-3.3446 -0.1062,-5.022 0.6445,-5.022 0.7259,0 1.1272,-2.4236 1.1272,-6.8077 v -6.8077 h 5.022 c 3.0958,0 5.53,-0.5532 6.3466,-1.4423 1.3894,-1.5129 5.6314,-14.368 5.6314,-17.066 0,-2.2424 -2.8078,-4.3708 -8.0679,-6.1159 l -4.5679,-1.5154 -1.2924,4.3773 c -0.7108,2.4075 -1.6506,4.3773 -2.0885,4.3773 -0.4378,0 -0.5606,0.9 -0.273,2 0.2877,1.1 0.073,2 -0.477,2 -1.5383,0 -2.3246,-4.3226 -0.9456,-5.1989 0.834,-0.53 0.6662,-0.7752 -0.5376,-0.7858 -0.9625,-0.01 -1.75,-0.4653 -1.75,-1.0153 0,-0.55 0.5024,-1 1.1166,-1 0.6332,0 0.8846,-0.8871 0.5807,-2.0492 -0.3811,-1.4575 0.4198,-2.9189 2.7738,-5.061 1.9722,-1.7946 3.1393,-3.6943 2.888,-4.7008 -0.5082,-2.0355 4.9394,-8.1344 9.1197,-10.21 1.6384,-0.8135 8.5809,-5.1916 15.428,-9.7291 6.8469,-4.5375 12.798,-8.25 13.224,-8.25 0.4264,0 1.5393,1.61 2.473,3.5777 0.9338,1.9677 3.2325,4.7802 5.1084,6.25 2.1484,1.6833 4.8357,5.6331 7.261,10.672 3.0779,6.3951 4.7889,8.6606 8.529,11.293 3.5539,2.5014 4.5027,3.7035 3.9468,5 -1.2531,2.9224 -1.6992,7.0741 -1.0416,9.6941 0.8472,3.3755 2.7427,3.2149 2.3804,-0.2016 -0.2045,-1.9282 0.219,-2.8184 1.4622,-3.0733 2.1777,-0.4466 2.4078,3.3971 0.3781,6.3153 -0.9124,1.3118 -1.0907,2.7262 -0.5322,4.2225 1.0255,2.7479 1.5366,2.7715 5.6542,0.2609 2.5526,-1.5563 3.25,-2.6534 3.25,-5.112 0,-3.1537 -2.3955,-11.692 -4.3204,-15.399 -0.5712,-1.1 -2.9482,-5.8825 -5.2823,-10.628 -2.3341,-4.7452 -5.5449,-10.145 -7.1351,-12 -3.9913,-4.6552 -9.2602,-13.541 -9.272,-15.637 -0.014,-2.4682 -4.7448,-12.332 -7.1421,-14.891 -1.7604,-1.8791 -1.8527,-2.4564 -0.7193,-4.5 0.7151,-1.2894 1.3321,-2.5694 1.3711,-2.8444 0.2596,-1.8314 2.8188,-5 4.0384,-5 1.1621,0 1.3506,-0.9777 0.9047,-4.6928 -0.3099,-2.5811 -0.7641,-5.0176 -1.0094,-5.4146 -0.2454,-0.397 0.016,-0.8758 0.5808,-1.064 1.5979,-0.5326 -1.1949,-5.7202 -3.5144,-6.5282 -1.1,-0.3831 -2.3219,-0.6127 -2.7153,-0.51 -0.3934,0.1026 -1.9684,-0.3218 -3.5,-0.943 -1.5316,-0.6212 -4.2828,-1.0285 -6.1138,-0.905 -2.0248,0.1365 -4.0817,-0.4566 -5.25,-1.5139 -1.0779,-0.9755 -1.9209,-1.2404 -1.9209,-0.6038 0,0.6241 -1.7928,2.0493 -3.984,3.1672 -4.4487,2.2696 -5.6862,5.1153 -4.0713,9.3627 1.2374,3.2545 0.4869,5.0247 -4.8594,11.463 -3.5526,4.278 -3.6353,4.3135 -9.0852,3.8931 -11.287,-0.8706 -18.198,-5.5769 -36.032,-24.536 l -4.7782,-5.0798 4.6628,-6.7886 c 3.1292,-4.5558 5.4826,-6.9559 7.1552,-7.2971 3.2439,-0.6618 6.9924,-3.1689 6.9924,-4.6766 0,-0.6528 1.348,-2.2419 2.9955,-3.5313 3.0862,-2.4153 7.0045,-11.477 7.0045,-16.199 0,-1.3464 1.125,-3.7852 2.5,-5.4193 1.375,-1.6341 2.5,-3.3989 2.5,-3.9217 0,-0.5228 0.955,-1.8079 2.1223,-2.8556 1.1672,-1.0478 3.4602,-4.2675 5.0955,-7.155 1.6352,-2.8875 3.3087,-5.25 3.7188,-5.25 2.1221,0 8.9288,-17.127 15.102,-38 1.22,-4.125 4.2539,-11.325 6.7418,-16 2.488,-4.675 6.3254,-11.875 8.5276,-16 2.2022,-4.125 4.3838,-7.6499 4.8478,-7.8333 0.464,-0.1833 0.8437,-0.9016 0.8437,-1.5963 0,-1.6501 2.8619,-7.3669 4.058,-8.1062 0.5122,-0.3165 1.3996,-1.4505 1.9719,-2.5199 1.0283,-1.9215 -0.6159,-1.9443 -139.99,-1.9443 h -141.04 v 385 h 67.576 l 3.7117,-4.1604 z m 39.452,-70.83 c -2.5154,-2.9377 -1.267,-10.686 2.2564,-14.006 3.6791,-3.4664 24.386,-20.882 27.03,-22.734 2.3505,-1.6464 1.9761,-0.8772 -10.452,21.474 -8.8775,15.966 -14.402,20.444 -18.835,15.267 z m -4.3471,-5.5912 c 0.3339,-0.87 0.607,-1.77 0.607,-2 0,-0.23 0.4079,-0.4182 0.9064,-0.4182 0.4985,0 0.671,0.9 0.3834,2 -0.2877,1.1 -0.9687,2 -1.5134,2 -0.5447,0 -0.7172,-0.7118 -0.3834,-1.5818 z m 13.227,-16.668 c 0.406,-0.6875 1.7128,-2.6 2.9041,-4.25 1.1913,-1.65 4.5464,-7.725 7.4558,-13.5 6.8881,-13.672 6.6666,-13.423 9.7653,-10.986 1.3884,1.0921 3.0835,1.9856 3.767,1.9856 0.6835,0 1.7818,0.6495 2.4406,1.4434 0.9786,1.1791 0.223,2.4159 -4.1276,6.7558 -4.7954,4.7837 -21.872,19.7 -22.634,19.772 -0.1699,0.016 0.023,-0.5335 0.4292,-1.221 z m 101.2,-18.96 c 0.7176,-0.7176 1.1833,-0.7766 1.1833,-0.15 0,1.3348 -1.1826,2.5174 -1.85,1.85 -0.2841,-0.2842 0.016,-1.0492 0.6667,-1.7 z m 1.8936,-4.7833 c -0.2876,-1.1 -0.1151,-2 0.3834,-2 0.4985,0 0.9064,0.9 0.9064,2 0,1.1 -0.1725,2 -0.3834,2 -0.2108,0 -0.6187,-0.9 -0.9064,-2 z m 1.3753,-5 c 0.05,-2.2896 0.1274,-2.3317 0.9144,-0.5 0.4727,1.1 0.8842,2.9 0.9144,4 0.045,1.6507 -0.1143,1.738 -0.9144,0.5 -0.5331,-0.825 -0.9446,-2.625 -0.9144,-4 z m -57.071,-4.75 c 0.01,-0.4125 0.6134,-2.4682 1.3445,-4.5682 1.3606,-3.9075 14.038,-17.682 16.274,-17.682 1.0436,0 5.366,7.504 5.366,9.3157 0,0.3763 -1.26,0.6842 -2.8,0.6842 -3.4828,0 -5.2,1.6372 -5.2,4.9578 0,2.2264 -0.8743,2.9048 -6.75,5.237 -7.4346,2.951 -8.257,3.1562 -8.2349,2.0553 z m -21.222,-5.6277 c -2.039,-2.2673 -3.7266,-4.9353 -3.75,-5.929 -0.023,-0.9937 1.845,-5.4729 4.1521,-9.9538 3.0354,-5.8955 4.25,-9.5146 4.3948,-13.095 0.1353,-3.3455 0.7199,-5.2384 1.8053,-5.8458 0.8829,-0.4941 1.6052,-1.7062 1.6052,-2.6936 0,-0.9875 0.8831,-2.5945 1.9624,-3.5712 1.0793,-0.9768 2.4511,-3.2567 3.0484,-5.0666 0.5974,-1.8099 1.7392,-3.5413 2.5376,-3.8477 1.9045,-0.7309 1.902,5.5231 -0.011,27.099 -2.0471,23.087 -4.0309,28.902 -9.4275,27.637 -1.4353,-0.3364 -4.278,-2.4666 -6.317,-4.7338 z m 26.757,-10.872 c 1.9884,-6.2429 5.8738,-15.714 6.4506,-15.725 0.275,-0.01 1.5235,1.8758 2.7744,4.1792 l 2.2744,4.188 -5.7431,5.8037 c -3.1587,3.192 -6.0507,5.8037 -6.4266,5.8037 -0.3758,0 -0.074,-1.9125 0.6702,-4.25 z m 31.99,-21.68 c -0.3141,-0.5084 0.1897,-1.0709 1.1196,-1.25 1.5642,-0.3013 1.5572,-0.4593 -0.093,-2.1096 -0.9994,-0.9995 -2.5521,-1.5402 -3.5306,-1.2296 -1.1333,0.3597 -3.1154,-0.7167 -5.6446,-3.0653 -2.1439,-1.9908 -7.0611,-5.7717 -10.927,-8.4019 -3.866,-2.6302 -7.6336,-5.5106 -8.3724,-6.4008 -0.8634,-1.0403 -2.9072,-1.6185 -5.7208,-1.6185 -2.9567,0 -4.3776,-0.428 -4.3776,-1.3185 0,-3.7806 3.2972,-11.592 5.9765,-14.159 1.6629,-1.5932 3.0235,-3.6627 3.0235,-4.5988 0,-2.7749 3.274,-5.7868 6.6214,-6.0914 2.3385,-0.2128 4.2196,0.6016 7.5,3.247 2.4082,1.9421 5.8318,4.5427 7.608,5.7793 1.7762,1.2366 5.9175,5.5379 9.2028,9.5585 3.2854,4.0206 7.5505,8.0586 9.4781,8.9733 1.9276,0.9147 3.7697,2.0919 4.0937,2.6161 0.7979,1.291 -1.829,8.7779 -5.2233,14.887 -2.2202,3.9961 -3.3855,5.0837 -5.7807,5.3955 -1.65,0.2148 -3.3109,0.4625 -3.691,0.5505 -0.38,0.088 -0.948,-0.2559 -1.2622,-0.7643 z"
     id="path3949" />
  <g
     id="g5139"
     transform="translate(-704.85353,-34.439098)">
    <path
       style="stroke-width:0.9482559"
       sodipodi:nodetypes="ccccsccccccccssscscccccccsscccccscccccccscccccccccsccccccscccscscccccsccsccccccccccccccccccccccccccccccccccccccccccc"
       id="path3962"
       d="m 1268.0464,310.53915 v 0 c 1.0506,4.8664 0.2324,-2.05119 0,0 -0.444,3.92551 0.7951,13.30247 1.7154,12.97968 0.2961,-0.10377 9.7718,46.33711 11.6111,50.52433 2.1592,4.9162 12.5469,5.9642 14.3795,7.64861 2.3011,2.11541 -3.6734,-9.65172 0,0 3.4406,2.57328 15.6501,6.86697 38.295,23.02739 2.458,2.11701 5.5377,3.89787 6.844,3.95741 1.3063,0.0595 5.4969,1.71649 9.3125,3.68219 6.9593,3.58522 16.4434,6.07709 24.0756,6.32648 2.2482,0.0733 4.1686,-0.22665 4.2675,-0.66669 0.5666,-2.51824 -8.5958,-10.57658 -11.9485,-10.50906 -1.6802,0.034 -3.5938,-3.12232 -2.1976,-3.62504 1.3752,-0.49516 3.1752,-8.27082 2.3614,-10.20044 -0.6189,-1.46735 -0.2225,-2.01448 2.0534,-2.83399 1.7995,-0.64792 2.994,-1.7686 3.2996,-3.09555 0.2635,-1.14398 0.8218,-2.20338 1.2408,-2.35423 0.4187,-0.15078 2.0518,-1.50416 3.6288,-3.00745 9.1742,-6.71583 19.5658,-4.62855 25.8694,0.13377 5.5692,4.33624 7.1886,13.6126 3.1128,17.8317 -2.8649,2.96604 -2.2544,4.07429 4.234,7.68676 9.5435,5.31331 36.0761,28.62303 40.1521,35.2745 2.0435,3.33475 2.0276,3.41609 -2.1674,11.08742 -4.9992,9.14187 -11.1315,17.53489 -16.2788,22.281 -3.8394,3.53961 -4.0986,5.31822 -0.9066,6.2185 1.0167,0.28685 2.0539,1.00771 2.3045,1.60203 0.797,1.88977 11.4806,9.67325 14.4275,10.51105 3.4182,0.9719 2.6708,1.39969 -2.3923,1.36966 -3.7351,-0.0222 -3.766,2.6e-4 -2.883,2.0938 0.9248,4.18068 -4.6546,10.15649 -10.2578,10.63555 -5.7821,1.10075 -12.0918,-0.16564 -12.9438,-4.67307 -0.3065,-1.71 -0.8903,-2.68377 -1.481,-2.47103 -0.5361,0.19301 -0.8808,-0.0666 -0.7658,-0.57806 0.3695,-1.64317 -2.5209,-0.93466 -4.415,1.08209 -1.0097,1.07517 -1.487,1.84446 -1.0606,1.70956 0.4261,-0.13534 0.6405,0.33955 0.4757,1.05464 -0.5149,2.23865 0.3509,4.58749 1.2869,3.49153 0.5744,-0.67251 0.8459,-0.47799 0.8318,0.5961 -0.013,0.93911 0.4614,1.44848 1.1526,1.23912 0.6454,-0.19524 0.4477,0.24108 -0.4394,0.97021 -1.2765,1.04903 -2.1942,0.93431 -4.3994,-0.55033 -2.1887,-1.47354 -2.8576,-1.56036 -3.1176,-0.40478 -0.182,0.80919 -0.7511,1.67624 -1.2646,1.92665 -0.9314,1.80038 -5.0578,6.16181 -5.6479,6.67277 -7.251,5.69953 -19.1128,7.75468 -27.9976,7.23918 -9.0358,-1.67108 -19.7578,-3.55134 -27.1146,-4.50458 -2.4023,-0.41633 -2.5903,-0.29263 -2.3945,1.57413 4.1745,8.32607 7.8296,18.12089 12.6346,25.25761 1.6892,2.45388 2.1875,2.64849 4.0589,1.58524 1.1733,-0.66666 2.2686,-0.89131 2.4342,-0.49897 0.6431,1.52481 1.049,1.89697 2.2677,2.07807 0.8811,0.13099 1.0504,0.73304 0.5598,1.98948 -0.5629,1.44172 -0.9681,1.64984 -2.0285,1.04148 -0.8828,-0.50634 -0.8367,-0.13996 0.1378,1.09747 6.1823,7.85003 5.7629,9.43927 -3.5856,13.60377 -5.0806,2.26282 -7.283,3.74347 -8.7048,5.85175 -1.0468,1.55227 -2.8986,3.18088 -4.1152,3.61889 -2.1613,0.77826 -2.3405,1.66912 -1.3564,6.74376 0.1845,0.95173 0.5874,2.41621 0.8952,3.25437 0.308,0.83807 0.093,1.45443 -0.4779,1.36956 -1.2509,-0.1859 -0.078,5.54189 2.503,12.22781 1.4448,3.7424 -20.2821,-15.25335 -21.2921,-13.86495 -0.7947,1.09231 -1.5771,2.02399 -2.0204,3.58863 l -1.6784,5.92511 -3.347,6.50322 c -7.1762,-113.76265 -29.4406,-194.92553 -51.743,-294.32581 z m 72.3816,245.98082 c 0.1305,-0.5801 0.7227,-0.98266 1.3159,-0.89441 0.5933,0.088 0.8205,-0.45161 0.505,-1.19957 -0.7594,-1.80056 -9.3286,-12.54257 -11.9377,-14.96499 -2.2756,-2.11273 -2.7549,-2.64111 -3.4407,-3.79456 -0.2576,-0.43179 -0.948,-0.61236 -1.5359,-0.40069 -0.768,0.27655 0.1406,2.77708 3.2285,8.88503 5.3027,10.4891 10.9608,16.38778 11.865,12.36937 z m 92.1453,-106.13948 c 0.9949,-2.92364 0.9088,-3.67814 -0.4862,-4.2602 -0.9325,-0.38903 -2.066,-1.20337 -2.5189,-1.80967 -1.8667,-1.63181 -4.1516,-2.94996 -5.7457,-4.35506 -1.7882,-1.58545 -3.3642,-2.84198 -3.5024,-2.79222 -0.4799,2.17267 -14.2171,39.15504 -2.2343,41.87886 9.0234,-5.35339 12.1328,-21.5797 14.4868,-28.66182 z m -84.614,32.86647 c -0.4678,0.16849 -0.6948,0.67572 -0.5044,1.12715 -0.07,2.21617 -4.2212,7.92654 -1.8635,8.35664 2.8672,-1.27093 4.6696,-0.0809 7.2223,-0.15702 7.8053,-0.23585 -4.5477,-9.36285 -4.8544,-9.32677 z m -20.8793,4.36978 c 1.8557,-4.44442 3.4622,-9.60118 3.57,-11.45989 0.2256,-3.88683 3.5803,-10.67873 7.7072,-15.60379 l 2.8469,-3.39786 4.3918,0.23926 c 5.2065,0.28367 15.1958,4.37851 23.353,9.57279 5.7491,3.66103 7.6866,4.27869 6.8776,2.1926 -0.2231,-0.57537 -1.0925,-3.67604 -1.9317,-6.89034 -1.3207,-5.0582 -1.9711,-6.20436 -4.8345,-8.52139 -4.2742,-3.4585 -4.9555,-6.9537 -2.6095,-13.38729 l 1.7959,-4.92489 -6.1501,-2.09085 c -8.4666,-2.87835 -16.9888,-7.12819 -27.2238,-13.57713 -4.7682,-3.00406 -10.2484,-6.2267 -12.1786,-7.1616 -1.9302,-0.93492 -4.5615,-2.22168 -5.8473,-2.85956 -1.2859,-0.6378 -7.162,-4.48447 -13.0582,-8.54826 -16.4926,-11.36685 -11.8496,-16.74193 -12.1857,-12.19564 -0.2476,3.34949 0.6512,-1.41676 -0.2499,0.89145 -20.6538,31.09791 15.7923,58.33528 15.811,82.42539 -0.2143,1.7643 0.225,5.37787 0.9763,8.03 0.7513,2.65231 1.1469,6.18864 0.8791,7.85874 -0.3149,1.9646 0.234,4.47286 1.555,7.1058 l 2.0417,4.06924 5.5454,-1.84294 5.5453,-1.84276 3.3739,-8.08072 z"
       inkscape:connector-curvature="0" />
  </g>
  <metadata
     id="metadata7">
    <rdf:RDF>
      <cc:Work>
        <dc:format>image/svg+xml</dc:format>
        <dc:type
           rdf:resource="http://purl.org/dc/dcmitype/StillImage" />
        <cc:license
           rdf:resource="http://creativecommons.org/licenses/publicdomain/" />
        <dc:publisher>
          <cc:Agent
             rdf:about="http://openclipart.org/">
            <dc:title>Openclipart</dc:title>
          </cc:Agent>
        </dc:publisher>
        <dc:title>Escalade</dc:title>
        <dc:date>2012-01-14T06:28:58</dc:date>
        <dc:description>Différentes poistions en escalade</dc:description>
        <dc:source>http://openclipart.org/detail/167045/escalade-by-cyrille</dc:source>
        <dc:creator>
          <cc:Agent>
            <dc:title>cyrille</dc:title>
          </cc:Agent>
        </dc:creator>
        <dc:subject>
          <rdf:Bag>
            <rdf:li>climb</rdf:li>
            <rdf:li>clip art</rdf:li>
            <rdf:li>clipart</rdf:li>
            <rdf:li>escalade</rdf:li>
            <rdf:li>montagne</rdf:li>
            <rdf:li>mountain</rdf:li>
            <rdf:li>silhouette</rdf:li>
            <rdf:li>sport</rdf:li>
          </rdf:Bag>
        </dc:subject>
      </cc:Work>
      <cc:License
         rdf:about="http://creativecommons.org/licenses/publicdomain/">
        <cc:permits
           rdf:resource="http://creativecommons.org/ns#Reproduction" />
        <cc:permits
           rdf:resource="http://creativecommons.org/ns#Distribution" />
        <cc:permits
           rdf:resource="http://creativecommons.org/ns#DerivativeWorks" />
      </cc:License>
    </rdf:RDF>
  </metadata>
  <flowRoot
     xml:space="preserve"
     id="flowRoot826"
     style="font-style:normal;font-variant:normal;font-weight:normal;font-stretch:normal;font-size:40px;line-height:1.25;font-family:sans-serif;-inkscape-font-specification:'sans-serif, Normal';font-variant-ligatures:normal;font-variant-caps:normal;font-variant-numeric:normal;font-feature-settings:normal;text-align:center;letter-spacing:0px;word-spacing:0px;writing-mode:lr-tb;text-anchor:middle;fill:#000000;fill-opacity:1;stroke:none"><flowRegion
       id="flowRegion828"><rect
         id="rect830"
         width="422.45294"
         height="112.50106"
         x="89.541656"
         y="91.273712" /></flowRegion><flowPara
       id="flowPara832" /></flowRoot>  <text
     xml:space="preserve"
     style="font-style:normal;font-variant:normal;font-weight:bold;font-stretch:normal;font-size:192px;line-height:1.25;font-family:sans-serif;-inkscape-font-specification:'sans-serif, Bold';font-variant-ligatures:normal;font-variant-caps:normal;font-variant-numeric:normal;font-feature-settings:normal;text-align:center;letter-spacing:0px;word-spacing:0px;writing-mode:lr;text-anchor:middle;fill:#000000;fill-opacity:1;stroke:none;"
     x="73.470078"
     y="476.99161"
     id="text5119"><tspan
       sodipodi:role="line"
       id="tspan5117"
       x="73.470078"
       y="476.99161">CLIMBING</tspan></text>
  <text
     xml:space="preserve"
     style="font-style:normal;font-variant:normal;font-weight:bold;font-stretch:normal;font-size:192px;line-height:1.25;font-family:sans-serif;-inkscape-font-specification:'sans-serif, Bold';font-variant-ligatures:normal;font-variant-caps:normal;font-variant-numeric:normal;font-feature-settings:normal;text-align:center;letter-spacing:0px;word-spacing:0px;writing-mode:lr-tb;text-anchor:middle;fill:#000000;fill-opacity:1;stroke:none"
     x="161.20529"
     y="630.12732"
     id="text5123"><tspan
       sodipodi:role="line"
       id="tspan5121"
       x="161.20529"
       y="630.12732">FINLAND</tspan></text>
  <text
     xml:space="preserve"
     style="font-style:normal;font-variant:normal;font-weight:normal;font-stretch:normal;font-size:40px;line-height:1.25;font-family:sans-serif;-inkscape-font-specification:'sans-serif, Normal';font-variant-ligatures:normal;font-variant-caps:normal;font-variant-numeric:normal;font-feature-settings:normal;text-align:center;letter-spacing:0px;word-spacing:0px;writing-mode:lr-tb;text-anchor:middle;fill:#000000;fill-opacity:1;stroke:none"
     x="-50.510677"
     y="578.01294"
     id="text5127"><tspan
       sodipodi:role="line"
       id="tspan5125"
       x="-50.510677"
       y="613.40356" /></text>
  <path
     inkscape:connector-curvature="0"
     id="path3919-2"
     d="m 1655.1033,1427.9268 c -0.4254,-1.2603 -0.9756,-3.9603 -1.2227,-6 -1.0955,-9.0427 -3.51,-24.841 -4.0054,-26.209 -0.5445,-1.5026 -1.5168,-9.2632 -3.3778,-26.961 -3.4865,-8.5982 -2.2378,-20.438 -3.6809,-26.039 -0.3595,-1.375 -0.5953,-2.7912 -0.5239,-3.147 0.071,-0.3558 -0.5195,-5.7558 -1.313,-12 -3.034,-23.876 -3.8941,-26.52 -9.6609,-29.699 -1.6504,-0.9098 -6.2243,-3.5182 -10.164,-5.7963 -9.6938,-5.6051 -12.969,-3.8777 -9.3352,4.9242 3.9115,14.166 -6.863,7.0534 -11.747,12.998 -1.6306,2.033 -2.4598,2.3808 -3.831,1.6073 -0.9625,-0.543 -1.75,-1.5917 -1.75,-2.3305 0,-0.7388 -0.675,-1.6023 -1.5,-1.9189 -1.0684,-0.41 -1.5,-2.0784 -1.5,-5.7981 0,-4.6699 -0.1451,-5.024 -1.3716,-3.3468 -1.275,1.7437 -1.5152,1.5509 -3.4124,-2.738 -1.1225,-2.5376 -2.6019,-7.1206 -3.2876,-10.185 -1.1462,-5.122 -1.4701,-5.5708 -4.0195,-5.5708 -4.1351,0 -6.9459,-4.566 -7.5473,-12.26 l -0.4877,-6.2399 4.2771,-3.2748 c 2.3524,-1.8012 4.8695,-3.0475 5.5934,-2.7697 2.274,0.8726 3.7914,-4.0142 2.2374,-7.2055 -0.7366,-1.5125 -1.3782,-2.975 -1.4258,-3.25 -3.136,-6.6005 -5.6303,-22.548 -10.634,-28 -1.7168,-3.1101 -1.0292,-6.7922 -1.8188,-10.5 -1.0437,-4.7463 1.2744,-14.572 5.1159,-21.684 1.9408,-3.5934 3.788,-8.0595 4.1048,-9.9245 0.3168,-1.8651 1.0327,-6.0911 1.5907,-9.3911 0.558,-3.3 2.1554,-11.131 3.5498,-17.401 1.3943,-6.2708 2.5352,-12.253 2.5352,-13.293 0,-1.0405 0.7685,-4.4995 1.7078,-7.6866 1.609,-5.4595 1.995,-5.9223 6.6711,-7.998 2.7298,-1.2118 5.4766,-2.0063 6.1039,-1.7655 0.6273,0.2407 2.2378,-0.4057 3.5789,-1.4364 1.3411,-1.0308 2.9851,-1.8841 3.6534,-1.8964 0.6682,-0.012 3.2724,-0.7207 5.7869,-1.5744 2.5145,-0.8537 5.7927,-1.7016 7.285,-1.8842 1.4922,-0.1826 5.5256,-0.6533 8.9631,-1.046 3.4375,-0.3927 6.25,-1.1198 6.25,-1.6158 0,-0.496 -0.1189,-0.9018 -0.2642,-0.9018 -0.1452,0 -2.7264,-0.9 -5.7359,-2 -3.9272,-1.4354 -7.9624,-2 -14.295,-2 -7.7558,1.0443 -12.626,-4.2485 -8.6294,-8.5959 2.1098,-2.2592 3.0405,-2.5377 7.1743,-2.1468 2.6125,0.247 4.75,0.065 4.75,-0.4041 0,-0.4692 0.675,-0.8532 1.5,-0.8532 -2.0461,-4.1584 -15.068,-3.9386 -15.5,-11.622 0,-0.7576 0.4766,-1.3776 1.059,-1.3776 0.5825,0 0.7809,-0.45 0.441,-1 -0.4101,-0.6635 26.99,-1 81.441,-1 h 82.059 v 354 h -32.038 l 0.6303,-2.5112 c 0.3466,-1.3812 2.0427,-4.0027 3.7691,-5.8255 1.7263,-1.8229 3.837,-4.2743 4.6903,-5.4476 0.8533,-1.1733 2.601,-2.5215 3.8837,-2.996 1.6971,-0.6278 2.4021,-1.752 2.589,-4.1286 0.2193,-2.7875 -0.3048,-3.6558 -3.5783,-5.9285 -2.1094,-1.4644 -4.3187,-3.7876 -4.9097,-5.1626 -3.0623,-4.8234 -8.4104,-6.1587 -12.031,-10.25 -0,-0.4125 -0.632,-0.75 -1.3982,-0.75 -2.1014,0 -2.802,-2.9478 -1.1041,-4.6457 2.1961,-2.1961 1.8543,-3.0328 -1.5139,-3.7065 -1.8964,-0.3793 -3.4366,-1.5361 -4.1605,-3.125 -3.5672,-4.7886 -14.593,-8.6991 -15.828,-14.46 0,-0.3443 -1.9125,-1.2046 -4.25,-1.9116 -3.0628,-0.9264 -5.0281,-2.4017 -7.0355,-5.2815 -1.532,-2.1978 -4.127,-4.5601 -5.7666,-5.2495 -1.6396,-0.6894 -2.7874,-1.4485 -2.5505,-1.6868 0.2369,-0.2383 -4.7662,-0.4333 -11.118,-0.4333 -12.185,0 -13.621,-0.4615 -16.12,-5.1802 -0.6351,-1.1991 -2.133,-2.3241 -3.3286,-2.5 -2.9238,-0.4302 -3.5613,-2.816 -0.9359,-3.5025 1.158,-0.3028 2.1054,-0.7698 2.1054,-1.0377 0,-0.4032 -4.2384,-4.9737 -13.869,-14.956 -2.5934,-2.6881 -2.225,-0.5286 1.418,8.3116 5.7629,8.3619 8.3862,25.589 12.46,33.365 0.9023,1.6082 -1.3891,3.3907 -0.6731,5.4316 0.3581,0.9331 0.8848,14.83 1.1704,30.882 0.2857,16.052 0.7691,29.973 1.0742,30.936 0.3549,1.1194 0.03,1.75 -0.9013,1.75 -1.2082,0 -1.5948,-3.8727 -2.2711,-22.75 -1.3323,-6.2749 1.454,-47.888 -2.1706,-50.177 -3.5874,-5.562 -3.2542,-18.733 -9.4022,-24.164 -0.5172,-0.3254 -0.8174,-1.0004 -0.6672,-1.5 0.42,-1.3965 -3.4506,-11.408 -4.4105,-11.408 -0.4662,0 -0.6178,1.4625 -0.3368,3.25 2.1529,19.852 5.9646,35.541 8.018,54.795 0.3152,3 0.7864,7.0295 1.0472,8.9545 0.2608,1.925 0.7264,5.525 1.0347,8 0.3083,2.475 1.4764,10.682 2.5959,18.237 1.9876,13.415 2.2072,20.04 0.4962,14.971 z m 36.388,-94.88 c 0,-0.3692 -0.684,-1.4271 -1.52,-2.3509 -0.9364,-1.0347 -1.6083,-4.003 -1.75,-7.7308 -0.1265,-3.3281 -0.5093,-5.8797 -0.8506,-5.6701 -0.3414,0.2096 -2.2138,3.0556 -4.161,6.3243 -3.5257,5.9186 -3.8394,8.1862 -0.8104,5.8572 1.1052,-0.8497 1.0381,-0.573 -0.2191,0.905 -1.3972,1.6424 -1.5115,2.249 -0.5,2.6538 1.9471,0.7793 9.8111,0.7884 9.8111,0.011 z m -15.69,-3.5787 c 1.3274,-1.2375 4.0823,-4.8656 6.1222,-8.0624 3.1647,-4.9597 3.515,-6.0472 2.3881,-7.4126 -1.0404,-1.2606 -1.0554,-1.6895 -0.071,-2.0209 1.8845,-0.6343 1.5018,-2.0393 -0.75,-2.754 -1.4883,-0.4724 -2,-1.513 -2,-4.0674 0,-1.8879 0.375,-3.4326 0.8333,-3.4326 0.4584,0 0.8334,-0.675 0.8334,-1.5 0,-0.825 -0.375,-1.5 -0.8334,-1.5 -0.4582,0 -0.8332,0.4143 -0.8332,0.9205 0,0.5063 -1.4625,1.2316 -3.25,1.6119 -1.7875,0.3803 -6.0575,1.8785 -9.4889,3.3295 -6.1682,2.6082 -6.239,2.6834 -6.2495,6.6381 -0.021,8.0456 6.252,20.104 9.7589,18.758 2.5304,0.074 -0.2044,2.9473 3.5398,-0.5078 z m 7.7374,-41.265 c 1.8182,-0.5771 1.793,-0.7243 -0.4801,-2.797 -1.7765,-1.6199 -2.5696,-3.6805 -3.0555,-7.9378 -0.667,-5.8456 0.3493,-7.5341 2.4077,-4 0.9659,1.6583 1.0209,1.6566 1.0497,-0.032 0.017,-0.9802 1.0429,-2.2245 2.2804,-2.765 2.004,-0.8753 1.9028,-0.9466 -0.9265,-0.6518 l -3.1765,0.3311 1.9076,-3.739 c 1.049,-2.0565 2.7035,-3.9065 3.6765,-4.1112 1.1339,-0.2386 -0.3849,-1.3519 -4.2311,-3.1014 -3.3,-1.501 -6.3539,-2.6057 -6.7865,-2.4548 -0.4326,0.1509 -1.1463,-0.3076 -1.5858,-1.0189 -0.6294,-1.0184 -1.2518,-0.9121 -2.9277,0.5 -1.659,1.3978 -2.3784,3.7288 -3.2615,10.569 -0.6232,4.8264 -0.884,9.4245 -0.5795,10.218 0.3045,0.7934 0.1147,1.7139 -0.4217,2.0454 -0.5364,0.3315 -0.8542,2.3126 -0.7063,4.4023 0.3023,4.2711 2.2125,6.9515 3.172,4.451 0.3205,-0.8354 1.0049,-1.258 1.5208,-0.9392 0.5159,0.3189 1.2206,0.1224 1.5661,-0.4366 1.0905,-1.7645 2.6713,-1.0997 2.0488,0.8616 -0.4546,1.4322 -0,1.9911 1.8977,2.3547 1.3716,0.2622 2.6989,-0.02 2.9497,-0.6279 0.2507,-0.6076 0.5436,-0.2047 0.6509,0.8953 0.1604,1.6463 0.2742,1.6988 0.6432,0.297 0.2465,-0.9366 1.3119,-1.9771 2.3675,-2.3122 z m -27.048,-3.9848 c 0,-2.4101 -0.3811,-4.6175 -0.8468,-4.9053 -0.8194,-0.5064 -1.3413,-4.1558 -1.408,-9.8447 -0.018,-1.5125 -0.3689,-2.75 -0.7803,-2.75 -0.4114,0 -1.058,-1.235 -1.4369,-2.7444 -1.2367,-4.9273 -2.4317,-5.5144 -5.673,-2.7871 -1.6026,1.3485 -4.5882,2.7299 -6.6345,3.0696 -6.0541,1.0051 -6.4221,1.2461 -5.6613,3.707 0.8145,2.6344 5.7598,7.139 9.678,8.8157 1.5055,0.6442 2.5284,1.5093 2.2731,1.9225 -0.2553,0.4131 1.5504,2.5846 4.0127,4.8255 2.4623,2.2409 4.4769,4.5772 4.4769,5.1918 0,0.6146 0.45,0.8393 1,0.4994 0.55,-0.3399 1,-2.5899 1,-5 z m -31.999,-47.062 c 2.3736,-2.0504 28.058,-5.7738 34.757,-5.0387 4.0339,0.4427 4.2348,0.3425 3.8269,-1.9073 -0.4112,-2.2674 1.837,-5.4038 3.0232,-4.2176 0.3075,0.3075 1.4217,-0.3033 2.4758,-1.3575 1.2736,-1.2736 3.3425,-1.9269 6.1667,-1.9471 3.3732,-0.024 3.8889,-0.2407 2.5,-1.0497 -0.9625,-0.5606 -1.75,-1.5965 -1.75,-2.302 0,-0.7348 -2.029,-1.6747 -4.75,-2.2003 -4.4309,-0.8559 -4.7454,-1.1192 -4.6814,-3.9176 0.104,-4.5454 1.371,-8.6553 2.4607,-7.9819 0.5339,0.33 0.9707,0.1492 0.9707,-0.4017 0,-0.5509 0.9,-0.8283 2,-0.6164 1.1,0.2118 2,-0.091 2,-0.6741 0,-0.5825 0.8008,-0.8498 1.7795,-0.5938 0.9787,0.2559 2.3465,-0.1416 3.0394,-0.8834 1.03,-1.1026 0.8877,-1.3487 -0.7795,-1.3487 -1.1217,0 -2.0394,-0.3884 -2.0394,-0.8631 0,-0.4747 -2.3625,-1.6106 -5.25,-2.5242 -7.0386,-2.227 -8.0843,-2.9841 -7.3438,-5.3172 0.6426,-2.0248 8.0731,-6.2955 10.953,-6.2955 2.2712,0 5.6405,-3.584 5.6405,-6 0,-1.1 -0.3592,-2 -0.7982,-2 -0.7237,0 -3.5343,-2.695 -9.0462,-8.6743 -1.1024,-1.1959 -2.5282,-3.1532 -3.1685,-4.3496 -0.8356,-1.5614 -1.8349,-2.0471 -3.5408,-1.721 -1.3071,0.2499 -2.5048,0.1326 -2.6615,-0.2606 -0.2971,-0.7457 -16.689,-5.9495 -20.435,-6.4876 -3.7696,-0.5414 -6.3496,-1.6113 -6.3496,-2.6332 0,-0.5454 -0.4293,-0.7263 -0.954,-0.4021 -1.34,0.8282 -6.1442,-0.5035 -5.5113,-1.5277 0.5341,-0.8641 -6.0474,-2.5371 -8.2734,-2.103 -0.6813,0.1329 -2.0956,-0.217 -3.1429,-0.7775 -1.676,-0.8969 -1.9868,-0.5724 -2.5941,2.7088 -0.3795,2.0503 -1.3642,5.1592 -2.1882,6.9086 -1.3992,2.9705 -1.3533,3.3768 0.6939,6.1459 3.0148,4.0777 3.8031,11.595 1.4846,14.157 -0.9631,1.0642 -1.9814,3.9782 -2.2629,6.4755 -0.2881,2.5561 -1.0317,4.5406 -1.7014,4.5406 -0.6542,0 -2.2054,1.1683 -3.447,2.5962 l -2.2574,2.5963 2.0471,5.1537 c 2.2541,5.6748 5.6054,21.518 6.6956,31.654 0.3846,3.575 1.1969,6.8232 1.8053,7.2183 1.5434,1.0023 8.7943,-0.2149 10.607,-1.7805 z m -26.01,-84.532 c 4.2875,-1.8978 2.7071,-10.605 0.5153,-11.83 l -4,-2.1179 -0.3263,3.7656 c -2.2927,2.5407 3.8093,10.084 3.811,10.182 z" />
  <path
     inkscape:connector-curvature="0"
     id="path3936"
     d="m 1020.5833,1124.6268 c -3.4998,-2.6157 -2.4646,-4.7404 4.4508,-9.135 2.6601,-1.6904 7.2493,-7.8777 10.198,-13.749 2.9489,-5.8717 9.6683,-18.808 14.932,-28.748 5.2636,-9.9395 9.5702,-19.354 9.5702,-20.921 0,-1.5672 3.3965,-9.0023 7.5477,-16.522 4.1512,-7.5202 7.2544,-13.863 6.896,-14.095 -10.604,-6.8635 -14.421,-9.6885 -14.431,-10.681 -0.01,-0.6697 -3.3498,-1.7814 -7.4288,-2.4705 -5.2168,-0.8814 -8.6468,-0.4466 -11.566,1.466 -2.2823,1.4954 -11.012,5.0426 -19.399,7.8827 -16.396,5.5518 -20.833,5.0206 -21.971,-2.6303 -0.3232,-2.1724 -1.4064,-3.9498 -2.4072,-3.9498 -1.0007,0 -1.3435,0.7704 -0.7615,1.7119 0.5818,0.9415 0.2169,2.2316 -0.811,2.8669 -1.0279,0.6353 -1.8689,0.3636 -1.8689,-0.6038 0,-0.9674 -2.6894,-1.6368 -5.9765,-1.4877 -5.3098,0.2409 -5.9354,-0.2417 -5.6084,-4.3262 0.2025,-2.5285 -0.072,-7.6715 -0.6105,-11.429 l -0.9786,-6.8315 -12.262,9.1982 c -6.7441,5.059 -18.464,13.926 -26.045,19.704 -12.856,9.7995 -44.517,29.738 -47.439,29.876 -3.8788,0.1824 -9.2808,7.1089 -8.3425,10.697 0.7449,2.8485 -0.6975,5.528 -5.3326,9.9055 -11.508,10.86 -16.378,14.27 -32.439,22.74 l -15.88,8.38 -0.4698,-169.63 c -0.2582,-93.29 -0.1857,-169.91 0.1611,-170.25 0.3467,-0.3497 95.226,-0.423 210.85,-0.1659 l 210.21,0.4675 -7.1718,6.8448 c -20.03,19.112 -28.19,26.504 -32.01,29.014 -7.5669,4.9611 -25.642,24.455 -32.739,35.308 -4.165,6.3698 -15.689,14.192 -23.088,15.672 -3.85,0.77 -9.4049,5.014 -16.733,12.784 -6.0334,6.3973 -12.08,11.631 -13.438,11.631 -1.9464,0 -1.863,0.8638 0.3946,4.087 1.5744,2.2479 2.8627,6.0128 2.8627,8.3665 0,2.3537 1.4069,6.9278 3.1265,10.165 2.38,4.4801 3.3052,12.032 3.875,31.63 0.4117,14.16 1.5872,26.778 2.6122,28.04 1.025,1.2621 3.7534,8.9914 6.063,17.176 4.3225,15.318 3.8692,24.434 -1.376,27.675 -1.8452,1.1404 -1.852,1.8968 -0.034,3.7152 3.1261,3.1261 2.8657,7.9697 -0.5824,10.831 -2.3813,1.9763 -4.2548,1.7035 -11.083,-1.6138 -4.5193,-2.1956 -8.8899,-3.9921 -9.7124,-3.9921 -0.8225,0 -2.6155,3.394 -3.9845,7.5422 -2.2208,6.729 -7.4662,13.505 -14.886,19.229 -7.8443,6.052 -24.767,27.614 -26.633,33.935 -2.1576,7.3072 -15.67,26.02 -25.08,34.732 -2.7814,2.5751 -5.057,6.5665 -5.057,8.8698 0,2.9619 -1.0766,4.1878 -3.6778,4.1878 -2.0698,0 -3.6778,1.226 -3.6778,2.8039 0,5.4584 -14.983,8.4114 -20.762,4.0921 z m -9.58,-128.22 c 1.0114,-0.7549 5.7522,-2.8359 10.535,-4.6245 4.7829,-1.7885 11.357,-5.2149 14.609,-7.6141 3.252,-2.3992 7.3698,-4.3622 9.1507,-4.3622 3.8255,0 27.154,10.802 30.659,14.197 7.405,7.1718 14.681,-3.2926 13.387,-19.254 -0.2002,-2.4699 -4.9945,-3.2034 -6.0096,-0.9195 -0.3371,0.7586 -4.4102,3.1655 -9.0513,5.3488 -12.492,5.8763 -13.629,4.3743 -13.629,-18.002 0,-18.971 -1.4897,-22.939 -6.9578,-18.534 -1.2302,0.9912 -9.6845,5.9203 -18.787,10.954 -9.1027,5.0334 -19.247,11.674 -22.543,14.756 -3.2962,3.0823 -10.537,8.1686 -16.091,11.303 -11.126,6.2794 -12.321,9.5001 -6.012,16.215 3.4787,3.7029 5.1859,4.1676 11.493,3.1287 4.0743,-0.671 8.2352,-1.8378 9.2466,-2.5927 z m 63.443,-31.586 c 0,-2.177 5.6423,-7.2321 14.178,-12.702 4.8138,-3.0851 6.6267,-3.3954 9.8283,-1.6819 3.5968,1.9249 3.8134,1.741 2.5845,-2.1944 -0.7377,-2.3625 -2.1633,-4.8235 -3.168,-5.469 -1.0047,-0.6455 -1.301,-2.0242 -0.6584,-3.0638 0.6425,-1.0396 0.3112,-4.1442 -0.7362,-6.899 -2.3168,-6.0938 1.1612,-10.879 9.0543,-12.458 7.835,-1.567 12.522,0.4063 14.963,6.2996 3.1308,7.5585 4.8549,6.6684 7.0676,-3.6488 2.9109,-13.573 -1.1177,-35.144 -6.5635,-35.144 -2.052,0 -2.4143,-1.3362 -1.4961,-5.5168 0.6665,-3.0342 0.5602,-5.5168 -0.2361,-5.5168 -2.0868,0 -15.395,13.288 -15.395,15.372 0,1.7291 -8.0574,10.559 -27.317,29.937 l -9.8476,9.908 1.3208,16.985 c 0.7265,9.342 1.6981,17.62 2.1593,18.395 1.0805,1.8158 4.2622,-0.1267 4.2622,-2.6021 z" />
  <path
     inkscape:connector-curvature="0"
     id="path3949-0"
     d="m 1698.7533,1835.3968 c -2.0676,-2.3176 -3.7117,-5.21 -3.7117,-6.5301 0,-1.3034 -1.125,-5.0426 -2.5,-8.3095 -1.375,-3.2668 -2.5,-6.6281 -2.5,-7.4694 0,-0.8413 -1.0932,-3.6673 -2.4292,-6.2801 -3.406,-6.6605 -6.3203,-13.31 -7.1225,-16.251 -0.3751,-1.375 -2.6544,-6.036 -5.0651,-10.358 -2.4108,-4.3218 -4.3832,-8.2593 -4.3832,-8.75 0,-0.4907 -0.3954,-0.8921 -0.8787,-0.8921 -0.9436,0 -2.1656,2.8397 -4.3031,10 -1.2854,4.3058 -1.493,4.4877 -4.8094,4.2152 -1.9064,-0.1567 -4.5477,-1.0566 -5.8697,-2 -1.322,-0.9434 -3.2414,-2.2054 -4.2654,-2.8044 -1.024,-0.5991 -1.5638,-1.3872 -1.1996,-1.7514 0.3642,-0.3642 -5.3646,-6.7449 -12.731,-14.179 -14.259,-14.391 -15.305,-15.746 -16.969,-21.98 -2.8721,-10.758 -5.719,-12.835 -19.191,-14.005 -4.5561,-0.3957 -10.085,-1.3237 -12.286,-2.0624 -2.201,-0.7388 -5.6353,-1.1406 -7.6318,-0.893 -2.4106,0.299 -4.035,-0.038 -4.8354,-1.0022 -0.7758,-0.9347 -2.2003,-1.2534 -3.9969,-0.8941 -1.5582,0.3117 -3.092,0.072 -3.4718,-0.5424 -0.3741,-0.6054 -1.385,-1.1007 -2.2462,-1.1007 -2.2385,0 -13.316,-5.105 -13.316,-6.1366 0,-0.4749 -0.6813,-0.8635 -1.514,-0.8635 -1.2414,0 -1.4207,1.0804 -0.9956,6 0.3193,3.695 0.1326,6 -0.4859,6 -0.5525,0 -0.9728,1.0125 -0.9342,2.25 0.067,2.1469 0.1097,2.1584 0.9297,0.25 0.9303,-2.1647 0.899,-2.3493 1.4402,8.5 0.1235,2.475 0.5532,5.625 0.9549,7 l 0.7304,2.5 -2.0404,-2.5 -2.0404,-2.5 -0.022,4.25 c -0.023,4.4169 0.6569,5.1204 2.9002,3 1.0913,-1.0316 1.1201,-0.8568 0.1648,1 -1.3326,2.5901 -3.3118,2.8826 -5.3967,0.7976 -0.7988,-0.7988 -1.6658,-1.2389 -1.9268,-0.978 -0.2609,0.2609 -0.2572,-1.7855 0.01,-4.5476 0.3215,-3.3446 0.1062,-5.022 -0.6446,-5.022 -0.7259,0 -1.1272,-2.4236 -1.1272,-6.8077 v -6.8077 h -5.022 c -3.0958,0 -5.53,-0.5532 -6.3466,-1.4423 -1.3894,-1.5129 -5.6314,-14.368 -5.6314,-17.066 0,-2.2424 2.8078,-4.3708 8.0679,-6.1159 l 4.5679,-1.5154 1.2924,4.3773 c 0.7109,2.4075 1.6506,4.3773 2.0885,4.3773 0.4378,0 0.5607,0.9 0.273,2 -0.2876,1.1 -0.073,2 0.477,2 1.5383,0 2.3246,-4.3226 0.9457,-5.1989 -0.834,-0.53 -0.6662,-0.7752 0.5376,-0.7857 0.9625,-0.01 1.75,-0.4654 1.75,-1.0153 0,-0.55 -0.5025,-1 -1.1166,-1 -0.6333,0 -0.8847,-0.8872 -0.5808,-2.0492 0.3812,-1.4575 -0.4198,-2.9189 -2.7738,-5.061 -1.9722,-1.7946 -3.1393,-3.6943 -2.888,-4.7008 0.5083,-2.0355 -4.9394,-8.1344 -9.1197,-10.21 -1.6384,-0.8135 -8.5809,-5.1916 -15.428,-9.7291 -6.8469,-4.5375 -12.798,-8.25 -13.224,-8.25 -0.4264,0 -1.5393,1.61 -2.473,3.5777 -0.9337,1.9677 -3.2325,4.7802 -5.1084,6.25 -2.1484,1.6833 -4.8357,5.6331 -7.261,10.672 -3.0779,6.3951 -4.7889,8.6606 -8.529,11.293 -3.5539,2.5014 -4.5027,3.7035 -3.9468,5 1.2531,2.9224 1.6992,7.0741 1.0416,9.6941 -0.8472,3.3755 -2.7427,3.2149 -2.3804,-0.2017 0.2045,-1.9282 -0.219,-2.8184 -1.4622,-3.0733 -2.1777,-0.4466 -2.4078,3.3971 -0.378,6.3153 0.9124,1.3118 1.0907,2.7262 0.5322,4.2225 -1.0255,2.7479 -1.5366,2.7715 -5.6542,0.261 -2.5526,-1.5563 -3.25,-2.6534 -3.25,-5.112 0,-3.1537 2.3955,-11.692 4.3204,-15.399 0.5712,-1.1 2.9482,-5.8825 5.2823,-10.628 2.3341,-4.7452 5.5449,-10.145 7.1351,-12 3.9913,-4.6552 9.2602,-13.541 9.272,-15.637 0.014,-2.4682 4.7448,-12.332 7.1421,-14.891 1.7604,-1.8791 1.8527,-2.4564 0.7192,-4.5 -0.7151,-1.2894 -1.3321,-2.5694 -1.3711,-2.8444 -0.2596,-1.8314 -2.8188,-5 -4.0384,-5 -1.1621,0 -1.3506,-0.9778 -0.9046,-4.6928 0.3098,-2.5811 0.764,-5.0176 1.0094,-5.4146 0.2453,-0.397 -0.016,-0.8758 -0.5808,-1.064 -1.5979,-0.5327 1.1949,-5.7202 3.5144,-6.5282 1.1,-0.3832 2.3219,-0.6127 2.7153,-0.5101 0.3934,0.1026 1.9684,-0.3217 3.5,-0.943 1.5316,-0.6212 4.2828,-1.0285 6.1138,-0.905 2.0248,0.1366 4.0817,-0.4566 5.25,-1.5139 1.0779,-0.9754 1.9209,-1.2404 1.9209,-0.6037 0,0.624 1.7928,2.0493 3.984,3.1672 4.4487,2.2696 5.6862,5.1153 4.0713,9.3627 -1.2374,3.2545 -0.487,5.0247 4.8594,11.463 3.5526,4.278 3.6353,4.3135 9.0852,3.8931 11.287,-0.8707 18.198,-5.5769 36.032,-24.536 l 4.7782,-5.0798 -4.6628,-6.7886 c -3.1292,-4.5558 -5.4826,-6.9559 -7.1552,-7.2971 -3.2439,-0.6618 -6.9924,-3.1689 -6.9924,-4.6766 0,-0.6529 -1.348,-2.2419 -2.9955,-3.5313 -3.0862,-2.4153 -7.0045,-11.477 -7.0045,-16.199 0,-1.3465 -1.125,-3.7852 -2.5,-5.4193 -1.375,-1.6341 -2.5,-3.3989 -2.5,-3.9217 0,-0.5229 -0.9551,-1.8079 -2.1223,-2.8556 -1.1672,-1.0478 -3.4602,-4.2675 -5.0955,-7.155 -1.6352,-2.8875 -3.3087,-5.25 -3.7188,-5.25 -2.1221,0 -8.9288,-17.127 -15.102,-38 -1.22,-4.125 -4.2539,-11.325 -6.7418,-16 -2.488,-4.675 -6.3254,-11.875 -8.5276,-16 -2.2022,-4.125 -4.3838,-7.65 -4.8478,-7.8333 -0.4641,-0.1834 -0.8438,-0.9017 -0.8438,-1.5964 0,-1.65 -2.8619,-7.3669 -4.058,-8.1061 -0.5122,-0.3166 -1.3996,-1.4505 -1.9719,-2.5199 -1.0283,-1.9215 0.616,-1.9443 139.99,-1.9443 h 141.04 v 385 h -67.576 l -3.7117,-4.1604 z m -39.452,-70.83 c 2.5154,-2.9377 1.267,-10.686 -2.2564,-14.006 -3.6791,-3.4664 -24.386,-20.882 -27.03,-22.734 -2.3505,-1.6464 -1.9761,-0.8771 10.452,21.474 8.8775,15.966 14.402,20.444 18.835,15.267 z m 4.3471,-5.5912 c -0.3338,-0.87 -0.607,-1.77 -0.607,-2 0,-0.23 -0.4079,-0.4182 -0.9064,-0.4182 -0.4985,0 -0.671,0.9 -0.3833,2 0.2876,1.1 0.9686,2 1.5134,2 0.5447,0 0.7172,-0.7118 0.3833,-1.5818 z m -13.227,-16.668 c -0.406,-0.6875 -1.7128,-2.6 -2.9041,-4.25 -1.1913,-1.65 -4.5464,-7.725 -7.4558,-13.5 -6.8881,-13.672 -6.6666,-13.423 -9.7653,-10.986 -1.3884,1.0921 -3.0835,1.9856 -3.767,1.9856 -0.6835,0 -1.7818,0.6495 -2.4406,1.4434 -0.9786,1.1791 -0.2229,2.4159 4.1276,6.7558 4.7954,4.7837 21.872,19.7 22.634,19.772 0.17,0.016 -0.023,-0.5335 -0.4291,-1.221 z m -101.2,-18.96 c -0.7176,-0.7176 -1.1833,-0.7766 -1.1833,-0.15 0,1.3348 1.1826,2.5174 1.85,1.85 0.2842,-0.2842 -0.016,-1.0492 -0.6667,-1.7 z m -1.8936,-4.7833 c 0.2877,-1.1 0.1151,-2 -0.3834,-2 -0.4985,0 -0.9063,0.9 -0.9063,2 0,1.1 0.1725,2 0.3833,2 0.2109,0 0.6187,-0.9 0.9064,-2 z m -1.3753,-5 c -0.05,-2.2896 -0.1273,-2.3317 -0.9144,-0.5 -0.4727,1.1 -0.8842,2.9 -0.9144,4 -0.045,1.6507 0.1143,1.738 0.9144,0.5 0.5332,-0.825 0.9446,-2.625 0.9144,-4 z m 57.071,-4.75 c -0.01,-0.4125 -0.6133,-2.4682 -1.3445,-4.5682 -1.3606,-3.9075 -14.038,-17.682 -16.274,-17.682 -1.0436,0 -5.366,7.504 -5.366,9.3157 0,0.3764 1.26,0.6843 2.8,0.6843 3.4828,0 5.2,1.6372 5.2,4.9578 0,2.2264 0.8744,2.9048 6.75,5.237 7.4346,2.951 8.257,3.1562 8.2349,2.0553 z m 21.222,-5.6277 c 2.039,-2.2673 3.7266,-4.9353 3.75,-5.929 0.023,-0.9936 -1.845,-5.4729 -4.1521,-9.9538 -3.0354,-5.8955 -4.25,-9.5146 -4.3948,-13.095 -0.1353,-3.3455 -0.7198,-5.2384 -1.8053,-5.8458 -0.8829,-0.4941 -1.6052,-1.7062 -1.6052,-2.6936 0,-0.9874 -0.8831,-2.5945 -1.9624,-3.5712 -1.0793,-0.9768 -2.4511,-3.2567 -3.0484,-5.0666 -0.5973,-1.8099 -1.7392,-3.5413 -2.5376,-3.8477 -1.9045,-0.7308 -1.902,5.5231 0.011,27.099 2.0471,23.087 4.0309,28.902 9.4275,27.637 1.4353,-0.3363 4.278,-2.4666 6.317,-4.7338 z m -26.757,-10.872 c -1.9884,-6.2429 -5.8738,-15.714 -6.4506,-15.725 -0.275,-0.01 -1.5235,1.8758 -2.7744,4.1792 l -2.2744,4.188 5.7431,5.8037 c 3.1587,3.192 6.0507,5.8037 6.4266,5.8037 0.3759,0 0.074,-1.9125 -0.6702,-4.25 z m -31.99,-21.68 c 0.3142,-0.5084 -0.1896,-1.0709 -1.1196,-1.25 -1.5642,-0.3013 -1.5572,-0.4593 0.093,-2.1096 0.9995,-0.9994 2.5521,-1.5402 3.5306,-1.2296 1.1333,0.3597 3.1154,-0.7167 5.6446,-3.0653 2.1439,-1.9908 7.0611,-5.7717 10.927,-8.4019 3.866,-2.6302 7.6336,-5.5106 8.3724,-6.4008 0.8634,-1.0403 2.9072,-1.6185 5.7208,-1.6185 2.9567,0 4.3776,-0.428 4.3776,-1.3185 0,-3.7806 -3.2972,-11.592 -5.9765,-14.159 -1.6629,-1.5932 -3.0235,-3.6627 -3.0235,-4.5988 0,-2.7749 -3.274,-5.7868 -6.6214,-6.0914 -2.3385,-0.2128 -4.2196,0.6017 -7.5,3.247 -2.4082,1.9421 -5.8318,4.5427 -7.608,5.7793 -1.7762,1.2366 -5.9175,5.5379 -9.2028,9.5585 -3.2854,4.0206 -7.5505,8.0586 -9.4781,8.9733 -1.9276,0.9147 -3.7697,2.0919 -4.0937,2.6161 -0.7979,1.291 1.829,8.7779 5.2233,14.887 2.2202,3.9961 3.3855,5.0837 5.7807,5.3955 1.65,0.2148 3.3109,0.4625 3.691,0.5506 0.38,0.088 0.9481,-0.2559 1.2622,-0.7643 z" />
  <path
     inkscape:connector-curvature="0"
     id="path3962-2"
     d="m 1027.2959,1643.0968 v -187.5 h 75.584 l -1.6774,9.9983 c -0.9225,5.4991 -2.5041,11.687 -3.5146,13.75 -1.9335,3.9483 -4.4342,14.248 -3.4614,14.257 0.3131,0 0.6244,4.1652 0.692,9.25 0.079,5.9699 0.6896,10.594 1.7229,13.052 1.2973,3.0868 1.5147,6.4932 1.1487,18 -0.4362,13.713 -0.5367,14.262 -2.9729,16.23 -1.3868,1.1206 -2.5215,2.7182 -2.5215,3.55 0,0.8318 -0.5265,2.0389 -1.17,2.6824 -2.9054,2.9054 5.0703,15.374 21.405,33.464 3.7042,4.1022 7.914,10.034 9.355,13.182 1.4411,3.1477 3.5854,6.1777 4.7651,6.7333 1.1797,0.5556 4.395,3.8751 7.145,7.3767 5.0158,6.3866 12.781,12.58 19.712,15.723 2.0417,0.9257 3.9266,1.3362 4.1886,0.9122 1.4997,-2.4265 -3.8075,-14.335 -6.921,-15.53 -1.5603,-0.5988 -2.0965,-4.6306 -0.6158,-4.6306 1.4586,0 6.136,-7.4733 6.136,-9.8038 0,-1.7722 0.5776,-2.1962 2.9915,-2.1962 1.9085,0 3.4437,-0.7241 4.2405,-2 0.687,-1.1 1.6125,-2 2.0568,-2 0.4443,0 2.4735,-0.8025 4.5095,-1.7833 11.056,-3.578 19.814,2.5338 23.769,9.9071 3.444,6.6492 1.3325,16.987 -4.0591,19.872 -3.79,2.0283 -3.6583,3.4207 0.9135,9.6581 6.7243,9.1743 22.103,43.6321 23.273,52.145 0.5865,4.268 0.5402,4.3474 -6.3019,10.8071 -8.1537,7.698 -17.06,14.183 -23.643,17.216 -4.91,2.2618 -5.8395,4.0288 -3.25,6.1779 0.825,0.6846 1.5,1.8321 1.5,2.5497 0,2.2825 6.8147,14.4771 9.2027,16.4681 2.7702,2.3096 1.9158,2.4759 -2.7348,0.5328 -3.4306,-1.4334 -3.4678,-1.4215 -3.4678,1.107 -0.772,4.7326 -8.2305,8.8919 -13.576,7.2787 -5.7518,-1.0288 -11.07,-4.7388 -10.104,-9.7866 0.3817,-1.9087 0.2225,-3.1501 -0.404,-3.1501 -0.5687,0 -0.7851,-0.4028 -0.4808,-0.8952 0.9786,-1.5834 -1.9583,-1.9318 -4.4856,-0.5322 -1.3473,0.7461 -2.0856,1.3725 -1.6406,1.392 0.445,0.019 0.458,0.5979 0.029,1.2854 -1.3436,2.1529 -1.4586,4.9426 -0.171,4.1468 0.7901,-0.4883 0.9645,-0.1818 0.5344,0.9391 -0.3761,0.98 -0.1376,1.6929 0.5801,1.7343 0.6702,0.039 0.3186,0.4218 -0.7814,0.8514 -1.5828,0.6182 -2.3833,0.1513 -3.8373,-2.238 -1.4431,-2.3713 -2.0253,-2.7149 -2.7135,-1.6014 -0.4819,0.7798 -1.3426,1.474 -1.9127,1.5427 -1.5568,1.5361 -7.0503,4.5512 -7.7922,4.8642 -8.8903,3.2384 -20.611,0.9149 -28.592,-2.98 -7.6713,-5.1636 -16.814,-11.183 -23.218,-14.96 -2.0504,-1.3435 -2.2715,-1.2848 -2.8162,0.7465 0.6101,10.306 0.1718,21.956 1.8247,31.253 0.6023,3.2107 0.9856,3.6029 3.1218,3.1946 1.3393,-0.256 2.4352,-0.078 2.4352,0.3958 0,1.8416 0.2294,2.3851 1.2812,3.0351 0.7603,0.4699 0.6824,1.1651 -0.2572,2.2973 -1.0783,1.2992 -1.5322,1.3644 -2.2724,0.3262 -0.6162,-0.8642 -0.7162,-0.4627 -0.2994,1.2027 2.644,10.565 1.6406,12.073 -8.5851,12.91 -5.557,0.4546 -8.1601,1.1755 -10.288,2.8493 -1.5668,1.2324 -3.9045,2.2408 -5.1948,2.2408 -2.2925,0 -2.8034,0.8664 -3.8681,6.5588 -0.1997,1.0676 -0.3975,2.7552 -0.4396,3.7502 -0.042,0.995 -0.4795,1.56 -0.972,1.2556 -1.0795,-0.6671 -2.2244,5.7812 -2.4441,13.766 -0.123,4.4695 -0.6078,6.1577 -2.0771,7.2321 -1.1559,0.8453 -1.9167,2.5995 -1.9167,4.4195 v 3.0179 h -26.666 z m 41.51,121.49 c 0.3455,-0.559 1.047,-0.7574 1.559,-0.441 0.512,0.3165 0.931,-0.1637 0.931,-1.0671 0,-2.1746 -3.7187,-16.673 -5.1804,-20.198 -1.275,-3.0744 -1.511,-3.8094 -1.6946,-5.2777 -0.069,-0.55 -0.6352,-1 -1.2586,-1 -0.8146,0 -0.9491,2.9649 -0.4779,10.535 0.8091,13 3.7283,21.321 6.1216,17.449 z m 126.0701,-76.5 c 2.0516,-2.6898 2.2653,-3.5134 1.2068,-4.6504 -0.7076,-0.7599 -1.435,-2.0417 -1.6166,-2.8484 -1.085,-2.4157 -2.6771,-4.6605 -3.5993,-6.7356 -1.0309,-2.3375 -1.9941,-4.25 -2.1406,-4.25 -1.2857,2.0969 -28.298,35.687 -18.322,43.067 10.388,-2.2064 19.553,-18.046 24.471,-24.583 z m -90.6781,2.5156 c -0.4962,0 -0.9021,0.4461 -0.9021,0.9913 -0.925,2.2973 -6.9654,6.7175 -4.9614,8.0585 3.1337,-0.2501 4.3314,1.6778 6.7114,2.5621 7.2787,2.6996 -0.5514,-11.534 -0.8479,-11.612 z m -20.923,-3.3011 c 3.4348,-3.9594 6.9168,-8.7598 7.7379,-10.668 1.7173,-3.9902 7.4441,-9.8451 13.157,-13.451 l 3.941,-2.4879 3.9512,1.909 c 4.684,2.2631 12.292,10.328 17.7861,18.854 3.872,6.0091 5.4161,7.3882 5.4813,4.8955 0.018,-0.6875 0.4218,-4.2668 0.8973,-7.9539 0.7483,-5.8022 0.5947,-7.2495 -1.1421,-10.76 -2.5926,-5.24 -1.8625,-9.162 2.7963,-15.022 l 3.5663,-4.4858 -4.851,-4.5142 c -6.6783,-6.2145 -12.875,-13.888 -19.795,-24.514 -3.2239,-4.95 -7.0186,-10.398 -8.4329,-12.107 -1.4142,-1.709 -3.3374,-4.0516 -4.2737,-5.2059 -0.9363,-1.1542 -4.8532,-7.406 -8.7042,-13.893 -10.772,-18.145 -10.81,-18.184 -12.885,-13.544 -1.5289,3.4185 -3.3832,6.5506 -5.1094,8.6306 -0.7276,0.8767 -1.0577,2.2849 -0.7337,3.1293 0.3274,0.8531 -0.2895,2.4141 -1.3881,3.5127 -1.0875,1.0875 -1.9773,2.6042 -1.9773,3.3703 0,0.7662 -0.675,1.652 -1.5,1.9686 -0.825,0.3166 -1.5,1.7147 -1.5,3.107 0,1.7141 -0.565,2.5569 -1.75,2.6103 -1.1025,0.05 -0.7325,0.4506 1,1.0833 3.189,1.1647 3.404,2.8337 1.3208,10.25 -3.4654,12.336 -3.4838,12.523 -1.9214,19.418 0.8313,3.6684 1.7501,10.045 2.0418,14.17 0.2918,4.125 0.9319,8.2602 1.4224,9.1893 0.5392,1.0211 0.5126,1.9238 -0.067,2.282 -0.5274,0.326 -0.7121,1.2361 -0.4103,2.0224 0.3017,0.7864 -0.1734,2.8771 -1.0559,4.6461 -0.8825,1.769 -1.8813,5.7237 -2.2196,8.7882 -0.3383,3.0646 -1.3474,6.9219 -2.2425,8.5719 -1.053,1.941 -1.5217,4.7782 -1.3279,8.0375 l 0.2995,5.0375 5.822,0.1614 5.822,0.1613 6.245,-7.1989 z" />
</svg>
