<?xml version="1.0" encoding="UTF-8" standalone="no"?>
<!-- Created with Inkscape (http://www.inkscape.org/) -->

<svg
   xmlns:dc="http://purl.org/dc/elements/1.1/"
   xmlns:cc="http://creativecommons.org/ns#"
   xmlns:rdf="http://www.w3.org/1999/02/22-rdf-syntax-ns#"
   xmlns:svg="http://www.w3.org/2000/svg"
   xmlns="http://www.w3.org/2000/svg"
   xmlns:sodipodi="http://sodipodi.sourceforge.net/DTD/sodipodi-0.dtd"
   xmlns:inkscape="http://www.inkscape.org/namespaces/inkscape"
   width="84.666664mm"
   height="34.556866mm"
   viewBox="0 0 84.666664 34.556862"
   version="1.1"
   id="svg8"
   inkscape:version="0.92.3 (2405546, 2018-03-11)"
   sodipodi:docname="logo-white.svg">
  <defs
     id="defs2" />
  <sodipodi:namedview
     id="base"
     pagecolor="#ffffff"
     bordercolor="#666666"
     borderopacity="1.0"
     inkscape:pageopacity="0.0"
     inkscape:pageshadow="2"
     inkscape:zoom="1.4142136"
     inkscape:cx="125.53405"
     inkscape:cy="-80.483714"
     inkscape:document-units="mm"
     inkscape:current-layer="g901"
     showgrid="false"
     inkscape:window-width="1920"
     inkscape:window-height="1017"
     inkscape:window-x="1912"
     inkscape:window-y="-8"
     inkscape:window-maximized="1"
     fit-margin-top="0"
     fit-margin-left="0"
     fit-margin-right="0"
     fit-margin-bottom="0" />
  <metadata
     id="metadata5">
    <rdf:RDF>
      <cc:Work
         rdf:about="">
        <dc:format>image/svg+xml</dc:format>
        <dc:type
           rdf:resource="http://purl.org/dc/dcmitype/StillImage" />
        <dc:title></dc:title>
      </cc:Work>
    </rdf:RDF>
  </metadata>
  <g
     inkscape:label="Layer 1"
     inkscape:groupmode="layer"
     id="layer1"
     transform="translate(-1.6127495,-41.925735)">
    <g
       id="g901"
       transform="matrix(0.78289719,0,0,0.70604844,13.825483,-16.089165)">
      <path
         sodipodi:nodetypes="ccssccccsccccccccssscscccccccccccccsscscscccscsccsscccccscccccscccccscccccccsccccccccscccscccssscscccccccccscscccccsccccccccccccsscccccccccsssccccccccscsccccccccccscczccccccsscscccccccccczcc"
         style="fill:#fafafa;fill-opacity:1;stroke-width:0.0942637"
         d="m 16.368419,130.97136 c -0.0055,-0.14389 -0.11049,-0.65532 -0.233353,-1.13641 -0.122876,-0.48109 -0.215612,-0.91418 -0.206085,-0.96241 0.0095,-0.0484 -0.01659,-0.0969 -0.05804,-0.10809 -0.08094,-0.0213 -0.240882,0.22874 -0.563238,0.88298 -0.193846,0.39341 -0.215185,0.40647 -0.494355,0.30244 -0.160472,-0.0597 -0.369555,-0.20978 -0.464632,-0.33337 -0.09508,-0.1235 -0.235207,-0.29234 -0.311408,-0.37509 -0.0762,-0.0827 -0.107202,-0.1728 -0.06889,-0.20006 0.03833,-0.0273 -0.329186,-0.7881 -0.816696,-1.69064 -0.943641,-1.74708 -1.007054,-1.90466 -1.028747,-2.55637 -0.03748,-1.12465 -0.241352,-1.39518 -1.374171,-1.824 -0.383112,-0.14507 -0.8393226,-0.36504 -1.0137679,-0.48894 -0.1744451,-0.12397 -0.4612139,-0.24341 -0.6372686,-0.26555 -0.2125677,-0.0268 -0.3453597,-0.0977 -0.3952911,-0.2112 -0.048391,-0.10999 -0.1643922,-0.17446 -0.3254667,-0.1811 -0.1397002,-0.005 -0.2666034,-0.0649 -0.2872553,-0.13416 -0.020338,-0.0683 -0.097427,-0.14056 -0.1712948,-0.16048 -0.1920047,-0.0521 -1.0430438,-0.81208 -1.0230141,-0.91351 0.00922,-0.0467 -0.041676,-0.10074 -0.1130975,-0.12018 -0.1064771,-0.0289 -0.1428338,0.0732 -0.2018821,0.56676 -0.04434,0.37072 -0.1051093,0.59301 -0.1581701,0.5786 -0.047388,-0.0118 -0.1030992,0.0768 -0.1238068,0.19935 -0.035911,0.21262 -0.032505,0.21476 0.074897,0.0462 0.1218133,-0.19105 0.1227141,-0.21001 -0.041498,0.86929 -0.037447,0.24621 -0.061769,0.56593 -0.054004,0.71049 l 0.014104,0.26281 -0.1264735,-0.29331 -0.1264758,-0.29336 -0.084459,0.41735 c -0.087699,0.43376 -0.04306,0.51876 0.1905138,0.36253 0.1136308,-0.0761 0.1127135,-0.0581 -0.00526,0.10216 -0.1645915,0.22352 -0.3400302,0.20622 -0.4783813,-0.0472 -0.053006,-0.0972 -0.1188267,-0.16071 -0.1462803,-0.14104 -0.027439,0.019 0.012587,-0.18157 0.088939,-0.44693 0.092523,-0.32138 0.1066097,-0.49131 0.042214,-0.5088 -0.062258,-0.0166 -0.049633,-0.26456 0.035492,-0.69561 l 0.1321695,-0.66935 -0.4307539,-0.11686 c -0.2655384,-0.072 -0.4635871,-0.18322 -0.5163681,-0.28965 -0.089799,-0.1811 -0.2040723,-1.54387 -0.1516895,-1.80914 0.043537,-0.22045 0.3256927,-0.36435 0.8107473,-0.41339 l 0.4212212,-0.0427 0.025863,0.46049 c 0.014222,0.25327 0.056602,0.46884 0.094151,0.47905 0.037554,0.009 0.030611,0.10145 -0.015431,0.20291 -0.046028,0.10145 -0.045087,0.19484 0.00207,0.20764 0.1319443,0.0358 0.2833083,-0.37087 0.1820492,-0.48913 -0.061243,-0.0716 -0.042095,-0.0917 0.061367,-0.0647 0.082705,0.0213 0.1591372,-0.005 0.169811,-0.0593 0.010667,-0.054 -0.02368,-0.10998 -0.076357,-0.12444 -0.054319,-0.0142 -0.05866,-0.10785 -0.010027,-0.21499 0.060992,-0.1344 0.02067,-0.29677 -0.1396599,-0.56221 -0.1343194,-0.22234 -0.1975443,-0.43636 -0.1564492,-0.52947 0.083112,-0.1882 -0.2657398,-0.91484 -0.584,-1.21628 -0.124736,-0.11805 -0.6352158,-0.71033 -1.1344203,-1.31596 -0.499188,-0.60561 -0.9375543,-1.10924 -0.9740926,-1.11917 -0.036575,-0.009 -0.1632877,0.12255 -0.2815756,0.29419 -0.1182933,0.17161 -0.3700686,0.39469 -0.5595062,0.4955 -0.2169553,0.11544 -0.5241387,0.44124 -0.829993,0.88019 -0.3881603,0.55708 -0.5789018,0.73998 -0.95080987,0.91169 -0.35339567,0.16308 -0.45811366,0.25927 -0.43560367,0.39969 0.0507449,0.31652 0.008415,0.73512 -0.0988681,0.9774 -0.13820208,0.31215 -0.297664,0.25221 -0.20025363,-0.0754 0.05497363,-0.18489 0.03591822,-0.28221 -0.06575407,-0.33623 -0.17811674,-0.0946 -0.27247645,0.27792 -0.15503645,0.61214 0.0527882,0.15029 0.0406045,0.29343 -0.0363117,0.42755 -0.14130963,0.2463 -0.18560711,0.2368 -0.49004966,-0.10596 -0.18873126,-0.21238 -0.22724978,-0.33659 -0.17951526,-0.57832 0.061229,-0.31009 0.43246673,-1.09381 0.66954311,-1.41345 0.0703478,-0.0948 0.36708219,-0.5097 0.65941949,-0.92193 0.2923283,-0.41219 0.67256741,-0.86834 0.84497821,-1.01369 0.4327251,-0.36473 1.0571693,-1.11569 1.0988736,-1.32149 0.049218,-0.24234 0.6464007,-1.102 0.901705,-1.29777 0.1874797,-0.14365 0.2066062,-0.1984 0.1490607,-0.4257 -0.036307,-0.14341 -0.064377,-0.28366 -0.062376,-0.31161 0.013298,-0.18607 -0.144704,-0.55727 -0.2493143,-0.58567 -0.099677,-0.027 -0.096863,-0.12752 0.013511,-0.48249 0.076696,-0.24656 0.1629535,-0.47554 0.191706,-0.50887 0.028748,-0.0332 0.015716,-0.0865 -0.029155,-0.11804 -0.1267176,-0.0896 0.2135467,-0.53459 0.4281837,-0.56 0.1017908,-0.0118 0.211053,-0.007 0.2428051,0.0142 0.031746,0.019 0.1750779,0.0142 0.3185123,-0.0119 0.1434288,-0.0254 0.3873181,-0.001 0.5419708,0.0533 0.1710246,0.0605 0.3589646,0.0503 0.4796999,-0.0266 0.1113955,-0.0709 0.188845,-0.0773 0.1764835,-0.0142 -0.012113,0.0614 0.1139864,0.24327 0.2802297,0.40422 0.3375154,0.32678 0.3884106,0.6354 0.1674359,1.0154 -0.1693227,0.29115 -0.1393209,0.4827 0.1942542,1.24024 0.2216628,0.50338 0.2280652,0.5088 0.7036847,0.5944 0.9850252,0.1773 1.6691719,-0.12445 3.566935,-1.57317 l 0.508465,-0.38819 c -0.235043,-0.43307 -0.282563,-2.46289 -0.282563,-2.46289 -0.189783,0.005 -0.175127,-0.17707 -0.2987,-0.30206 0,0 0.255823,-1.2904 0.241506,-1.37457 -0.159215,-0.93613 -0.8830644,-3.69053 -0.0969,-3.82607 1.039333,-0.1792 2.140336,-0.11662 2.964419,-0.0327 0.940896,-0.1453 2.700633,8.44497 3.36164,16.28506 0.539402,6.3978 -0.367467,13.14195 -0.426309,11.93776 z m -1.312827,-3.04894 c 0.272789,-0.23016 0.316138,-1.02116 0.07838,-1.42967 -0.248271,-0.4265 -1.686248,-2.62115 -1.877077,-2.86482 -0.169645,-0.21666 -0.152465,-0.13227 0.479592,2.35482 0.451476,1.77659 0.838391,2.34555 1.319132,1.93979 z m 0.481417,-0.44847 c -0.01173,-0.0934 -0.01771,-0.18821 -0.01323,-0.21073 0.0045,-0.0237 -0.02687,-0.0505 -0.06963,-0.0621 -0.04275,-0.0119 -0.07503,0.0728 -0.07171,0.18773 0.0033,0.11496 0.04426,0.21926 0.09098,0.23182 0.04672,0.0118 0.07533,-0.0533 0.06359,-0.14649 z m -0.810919,-1.94693 c -0.02147,-0.077 -0.09644,-0.29554 -0.16658,-0.48552 -0.07015,-0.18987 -0.239983,-0.86543 -0.377409,-1.50099 -0.325377,-1.50472 -0.311214,-1.47509 -0.624312,-1.30764 -0.14029,0.0749 -0.303029,0.12349 -0.361658,0.10738 -0.05862,-0.0166 -0.165473,0.0213 -0.23736,0.0851 -0.106826,0.0932 -0.06603,0.2323 0.222876,0.76039 0.318443,0.58205 1.493559,2.44639 1.557524,2.47123 0.01432,0.005 0.0084,-0.0531 -0.01311,-0.13013 z m -8.3121395,-4.22137 c -0.047614,-0.0872 -0.086419,-0.10382 -0.098581,-0.0422 -0.025915,0.13132 0.052563,0.27505 0.1227639,0.22495 0.029897,-0.0213 0.019081,-0.10359 -0.024197,-0.18276 z m -0.069556,-0.51442 c 0.046028,-0.10145 0.048718,-0.19389 0.00595,-0.20551 -0.042747,-0.0118 -0.095215,0.0673 -0.1165701,0.17541 -0.021357,0.10809 -0.024014,0.20077 -0.00595,0.20551 0.018086,0.005 0.070542,-0.074 0.1165725,-0.17565 z m -0.020883,-0.52364 c 0.040145,-0.22637 0.034349,-0.23229 -0.068722,-0.0704 -0.0619,0.0972 -0.132141,0.26456 -0.1560912,0.37201 -0.035937,0.16118 -0.02395,0.17351 0.068727,0.0704 0.061743,-0.0687 0.131987,-0.23609 0.1560889,-0.37201 z m 4.9873815,0.8623 c 0.0074,-0.0408 -0.0047,-0.25698 -0.02663,-0.48048 -0.04084,-0.4159 -0.860792,-2.06554 -1.052581,-2.11762 -0.08951,-0.0244 -0.6059497,0.61284 -0.6411227,0.79097 -0.00732,0.037 0.094791,0.0967 0.2268823,0.13251 0.2987304,0.0811 0.4142334,0.2821 0.3497654,0.60857 -0.04322,0.21878 0.01858,0.30599 0.477295,0.67214 0.580395,0.46331 0.646951,0.50264 0.666429,0.39388 z m 1.92954,-0.059 c 0.218908,-0.1754 0.415456,-0.39845 0.436755,-0.49562 0.02124,-0.0972 -0.05199,-0.58107 -0.162883,-1.07539 -0.145896,-0.65035 -0.179814,-1.0345 -0.122721,-1.38989 0.05335,-0.33209 0.03996,-0.53181 -0.04136,-0.61681 -0.06613,-0.0692 -0.104557,-0.20504 -0.08539,-0.30225 0.01918,-0.0969 -0.02537,-0.27565 -0.09898,-0.39685 -0.07361,-0.12112 -0.14701,-0.37727 -0.163105,-0.56915 -0.01609,-0.19176 -0.08042,-0.38869 -0.142957,-0.43743 -0.149167,-0.11614 -0.270368,0.49875 -0.525147,2.6647 -0.272641,2.31768 -0.215381,2.93564 0.272062,2.93694 0.12964,3.3e-4 0.414823,-0.14293 0.633733,-0.31829 z m -2.083958,-1.6922 c -0.04935,-0.66013 -0.198732,-1.68185 -0.247991,-1.69636 -0.02351,-0.007 -0.167092,0.14886 -0.319106,0.34629 l -0.276393,0.3588 0.379927,0.7044 c 0.20896,0.38742 0.406309,0.71157 0.438553,0.72031 0.03226,0.009 0.04352,-0.18631 0.02503,-0.43347 z m -2.3229707,-2.87673 c 0.036807,-0.0427 0.00453,-0.10975 -0.071765,-0.1491 -0.1283176,-0.0661 -0.1246506,-0.0815 0.048932,-0.20527 0.1051307,-0.0749 0.2488057,-0.092 0.3267053,-0.0386 0.090221,0.0619 0.2811349,0.002 0.5436686,-0.16995 0.2225399,-0.14578 0.7177088,-0.40302 1.1003628,-0.5716 0.382664,-0.16853 0.761743,-0.36401 0.842399,-0.43432 0.09425,-0.0822 0.280783,-0.0915 0.522113,-0.0258 0.253605,0.0687 0.38379,0.06 0.401082,-0.0277 0.0734,-0.3717 -0.05775,-1.21654 -0.237733,-1.53135 -0.111699,-0.19532 -0.188222,-0.43053 -0.170048,-0.5226 0.05387,-0.27283 -0.168474,-0.64521 -0.449676,-0.75314 -0.196449,-0.0754 -0.373612,-0.0391 -0.706339,0.1446 -0.244264,0.13487 -0.588408,0.3108 -0.764766,0.39101 -0.176358,0.0801 -0.6150782,0.40669 -0.9749291,0.72548 -0.3598573,0.31879 -0.8040844,0.61646 -0.9871782,0.6615 -0.1830993,0.045 -0.3639526,0.1178 -0.4019228,0.16189 -0.093499,0.10833 -0.013535,0.90567 0.1589925,1.5854 0.112851,0.44461 0.1916872,0.5787 0.3910784,0.66515 0.1373583,0.0595 0.2750038,0.12255 0.3058978,0.14009 0.030888,0.0166 0.086289,-0.002 0.1231028,-0.0457 z"
         id="path3949"
         inkscape:connector-curvature="0" />
      <path
         d="m -7.65146,100.74755 q -2.2438803,0 -4.068345,-1.069633 -1.803491,-1.092907 -2.852032,-2.999633 -1.027572,-1.930003 -1.027572,-4.348302 0,-2.418323 1.027572,-4.325049 1.048541,-1.930003 2.852032,-2.999633 1.8244647,-1.092906 4.0893157,-1.092906 1.9083448,0 3.4392177,0.744106 1.5518412,0.744083 2.6003833,2.13926 l -2.1809676,2.232296 q -1.4889292,-1.90675 -3.6908681,-1.90675 -1.3631028,0 -2.4326163,0.674347 -1.0695137,0.65107 -1.6776677,1.836966 -0.587183,1.18592 -0.587183,2.697363 0,1.511443 0.587183,2.697339 0.608154,1.185896 1.6776677,1.860243 1.0695135,0.65107 2.4326163,0.65107 2.2019389,0 3.6908681,-1.930003 l 2.1809676,2.232296 q -1.0485421,1.41843 -2.6003833,2.162513 -1.5518435,0.74411 -3.4601884,0.74411 z"
         style="font-style:normal;font-variant:normal;font-weight:bold;font-stretch:normal;font-size:50.79999924px;line-height:1.25;font-family:Montserrat;-inkscape-font-specification:'Montserrat, Bold';font-variant-ligatures:normal;font-variant-caps:normal;font-variant-numeric:normal;font-feature-settings:normal;text-align:center;letter-spacing:0px;word-spacing:0px;writing-mode:lr-tb;text-anchor:middle;fill:#fafafa;fill-opacity:1;stroke:none;stroke-width:0.11501269"
         id="path859"
         inkscape:connector-curvature="0" />
      <path
         d="M 0.45213012,83.214817 H 3.7235811 V 100.46851 H 0.45213012 Z"
         style="font-style:normal;font-variant:normal;font-weight:bold;font-stretch:normal;font-size:50.79999924px;line-height:1.25;font-family:Montserrat;-inkscape-font-specification:'Montserrat, Bold';font-variant-ligatures:normal;font-variant-caps:normal;font-variant-numeric:normal;font-feature-settings:normal;text-align:center;letter-spacing:0px;word-spacing:0px;writing-mode:lr-tb;text-anchor:middle;fill:#fafafa;fill-opacity:1;stroke:none;stroke-width:0.11501269"
         id="path861"
         inkscape:connector-curvature="0" />
      <path
         d="M 6.7597648,87.958426 H 10.031216 V 100.46851 H 6.7597648 Z M 8.3954903,86.21445 q -0.9017462,0 -1.4679587,-0.581333 -0.5662125,-0.58131 -0.5662125,-1.441683 0,-0.86035 0.5662125,-1.441683 0.5662125,-0.58131 1.4679587,-0.58131 0.9017458,0 1.4679588,0.558056 0.5662129,0.55808 0.5662129,1.395177 0,0.90688 -0.5662129,1.511443 -0.566213,0.581333 -1.4679588,0.581333 z"
         style="font-style:normal;font-variant:normal;font-weight:bold;font-stretch:normal;font-size:50.79999924px;line-height:1.25;font-family:Montserrat;-inkscape-font-specification:'Montserrat, Bold';font-variant-ligatures:normal;font-variant-caps:normal;font-variant-numeric:normal;font-feature-settings:normal;text-align:center;letter-spacing:0px;word-spacing:0px;writing-mode:lr-tb;text-anchor:middle;fill:#fafafa;fill-opacity:1;stroke:none;stroke-width:0.11501269"
         id="path863"
         inkscape:connector-curvature="0" />
      <path
         d="m 27.516308,87.7724 q 2.118054,0 3.355334,1.395176 1.258249,1.371923 1.258249,4.139022 v 7.161912 h -3.27145 v -6.603832 q 0,-1.48819 -0.566212,-2.209043 -0.545242,-0.744083 -1.572813,-0.744083 -1.153396,0 -1.824463,0.837096 -0.671067,0.813867 -0.671067,2.441553 v 6.278309 h -3.271451 v -6.603832 q 0,-2.953126 -2.139026,-2.953126 -1.132425,0 -1.803492,0.837096 -0.671066,0.813867 -0.671066,2.441553 v 6.278309 H 13.0674 V 87.958426 h 3.124655 v 1.441683 q 0.629125,-0.790613 1.530871,-1.209173 0.922717,-0.418536 2.013201,-0.418536 1.195338,0 2.159996,0.534803 0.964658,0.511573 1.551842,1.511442 0.692037,-0.976616 1.74058,-1.511442 1.069513,-0.534803 2.327763,-0.534803 z"
         style="font-style:normal;font-variant:normal;font-weight:bold;font-stretch:normal;font-size:50.79999924px;line-height:1.25;font-family:Montserrat;-inkscape-font-specification:'Montserrat, Bold';font-variant-ligatures:normal;font-variant-caps:normal;font-variant-numeric:normal;font-feature-settings:normal;text-align:center;letter-spacing:0px;word-spacing:0px;writing-mode:lr-tb;text-anchor:middle;fill:#fafafa;fill-opacity:1;stroke:none;stroke-width:0.11501269"
         id="path865"
         inkscape:connector-curvature="0" />
      <path
         d="m 41.730935,87.7724 q 1.572814,0 2.852035,0.813843 1.300193,0.790613 2.034171,2.255549 0.73398,1.441683 0.73398,3.371662 0,1.930003 -0.73398,3.39494 -0.733978,1.441683 -2.034171,2.255549 -1.279221,0.790587 -2.852035,0.790587 -2.327763,0 -3.544071,-1.627707 v 1.441687 H 35.062209 V 83.214817 h 3.271451 v 6.069026 Q 39.57094,87.7724 41.730935,87.7724 Z m -0.566212,9.905754 q 1.25825,0 2.055142,-0.93011 0.817863,-0.953387 0.817863,-2.53459 0,-1.581203 -0.817863,-2.511312 -0.796892,-0.953363 -2.055142,-0.953363 -1.25825,0 -2.076113,0.953363 -0.796892,0.930109 -0.796892,2.511312 0,1.581203 0.796892,2.53459 0.817863,0.93011 2.076113,0.93011 z"
         style="font-style:normal;font-variant:normal;font-weight:bold;font-stretch:normal;font-size:50.79999924px;line-height:1.25;font-family:Montserrat;-inkscape-font-specification:'Montserrat, Bold';font-variant-ligatures:normal;font-variant-caps:normal;font-variant-numeric:normal;font-feature-settings:normal;text-align:center;letter-spacing:0px;word-spacing:0px;writing-mode:lr-tb;text-anchor:middle;fill:#fafafa;fill-opacity:1;stroke:none;stroke-width:0.11501269"
         id="path867"
         inkscape:connector-curvature="0" />
      <path
         d="m 49.520617,87.958426 h 3.27145 v 12.510084 h -3.27145 z m 1.635724,-1.743976 q -0.901746,0 -1.467959,-0.581333 -0.566213,-0.58131 -0.566213,-1.441683 0,-0.86035 0.566213,-1.441683 0.566213,-0.58131 1.467959,-0.58131 0.901745,0 1.46796,0.558056 0.566211,0.55808 0.566211,1.395177 0,0.90688 -0.566211,1.511443 -0.566215,0.581333 -1.46796,0.581333 z"
         style="font-style:normal;font-variant:normal;font-weight:bold;font-stretch:normal;font-size:50.79999924px;line-height:1.25;font-family:Montserrat;-inkscape-font-specification:'Montserrat, Bold';font-variant-ligatures:normal;font-variant-caps:normal;font-variant-numeric:normal;font-feature-settings:normal;text-align:center;letter-spacing:0px;word-spacing:0px;writing-mode:lr-tb;text-anchor:middle;fill:#fafafa;fill-opacity:1;stroke:none;stroke-width:0.11501269"
         id="path869"
         inkscape:connector-curvature="0" />
      <path
         d="m 62.685722,87.7724 q 2.097081,0 3.376306,1.395176 1.300186,1.395176 1.300186,4.139022 v 7.161912 h -3.271445 v -6.603832 q 0,-1.48819 -0.587186,-2.209043 -0.587186,-0.744083 -1.698638,-0.744083 -1.237281,0 -1.971259,0.86035 -0.733978,0.837096 -0.733978,2.511312 v 6.185296 H 55.828255 V 87.958426 h 3.124658 v 1.464937 q 0.650095,-0.790614 1.614751,-1.209174 0.96466,-0.441789 2.118058,-0.441789 z"
         style="font-style:normal;font-variant:normal;font-weight:bold;font-stretch:normal;font-size:50.79999924px;line-height:1.25;font-family:Montserrat;-inkscape-font-specification:'Montserrat, Bold';font-variant-ligatures:normal;font-variant-caps:normal;font-variant-numeric:normal;font-feature-settings:normal;text-align:center;letter-spacing:0px;word-spacing:0px;writing-mode:lr-tb;text-anchor:middle;fill:#fafafa;fill-opacity:1;stroke:none;stroke-width:0.11501269"
         id="path871"
         inkscape:connector-curvature="0" />
      <path
         d="m 82.089309,87.958426 v 10.417328 q 0,3.441426 -1.614749,5.115636 -1.614758,1.67422 -4.718442,1.67422 -1.635724,0 -3.103687,-0.44181 -1.467957,-0.44179 -2.432617,-1.27891 l 1.300198,-2.60433 q 0.713005,0.65107 1.803487,1.02312 1.090489,0.39531 2.180971,0.39531 1.698638,0 2.495528,-0.86035 0.817861,-0.83712 0.817861,-2.557843 v -0.534803 q -1.27922,1.557949 -3.565037,1.557949 -1.551846,0 -2.852039,-0.744106 -1.279218,-0.767337 -2.034169,-2.13926 -0.754951,-1.371946 -0.754951,-3.162406 0,-1.790483 0.754951,-3.162406 0.754951,-1.371922 2.034169,-2.116029 1.300193,-0.767336 2.852039,-0.767336 2.453582,0 3.732809,1.790483 v -1.604457 z m -6.186392,8.929138 q 1.300191,0 2.118052,-0.83712 0.838833,-0.86035 0.838833,-2.232273 0,-1.371923 -0.838833,-2.209043 -0.817861,-0.860349 -2.118052,-0.860349 -1.300191,0 -2.139025,0.860349 -0.838833,0.83712 -0.838833,2.209043 0,1.371923 0.838833,2.232273 0.838834,0.83712 2.139025,0.83712 z"
         style="font-style:normal;font-variant:normal;font-weight:bold;font-stretch:normal;font-size:50.79999924px;line-height:1.25;font-family:Montserrat;-inkscape-font-specification:'Montserrat, Bold';font-variant-ligatures:normal;font-variant-caps:normal;font-variant-numeric:normal;font-feature-settings:normal;text-align:center;letter-spacing:0px;word-spacing:0px;writing-mode:lr-tb;text-anchor:middle;fill:#fafafa;fill-opacity:1;stroke:none;stroke-width:0.11501269"
         id="path873"
         inkscape:connector-curvature="0" />
      <g
         id="text842"
         style="font-style:normal;font-variant:normal;font-weight:bold;font-stretch:normal;font-size:50.79999924px;line-height:1.25;font-family:Montserrat;-inkscape-font-specification:'Montserrat, Bold';font-variant-ligatures:normal;font-variant-caps:normal;font-variant-numeric:normal;font-feature-settings:normal;text-align:center;letter-spacing:0px;word-spacing:0px;writing-mode:lr-tb;text-anchor:middle;fill:#fafafa;fill-opacity:1;stroke:none;stroke-width:0.26458332"
         aria-label="Finland"
         transform="matrix(0.4128118,0,0,0.45773546,-9.1597883,71.097152)">
        <path
           id="path844"
           style="font-style:normal;font-variant:normal;font-weight:bold;font-stretch:normal;font-size:50.79999924px;font-family:Montserrat;-inkscape-font-specification:'Montserrat, Bold';font-variant-ligatures:normal;font-variant-caps:normal;font-variant-numeric:normal;font-feature-settings:normal;text-align:center;writing-mode:lr-tb;text-anchor:middle;fill:#fafafa;fill-opacity:1;stroke-width:0.26458332"
           d="m 62.917586,75.72291 v 9.398 h 16.4592 v 6.603999 h -16.4592 v 12.954001 h -8.229599 v -35.56 h 26.873199 v 6.604 z"
           inkscape:connector-curvature="0" />
        <path
           id="path846"
           style="font-style:normal;font-variant:normal;font-weight:bold;font-stretch:normal;font-size:50.79999924px;font-family:Montserrat;-inkscape-font-specification:'Montserrat, Bold';font-variant-ligatures:normal;font-variant-caps:normal;font-variant-numeric:normal;font-feature-settings:normal;text-align:center;writing-mode:lr-tb;text-anchor:middle;fill:#fafafa;fill-opacity:1;stroke-width:0.26458332"
           d="m 86.077623,77.34851 h 7.9248 v 27.3304 h -7.9248 z m 3.9624,-3.81 q -2.1844,0 -3.556,-1.27 -1.3716,-1.27 -1.3716,-3.1496 0,-1.8796 1.3716,-3.1496 1.3716,-1.27 3.556,-1.27 2.1844,0 3.556,1.2192 1.3716,1.2192 1.3716,3.048 0,1.9812 -1.3716,3.302 -1.3716,1.27 -3.556,1.27 z"
           inkscape:connector-curvature="0" />
        <path
           id="path848"
           style="font-style:normal;font-variant:normal;font-weight:bold;font-stretch:normal;font-size:50.79999924px;font-family:Montserrat;-inkscape-font-specification:'Montserrat, Bold';font-variant-ligatures:normal;font-variant-caps:normal;font-variant-numeric:normal;font-feature-settings:normal;text-align:center;writing-mode:lr-tb;text-anchor:middle;fill:#fafafa;fill-opacity:1;stroke-width:0.26458332"
           d="m 117.96891,76.94211 q 5.08,0 8.1788,3.048 3.1496,3.048 3.1496,9.0424 v 15.6464 h -7.9248 v -14.4272 q 0,-3.2512 -1.4224,-4.826 -1.4224,-1.6256 -4.1148,-1.6256 -2.9972,0 -4.7752,1.8796 -1.778,1.8288 -1.778,5.4864 v 13.5128 h -7.9248 v -27.3304 h 7.5692 v 3.2004 q 1.5748,-1.7272 3.9116,-2.6416 2.3368,-0.9652 5.1308,-0.9652 z"
           inkscape:connector-curvature="0" />
        <path
           id="path850"
           style="font-style:normal;font-variant:normal;font-weight:bold;font-stretch:normal;font-size:50.79999924px;font-family:Montserrat;-inkscape-font-specification:'Montserrat, Bold';font-variant-ligatures:normal;font-variant-caps:normal;font-variant-numeric:normal;font-feature-settings:normal;text-align:center;writing-mode:lr-tb;text-anchor:middle;fill:#fafafa;fill-opacity:1;stroke-width:0.26458332"
           d="m 136.48075,66.98531 h 7.9248 v 37.6936 h -7.9248 z"
           inkscape:connector-curvature="0" />
        <path
           id="path852"
           style="font-style:normal;font-variant:normal;font-weight:bold;font-stretch:normal;font-size:50.79999924px;font-family:Montserrat;-inkscape-font-specification:'Montserrat, Bold';font-variant-ligatures:normal;font-variant-caps:normal;font-variant-numeric:normal;font-feature-settings:normal;text-align:center;writing-mode:lr-tb;text-anchor:middle;fill:#fafafa;fill-opacity:1;stroke-width:0.26458332"
           d="m 162.78403,76.94211 q 6.35,0 9.7536,3.048 3.4036,2.9972 3.4036,9.0932 v 15.5956 h -7.4168 v -3.4036 q -2.2352,3.81 -8.3312,3.81 -3.1496,0 -5.4864,-1.0668 -2.286,-1.0668 -3.50519,-2.9464 -1.2192,-1.879601 -1.2192,-4.267201 0,-3.81 2.84479,-5.994399 2.8956,-2.1844 8.89,-2.1844 h 6.2992 q 0,-2.5908 -1.5748,-3.9624 -1.5748,-1.4224 -4.7244,-1.4224 -2.1844,0 -4.318,0.7112 -2.0828,0.6604 -3.556,1.8288 l -2.84479,-5.5372 q 2.23519,-1.5748 5.33399,-2.4384 3.1496,-0.8636 6.4516,-0.8636 z m -0.6096,22.809199 q 2.032,0 3.6068,-0.9144 1.5748,-0.9652 2.2352,-2.794 v -2.794 h -5.4356 q -4.8768,0 -4.8768,3.2004 0,1.524 1.1684,2.4384 1.2192,0.8636 3.302,0.8636 z"
           inkscape:connector-curvature="0" />
        <path
           id="path854"
           style="font-style:normal;font-variant:normal;font-weight:bold;font-stretch:normal;font-size:50.79999924px;font-family:Montserrat;-inkscape-font-specification:'Montserrat, Bold';font-variant-ligatures:normal;font-variant-caps:normal;font-variant-numeric:normal;font-feature-settings:normal;text-align:center;writing-mode:lr-tb;text-anchor:middle;fill:#fafafa;fill-opacity:1;stroke-width:0.26458332"
           d="m 199.72516,76.94211 q 5.08,0 8.1788,3.048 3.1496,3.048 3.1496,9.0424 v 15.6464 h -7.9248 v -14.4272 q 0,-3.2512 -1.4224,-4.826 -1.4224,-1.6256 -4.1148,-1.6256 -2.9972,0 -4.7752,1.8796 -1.778,1.8288 -1.778,5.4864 v 13.5128 h -7.9248 v -27.3304 h 7.5692 v 3.2004 q 1.5748,-1.7272 3.9116,-2.6416 2.3368,-0.9652 5.1308,-0.9652 z"
           inkscape:connector-curvature="0" />
        <path
           id="path856"
           style="font-style:normal;font-variant:normal;font-weight:bold;font-stretch:normal;font-size:50.79999924px;font-family:Montserrat;-inkscape-font-specification:'Montserrat, Bold';font-variant-ligatures:normal;font-variant-caps:normal;font-variant-numeric:normal;font-feature-settings:normal;text-align:center;writing-mode:lr-tb;text-anchor:middle;fill:#fafafa;fill-opacity:1;stroke-width:0.26458332"
           d="m 246.37304,66.98531 v 37.6936 h -7.5692 v -3.1496 q -2.9464,3.556 -8.5344,3.556 -3.8608,0 -7.0104,-1.7272 -3.0988,-1.7272 -4.8768,-4.927601 -1.778,-3.2004 -1.778,-7.416799 0,-4.2164 1.778,-7.4168 1.778,-3.2004 4.8768,-4.9276 3.1496,-1.7272 7.0104,-1.7272 5.2324,0 8.1788,3.302 v -13.2588 z m -14.732,31.597599 q 2.9972,0 4.9784,-2.032 1.9812,-2.0828 1.9812,-5.537199 0,-3.4544 -1.9812,-5.4864 -1.9812,-2.0828 -4.9784,-2.0828 -3.048,0 -5.0292,2.0828 -1.9812,2.032 -1.9812,5.4864 0,3.454399 1.9812,5.537199 1.9812,2.032 5.0292,2.032 z"
           inkscape:connector-curvature="0" />
      </g>
    </g>
  </g>
</svg>
