<?xml version="1.0" encoding="UTF-8" standalone="no"?>
<svg
   xmlns:dc="http://purl.org/dc/elements/1.1/"
   xmlns:cc="http://creativecommons.org/ns#"
   xmlns:rdf="http://www.w3.org/1999/02/22-rdf-syntax-ns#"
   xmlns:svg="http://www.w3.org/2000/svg"
   xmlns="http://www.w3.org/2000/svg"
   xmlns:sodipodi="http://sodipodi.sourceforge.net/DTD/sodipodi-0.dtd"
   xmlns:inkscape="http://www.inkscape.org/namespaces/inkscape"
   id="svg2"
   viewBox="0 0 746.49 766.28"
   version="1.1"
   sodipodi:docname="logoInTheMaking.svg"
   inkscape:version="0.92.3 (2405546, 2018-03-11)">
  <defs
     id="defs12" />
  <sodipodi:namedview
     pagecolor="#ffffff"
     bordercolor="#666666"
     borderopacity="1"
     objecttolerance="10"
     gridtolerance="10"
     guidetolerance="10"
     inkscape:pageopacity="0"
     inkscape:pageshadow="2"
     inkscape:window-width="1920"
     inkscape:window-height="1017"
     id="namedview10"
     showgrid="false"
     inkscape:zoom="1.4142136"
     inkscape:cx="-13.762863"
     inkscape:cy="703.44645"
     inkscape:window-x="1912"
     inkscape:window-y="-8"
     inkscape:window-maximized="1"
     inkscape:current-layer="svg2"
     inkscape:snap-page="false"
     showguides="true"
     inkscape:snap-midpoints="true"
     inkscape:snap-smooth-nodes="true"
     inkscape:snap-intersection-paths="true" />
  <metadata
     id="metadata7">
    <rdf:RDF>
      <cc:Work>
        <dc:format>image/svg+xml</dc:format>
        <dc:type
           rdf:resource="http://purl.org/dc/dcmitype/StillImage" />
        <cc:license
           rdf:resource="http://creativecommons.org/licenses/publicdomain/" />
        <dc:publisher>
          <cc:Agent
             rdf:about="http://openclipart.org/">
            <dc:title>Openclipart</dc:title>
          </cc:Agent>
        </dc:publisher>
        <dc:title />
        <dc:date>2012-01-14T06:28:58</dc:date>
        <dc:description>Différentes poistions en escalade</dc:description>
        <dc:source>http://openclipart.org/detail/167045/escalade-by-cyrille</dc:source>
        <dc:creator>
          <cc:Agent>
            <dc:title>cyrille</dc:title>
          </cc:Agent>
        </dc:creator>
        <dc:subject>
          <rdf:Bag>
            <rdf:li>climb</rdf:li>
            <rdf:li>clip art</rdf:li>
            <rdf:li>clipart</rdf:li>
            <rdf:li>escalade</rdf:li>
            <rdf:li>montagne</rdf:li>
            <rdf:li>mountain</rdf:li>
            <rdf:li>silhouette</rdf:li>
            <rdf:li>sport</rdf:li>
          </rdf:Bag>
        </dc:subject>
      </cc:Work>
      <cc:License
         rdf:about="http://creativecommons.org/licenses/publicdomain/">
        <cc:permits
           rdf:resource="http://creativecommons.org/ns#Reproduction" />
        <cc:permits
           rdf:resource="http://creativecommons.org/ns#Distribution" />
        <cc:permits
           rdf:resource="http://creativecommons.org/ns#DerivativeWorks" />
      </cc:License>
    </rdf:RDF>
  </metadata>
  <flowRoot
     xml:space="preserve"
     id="flowRoot826"
     style="font-style:normal;font-variant:normal;font-weight:normal;font-stretch:normal;font-size:40px;line-height:1.25;font-family:sans-serif;-inkscape-font-specification:'sans-serif, Normal';font-variant-ligatures:normal;font-variant-caps:normal;font-variant-numeric:normal;font-feature-settings:normal;text-align:center;letter-spacing:0px;word-spacing:0px;writing-mode:lr-tb;text-anchor:middle;fill:#000000;fill-opacity:1;stroke:none"><flowRegion
       id="flowRegion828"><rect
         id="rect830"
         width="422.45294"
         height="112.50106"
         x="89.541656"
         y="91.273712" /></flowRegion><flowPara
       id="flowPara832" /></flowRoot>  <g
     id="g1366">
    <path
       d="m 24.720703,22.296875 c 0.0506,0 0.09375,0.160639 0.09375,0.355469 0,0.19485 -0.990279,0.480505 -2.199219,0.634765 -1.20887,0.15428 -2.627573,0.338457 -3.152343,0.410157 -0.52477,0.07173 -1.676287,0.404874 -2.560547,0.740234 -0.88434,0.33534 -1.800096,0.614141 -2.035156,0.619141 -0.234971,0.0048 -0.813577,0.33921 -1.285157,0.74414 -0.47165,0.40489 -1.039105,0.659053 -1.259765,0.564453 -0.22058,-0.0946 -1.186505,0.21732 -2.146485,0.69336 -1.6445639,0.81538 -1.7797829,0.997938 -2.3457029,3.142578 -0.330299,1.25198 -0.5996104,2.610801 -0.5996093,3.019531 -2e-7,0.40856 -0.4022178,2.757353 -0.8925782,5.220703 -0.49036,2.46303 -1.0517869,5.539608 -1.2480468,6.835938 -0.1962502,1.29633 -0.4471638,2.956793 -0.5585938,3.689453 -0.11143,0.73262 -0.7607994,2.486847 -1.4433594,3.898437 -1.35103,2.79378 -2.16784169,6.653121 -1.8007812,8.517578 0.27767,1.456531 0.036885,2.903261 0.640625,4.125 1.75974,2.141691 2.6373439,8.40714 3.7402344,11 0.01676,0.108031 0.2410398,0.683194 0.5,1.277344 0.5464903,1.25363 0.012731,3.172868 -0.7871094,2.830078 -0.2545,-0.10913 -1.1394669,0.380331 -1.9667969,1.087891 l -1.5039063,1.285156 0.171875,2.451172 c 0.21147,3.02242 1.2000469,4.816406 2.6542969,4.816406 0.89655,0 1.0109725,0.177403 1.4140625,2.189453 0.2411504,1.203784 0.76153,3.003167 1.15625,4 0.667259,1.684811 0.7508288,1.761152 1.1992188,1.076172 0.43111,-0.65885 0.4824218,-0.520016 0.4824218,1.314454 0,1.461202 0.1515838,2.116292 0.5273438,2.277342 0.29012,0.12437 0.527344,0.46368 0.527344,0.75391 0,0.29021 0.276724,0.70272 0.615234,0.91601 0.48223,0.30386 0.774176,0.16776 1.347656,-0.63086 1.71761,-2.335115 5.50646,0.45737 4.13086,-5.107418 -1.27792,-3.45764 -0.125907,-4.135424 3.283203,-1.933594 1.38552,0.8949 2.993819,1.919924 3.574219,2.277344 1.5422,0.949626 2.107104,2.131371 2.753906,6.677738 0.175821,0.0639 0.326172,0.26722 0.326172,0.62695 0,0.25697 0.02247,0.45889 -0.05273,0.70508 -0.004,0.0131 -0.0082,0.0285 -0.01172,0.043 0.08188,-0.0125 0.165202,-0.0226 0.232422,0.004 0.213253,0.0804 0.344323,0.20246 0.404296,0.3711 0.03359,0.0395 0.06054,0.0937 0.08789,0.13671 0.01464,0.0231 0.02232,0.0501 0.03516,0.0742 0.01992,-0.0335 0.04281,-0.0566 0.07031,-0.0566 0.33753,0 1.698481,3.93188 1.550781,4.48047 -0.05287,0.19626 0.05243,0.46202 0.234375,0.58985 0.596277,0.58837 1.011582,1.4174 1.337891,2.34179 0.175936,0.33113 0.302781,0.73186 0.36914,1.20313 0.570882,2.18448 0.831941,4.61775 1.59961,5.94726 1.27475,0.89919 0.295117,17.24599 0.763671,19.71094 0.0699,2.17949 0.133072,3.73163 0.195313,5.00391 0.0035,0.0171 0.0084,0.0255 0.01172,0.0449 0.0015,0.0352 0.04009,0.69892 0.04029,0.73062 0.105583,1.48258 0.05952,1.04647 0.105583,1.48258 0,0 -0.05859,0.0781 0.106087,0.58562 0.03212,0.10503 0.204318,0.30691 0.223038,0.34161 0.01007,0.025 0.17399,0.23941 0.18126,0.26191 0.02388,0.0736 0.217248,0.33195 0.179688,0.34375 0.04823,0.0772 1.642214,2.26391 1.170073,0.40775 -0.08075,-0.31745 -0.973048,-0.51294 -1.097808,-0.95267 -0.0221,-0.0779 0.261339,-0.42645 0.235139,-0.89855 -0.04179,-0.0948 -0.05619,-0.0998 -0.06177,-0.25525 -0.09702,-2.01483 -0.475701,-6.31061 -0.550321,-10.99854 -0.10052,-6.30566 -0.2862,-11.76431 -0.41211,-12.13086 -0.25189,-0.80173 0.553625,-1.50303 0.236328,-2.13477 -1.432687,-3.05463 -2.356052,-9.82263 -4.382812,-13.10742 -1.28117,-3.47269 -1.410047,-4.31963 -0.498047,-3.26367 3.38699,3.92132 4.876953,5.71662 4.876953,5.875 0,0.10525 -0.332994,0.28924 -0.740234,0.4082 -0.92338,0.26967 -0.698152,1.20602 0.330078,1.375 0.42049,0.0691 0.946492,0.51137 1.169922,0.98242 0.87881,1.85364 1.384682,2.03516 5.669922,2.03516 2.23384,0 3.993556,0.0763 3.910156,0.16992 -0.08328,0.0936 0.319824,0.39129 0.896484,0.66211 0.57657,0.27081 1.488594,1.19915 2.027344,2.0625 0.70598,1.13127 1.397503,1.7103 2.47461,2.07422 0.82204,0.27773 1.49414,0.61667 1.49414,0.75195 0.43432,2.26304 4.311826,3.7986 5.566406,5.67969 0.25457,0.62417 0.797914,1.07756 1.464844,1.22656 1.18455,0.26465 1.3036,0.59434 0.53125,1.45703 -0.59715,0.66698 -0.350328,1.82422 0.388672,1.82422 0.26946,0 0.492179,0.13287 0.492188,0.29492 1.273279,1.60717 3.153528,2.13259 4.230468,4.02735 0.20781,0.54014 0.984713,1.45209 1.726563,2.02734 1.15128,0.89279 1.335112,1.23312 1.257812,2.32813 -0.08563,0.13153 -0.06729,0.1196 -0.01953,0.0664 -0.05427,0.182 0.276648,0.38668 0.791016,0.59766 0.82328,0.39869 2.054314,0.77158 3.076172,1.08398 -0.103257,-0.0546 -0.213627,-0.11528 -0.322266,-0.17382 0.744959,0.22994 1.42684,0.45247 1.664062,0.6289 0.133519,0.0661 0.195408,0.12036 0.113282,0.1543 l 9.316406,2.60937 39.970704,0.87696 L 67.658203,88.863281 62.15625,64.101562 c -7.56712,-17.590952 3.683915,-36.600513 3.828125,-36.339843 0.11956,0.21605 -7.459181,-1.837891 -7.664063,-1.837891 -0.204878,0 -3.61914,-0.975374 -3.61914,-0.677734 l -4.695313,-0.101563 c -0.29003,0 -6.412109,-0.660912 -6.412109,-0.476562 0,0.18442 -7.042108,-0.352219 -7.960938,-0.449219 -1.320672,-0.139492 -5.05306,-0.394776 -6.283203,0.224609 -0.256019,-0.03854 -0.533987,-0.05429 -0.601562,-0.0078 -1.118306,-0.619785 -4.065216,-2.138672 -4.027344,-2.138672 z M 71.447266,143.32422 c 0.01058,-0.0471 -0.03954,-0.0994 -0.113282,-0.1543 -0.221957,-0.10987 -0.765259,-0.27882 -1.341796,-0.45508 0.707188,0.37387 1.31117,0.66885 1.455078,0.60938 z M 30.128906,24.578125 c -0.152033,0.05093 -3.123832,0.385697 -1.078125,0.07813 0.147837,0.06036 0.147216,0.04487 0.07422,-0.0039 0.330367,-0.0028 0.496027,-0.01922 0.576172,-0.04297 0.09666,-0.0053 0.447841,-0.03799 0.427734,-0.03125 z m -19.908203,10.273437 1.408203,0.832032 c 0.7708,0.48121 1.32621,3.900974 -0.18164,4.646484 -6.5e-4,-0.03849 -2.146196,-3.000007 -1.339844,-3.998047 z m 6.888672,3.806641 c 0.09647,0.01746 0.213971,0.07597 0.361328,0.164063 0.36828,0.22022 0.865859,0.356987 1.105469,0.304687 0.78284,-0.17052 3.096083,0.486692 2.908203,0.826172 -0.22261,0.40231 1.468203,0.924939 1.939453,0.599609 0.18446,-0.12739 0.335938,-0.05605 0.335938,0.158204 0,0.401429 0.906762,0.822496 2.232422,1.035156 1.317368,0.21138 7.081026,2.255888 7.185546,2.548828 0.05514,0.15448 0.4778,0.199762 0.9375,0.101562 0.59983,-0.12811 0.950201,0.06242 1.244141,0.675782 0.22513,0.46998 0.727514,1.239204 1.115234,1.708984 1.93843,2.34883 2.927151,3.408203 3.181641,3.408203 0.15437,0 0.279297,0.353046 0.279297,0.785156 0,0.94907 -1.183722,2.357422 -1.982422,2.357422 -1.01285,0 -3.625543,1.677256 -3.851563,2.472657 -0.260429,0.91651 0.106642,1.21307 2.582032,2.08789 1.01554,0.35889 1.845703,0.805708 1.845703,0.992188 0,0.18648 0.322247,0.339843 0.716797,0.339843 0.58633,0 0.63765,0.09618 0.27539,0.529297 -0.24368,0.29142 -0.726022,0.446243 -1.070312,0.345703 -0.3442,-0.10054 -0.625,0.0055 -0.625,0.234375 0,0.22889 -0.316295,0.346872 -0.703125,0.263672 -0.38682,-0.08322 -0.703125,0.02579 -0.703125,0.242188 0,0.2164 -0.153997,0.287813 -0.341797,0.158203 -0.38325,-0.26454 -0.828634,1.351159 -0.865234,3.136719 -0.02253,1.0993 0.0882,1.202822 1.646484,1.539062 0.95697,0.20647 1.669922,0.574631 1.669922,0.863281 0,0.27713 0.276724,0.684077 0.615234,0.904297 0.48841,0.31775 0.307344,0.40311 -0.878906,0.41211 -0.99317,0.0079 -1.720059,0.265325 -2.167969,0.765625 -0.37072,0.41411 -0.763004,0.654013 -0.871094,0.533203 -0.417239,-0.46597 -1.2072,0.76555 -1.0625,1.65625 0.143392,0.8838 0.07293,0.92388 -1.345703,0.75 -2.35592,-0.28877 -11.389789,1.173055 -12.224609,1.978515 -0.6375,0.61502 -3.187729,1.092959 -3.730469,0.699219 -0.21399,-0.1552 -0.499505,-1.429624 -0.634765,-2.833984 C 15.845106,67.420634 14.66768,61.196017 13.875,58.966797 l -0.720703,-2.025391 0.794922,-1.019531 c 0.4366,-0.56092 0.980927,-1.019531 1.210937,-1.019531 0.23555,0 0.49835,-0.779103 0.59961,-1.783203 0.09906,-0.98101 0.456161,-2.126872 0.794922,-2.544922 0.81537,-1.00642 0.538775,-3.958727 -0.521485,-5.560547 -0.71997,-1.08779 -0.736128,-1.247173 -0.244141,-2.414063 0.2898,-0.68722 0.636072,-1.909433 0.769532,-2.714843 0.160192,-0.966728 0.26136,-1.278936 0.550781,-1.226563 z m 20.736328,41.992188 c 0.15606,-0.02977 0.266298,0.05974 0.376953,0.259765 0.15462,0.27941 0.406494,0.459691 0.558594,0.400391 0.15217,-0.05927 1.226159,0.375214 2.386719,0.964844 1.35266,0.68725 1.885108,1.12505 1.486328,1.21875 -0.34217,0.08041 -0.924039,0.805431 -1.292969,1.613281 l -0.669922,1.46875 1.117188,-0.128906 c 0.99495,-0.11582 1.030852,-0.088 0.326172,0.255859 -0.43522,0.21232 -0.794735,0.700887 -0.802735,1.085937 -0.01017,0.66344 -0.02957,0.665132 -0.36914,0.01367 -0.72403,-1.3883 -1.080273,-0.725997 -0.845703,1.570313 0.170878,1.67239 0.449488,2.482799 1.074218,3.119141 0.79943,0.81422 0.807419,0.870976 0.167969,1.097656 -0.37121,0.13163 -0.745331,0.540263 -0.832031,0.908203 -0.12977,0.55067 -0.169663,0.531486 -0.226563,-0.115235 -0.03766,-0.432119 -0.140315,-0.592175 -0.228515,-0.353515 -0.08825,0.23868 -0.5548,0.351037 -1.03711,0.248047 -0.66743,-0.14284 -0.82779,-0.363158 -0.667968,-0.925782 0.218949,-0.770469 -0.337294,-1.03103 -0.720704,-0.33789 -0.12151,0.21952 -0.369401,0.297115 -0.550781,0.171875 -0.18145,-0.12526 -0.422426,0.041 -0.535156,0.369141 -0.33745,0.982269 -1.008845,-0.07221 -1.115235,-1.75 -0.05205,-0.8209 0.05943,-1.598286 0.248047,-1.728516 0.18825,-0.13022 0.255478,-0.491048 0.148438,-0.802734 -0.10712,-0.311712 -0.01411,-2.11967 0.205078,-4.015626 0.31062,-2.687009 0.563084,-3.60129 1.146484,-4.15039 0.294715,-0.277355 0.496284,-0.42726 0.652344,-0.457031 z m -8.548828,1.691406 c 0.439639,-0.02388 0.706709,0.520731 0.978516,1.730469 0.13331,0.59293 0.359136,1.078125 0.503906,1.078125 0.14461,0 0.267391,0.485918 0.275391,1.080078 0.02342,2.23475 0.20597,3.668247 0.49414,3.867187 0.16381,0.11305 0.298828,0.980965 0.298828,1.927735 0,0.94675 -0.158152,1.82935 -0.351562,1.96289 -0.19342,0.13353 -0.351563,0.04614 -0.351563,-0.195312 0,-0.24143 -0.708258,-1.158783 -1.574219,-2.039063 -0.86596,-0.88028 -1.501909,-1.734204 -1.412109,-1.896484 0.0898,-0.16232 -0.269338,-0.50278 -0.798828,-0.75586 -1.37796,-0.658647 -3.117837,-2.42802 -3.404297,-3.46289 -0.26759,-0.9667 -0.136892,-1.060238 1.992188,-1.455078 0.71972,-0.13344 1.768391,-0.677301 2.332031,-1.207032 0.427462,-0.401758 0.753795,-0.62044 1.017578,-0.634765 z m 11.634766,15.378906 c 0.16112,0 0.292968,0.265754 0.292968,0.589844 0,0.32408 -0.131848,0.587887 -0.292968,0.587891 -0.16121,0 -0.292969,0.607919 -0.292969,1.349612 0,1.00343 0.179735,1.4121 0.703125,1.59765 0.79194,0.28076 0.928415,0.83287 0.265625,1.08203 -0.34593,0.13019 -0.342463,0.29776 0.02344,0.79297 0.39634,0.53636 0.273057,0.9638 -0.839843,2.91211 -0.71744,1.25579 -1.685564,2.68184 -2.152344,3.16797 -1.31641,1.35727 -0.356224,0.22852 -1.246094,0.19922 -1.23335,0.52875 -3.439647,-4.2086 -3.43164,-7.36914 0.0037,-1.55351 0.03004,-1.58284 2.199218,-2.60742 1.20675,-0.57004 2.707308,-1.159226 3.335938,-1.308596 0.62863,-0.14939 1.142578,-0.433923 1.142578,-0.632813 0,-0.19889 0.131759,-0.361328 0.292969,-0.361328 z m 1.77539,7.296877 c 0.12005,-0.0823 0.254128,0.92115 0.298828,2.22851 0.04985,1.46438 0.287788,2.63066 0.617188,3.03711 0.29394,0.36289 0.533203,0.77685 0.533203,0.92188 v 0.002 c 0,0.30471 -2.766422,0.30307 -3.451172,-0.006 -0.35567,-0.15902 -0.315639,-0.39778 0.175781,-1.04297 0.4424,-0.58058 0.466795,-0.68928 0.07813,-0.35547 -1.06523,0.9149 -0.954783,0.0242 0.285157,-2.30078 0.68483,-1.28404 1.34292,-2.40207 1.46289,-2.48437 z m -16.71289,0.66406 c 6.09e-4,0.01 -3.99e-4,0.0193 0,0.0293 0.01821,-10e-4 0.03653,-0.002 0.05469,-0.002 -0.01463,-0.006 -0.03517,-0.0175 -0.05469,-0.0273 z m 0.232421,0.27539 c 6.45e-4,0.002 0.0013,0.005 0.002,0.008 0.01283,0.002 0.02835,0.006 0.03711,0.006 -0.01578,-0.007 -0.02698,-0.01 -0.03906,-0.0137 z m 0.03906,0.0137 c 0.0012,4.9e-4 0.0027,5.2e-4 0.0039,0.002 1.62e-4,-0.001 0.0018,-0.003 0.002,-0.004 -0.003,1.2e-4 -0.0027,0.002 -0.0059,0.002 z"
       style="fill:#000000;stroke-width:0.37168595"
       id="path3919"
       inkscape:connector-curvature="0"
       sodipodi:nodetypes="cscccccccccccccccccccccscccscsccccccsccccccscccccccccccccccccccccccscccsccccccccscccccccccccccccsccscccccccccccccccccccccccccscccccsssccssccscscccsccccccccccccsccccsccccccccccccccccccccccscccccccccsccscssccsccccscscccccccccscccccssccccccccccccccccccc" />
    <path
       sodipodi:nodetypes="ccccscccccccsccsccccccccccccccccccccscsscccccccsccccssscccccsccccsccccccccccccccccccscscccccc"
       style="stroke-width:0.36746365"
       id="path3936"
       d="m 1034.9938,325.45785 c -1.3117,-0.94227 -0.9239,-1.70764 1.6683,-3.29065 0.9973,-0.60895 2.7175,-2.83776 3.8226,-4.95276 1.1055,-2.11511 3.6243,-6.77509 5.5976,-10.35573 1.973,-3.58044 3.5872,-6.97178 3.5872,-7.53625 0,-0.56454 1.273,-3.24283 2.8291,-5.95162 1.5561,-2.70896 2.7192,-4.9938 2.5852,-5.07737 -3.975,-2.4724 -5.4059,-3.49005 -5.4097,-3.84755 0,-0.24124 -1.2555,-0.6417 -2.7845,-0.88994 -1.9558,-0.31749 -3.2414,-0.16095 -4.3354,0.52809 -0.8558,0.53868 -4.1279,1.81645 -7.2719,2.83952 -6.1461,1.9999 -7.809,1.80857 -8.2359,-0.94747 -0.1215,-0.78256 -0.527,-1.42284 -0.902,-1.42284 -0.3753,0 -0.5036,0.27751 -0.2855,0.61669 0.217,0.33915 0.081,0.80388 -0.3043,1.03274 -0.3852,0.22883 -0.7003,0.13094 -0.7003,-0.21753 0,-0.34845 -1.0083,-0.5896 -2.2402,-0.5359 -1.9906,0.0868 -2.2251,-0.0869 -2.1024,-1.5584 0.076,-0.91084 -0.027,-2.76347 -0.2293,-4.11701 l -0.3666,-2.46087 -4.5965,3.31341 c -2.528,1.82238 -4.2829,1.56661 -7.9364,2.43037 -5.2251,1.29774 -11.08553,0.20948 -11.08553,0.20948 -1.4542,0.0657 -5.91411,-1.29494 -5.56251,-0.002 0.2794,1.02611 -3.50835,-1.86443 -5.24575,-0.28754 -14.66352,3.30325 2.51838,-3.53168 -11.95688,0.48 l -9.04867,0.009 -0.12535,-7.67189 c 41.64769,-8.58977 72.64069,-32.58548 72.64069,-32.58548 0,0 11.697,-27.53532 3.3042,-47.70963 l 37.9111,0.31048 0.7615,3.88621 c -7.5081,6.88461 2.015,11.17086 0.5831,12.07503 -2.8365,1.78709 2.3826,-1.73505 0.4819,8.02658 l -1.9269,2.62615 c -1.4431,0.27737 0.3301,3.63257 -2.4166,6.43152 -2.2615,2.30446 0.1394,6.01619 -0.3698,6.01619 -0.7297,0 -0.6983,0.31116 0.1481,1.47224 0.5899,0.80974 1.0728,2.16594 1.0728,3.01381 0,0.84787 0.5274,2.49556 1.1719,3.66168 0.8923,1.61384 1.2391,4.33422 1.4527,11.39391 0.1558,5.10078 0.5948,9.64609 0.9792,10.1007 0.3844,0.45463 1.407,3.23892 2.2728,6.1872 1.6201,5.51791 1.4503,8.80173 -0.5159,9.96921 -0.6916,0.4108 -0.6941,0.68327 -0.025,1.33831 1.1718,1.12609 1.0741,2.87089 -0.2194,3.90159 -0.8928,0.71192 -1.5948,0.61366 -4.1545,-0.58133 -1.6939,-0.7909 -3.3323,-1.43805 -3.6405,-1.43805 -0.3084,0 -0.9805,1.22261 -1.4937,2.71689 -0.8325,2.42393 -2.7988,4.86483 -5.58,6.92677 -2.9405,2.18007 -9.2838,9.94722 -9.9833,12.2242 -0.8088,2.63223 -5.874,9.37305 -9.4012,12.51132 -1.0427,0.92763 -1.8958,2.36541 -1.8958,3.19512 0,1.06694 -0.4034,1.50854 -1.3784,1.50854 -0.7758,0 -1.3786,0.44164 -1.3786,1.01005 0,1.96626 -5.6165,3.02998 -7.7828,1.47408 z m -3.5912,-46.188 c 0.3793,-0.27196 2.1564,-1.02158 3.9492,-1.66587 1.793,-0.64426 4.257,-1.87853 5.4762,-2.74278 1.2188,-0.86425 2.7626,-1.57137 3.4301,-1.57137 1.4338,0 10.1784,3.89113 11.4924,5.1141 2.7758,2.58346 5.5032,-1.18607 5.0179,-6.93576 -0.073,-0.88973 -1.8722,-1.15395 -2.2524,-0.3312 -0.1262,0.27324 -1.6534,1.14028 -3.3928,1.92676 -4.6827,2.11679 -5.1089,1.57573 -5.1089,-6.48476 0,-6.83382 -0.5586,-8.26318 -2.6082,-6.6764 -0.4611,0.35703 -3.6302,2.13263 -7.0424,3.9459 -3.4119,1.81316 -7.2147,4.20527 -8.45,5.31547 -1.2356,1.11032 -3.9498,2.94254 -6.0316,4.07163 -4.1707,2.26199 -4.6188,3.42215 -2.2539,5.84102 1.3039,1.33389 1.9441,1.50128 4.3085,1.12705 1.5269,-0.24175 3.0868,-0.66203 3.4659,-0.93397 z m 23.7815,-11.37806 c 0,-0.78419 2.1153,-2.60517 5.3147,-4.57557 1.8043,-1.11133 2.4839,-1.22311 3.6841,-0.60585 1.3483,0.6934 1.4296,0.62716 0.9689,-0.79049 -0.2767,-0.85102 -0.8108,-1.73753 -1.1875,-1.97007 -0.3768,-0.23252 -0.4877,-0.72915 -0.247,-1.10365 0.2415,-0.37449 0.1183,-1.49284 -0.2759,-2.48518 -0.8684,-2.19515 0.4353,-3.91889 3.394,-4.48769 2.937,-0.56446 4.6938,0.14637 5.609,2.26928 1.1734,2.72274 1.8195,2.40212 2.6491,-1.31439 1.0912,-4.88933 -0.4191,-12.65974 -2.4603,-12.65974 -0.7692,0 -0.905,-0.48132 -0.5606,-1.98728 0.2496,-1.09299 0.2095,-1.98728 -0.089,-1.98728 -0.7819,0 -5.7707,5.53737 -5.7707,5.53737 0,0 -3.0202,3.8036 -10.2396,10.78402 l -3.6916,3.56911 0.4954,6.11842 c 0.272,3.36523 0.6364,6.34716 0.8093,6.62633 0.4051,0.6541 1.5977,-0.0456 1.5977,-0.93734 z"
       inkscape:connector-curvature="0" />
    <path
       sodipodi:nodetypes="cscscccssscccsccccccccssscscccccccccccccsscscscccscsccsscccccsccccccccsccscccccccsccccscccsccccccccscsssccsccccsccsccccccccccccsscsccccccsccccccsccccsssccccccccssssccccccccsccccccccccccscccccccccsscsccccccccccc"
       style="stroke-width:0.36551136"
       id="path3949"
       d="m 163.16223,282.6203 c -0.75979,-0.84257 -1.36396,-1.89412 -1.36396,-2.37405 0,-0.47386 -0.41342,-1.83326 -0.9187,-3.02096 -0.50528,-1.18766 -0.9187,-2.40968 -0.9187,-2.71554 0,-0.30586 -0.40172,-1.33326 -0.89267,-2.28316 -1.25163,-2.42146 -2.32257,-4.83892 -2.61737,-5.90814 -0.13784,-0.49989 -0.97543,-2.19442 -1.86131,-3.7657 -0.88591,-1.57122 -1.61073,-3.00272 -1.61073,-3.18111 0,-0.17839 -0.14534,-0.32435 -0.3229,-0.32435 -0.34679,0 -0.79581,1.03239 -1.5813,3.63555 -0.47235,1.5654 -0.54864,1.63153 -1.76734,1.53246 -0.70057,-0.057 -1.67118,-0.38413 -2.15699,-0.72711 -0.48581,-0.34296 -1.19114,-0.80178 -1.56744,-1.01955 -0.3763,-0.21781 -0.57466,-0.50433 -0.44083,-0.63673 0.13384,-0.13241 -1.97137,-2.45215 -4.67836,-5.15485 -5.23987,-5.23192 -5.62425,-5.72454 -6.23574,-7.99095 -1.05543,-3.91112 -2.1016,-4.66623 -7.05227,-5.09159 -1.67426,-0.14382 -3.70601,-0.48123 -4.51483,-0.74979 -0.80882,-0.26857 -2.07085,-0.41467 -2.80452,-0.32463 -0.88584,0.1087 -1.48278,-0.0137 -1.7769,-0.36436 -0.28509,-0.33983 -0.80857,-0.45568 -1.46878,-0.32505 -0.5726,0.11329 -1.13624,0.0262 -1.27581,-0.19721 -0.13751,-0.2201 -0.50896,-0.40017 -0.82543,-0.40017 -0.8226,0 -4.89334,-1.85595 -4.89334,-2.23099 0,-0.17265 -0.25036,-0.31391 -0.55636,-0.31391 -0.45618,0 -0.52207,0.39278 -0.36586,2.18133 0.11734,1.34334 0.0487,2.18133 -0.17859,2.18133 -0.203,0 -0.35748,0.3681 -0.34326,0.818 0.0246,0.78052 0.0403,0.7847 0.34164,0.0909 0.34183,-0.78699 0.33033,-0.8541 0.52924,3.09022 0.0454,0.8998 0.20325,2.045 0.35087,2.54488 l 0.26841,0.90889 -0.74981,-0.90889 -0.7498,-0.90888 -0.008,1.54511 c -0.009,1.60578 0.24144,1.86154 1.06576,1.09066 0.40103,-0.37504 0.41161,-0.31151 0.0606,0.36356 -0.4897,0.94164 -1.21701,1.04798 -1.98317,0.28998 -0.29354,-0.29042 -0.61214,-0.45041 -0.70805,-0.35556 -0.0959,0.0949 -0.0945,-0.64913 0.004,-1.65331 0.11814,-1.21594 0.039,-1.82577 -0.23684,-1.82577 -0.26675,0 -0.41422,-0.88111 -0.41422,-2.47498 v -2.47497 h -1.84548 c -1.13764,0 -2.03215,-0.20112 -2.33223,-0.52436 -0.51058,-0.55002 -2.069421,-5.22356 -2.069421,-6.20443 0,-0.81524 1.031801,-1.58903 2.964781,-2.22347 l 1.6786,-0.55093 0.47493,1.59139 c 0.2612,0.87526 0.60656,1.59139 0.76748,1.59139 0.16088,0 0.206,0.3272 0.10032,0.72711 -0.10573,0.39991 -0.0268,0.72711 0.17528,0.72711 0.5653,0 0.85424,-1.5715 0.34749,-1.89008 -0.30648,-0.19268 -0.24481,-0.28185 0.19756,-0.28568 0.35369,-0.003 0.64308,-0.16916 0.64308,-0.36912 0,-0.19995 -0.18462,-0.36355 -0.41032,-0.36355 -0.23269,0 -0.32507,-0.32251 -0.2134,-0.745 0.14005,-0.52988 -0.15426,-1.06118 -1.01931,-1.83995 -0.72474,-0.65244 -1.15362,-1.34308 -1.06127,-1.709 0.18675,-0.74002 -1.81512,-2.9573 -3.35129,-3.7119 -0.60208,-0.29574 -3.153296,-1.88743 -5.669455,-3.53706 -2.516086,-1.64964 -4.702984,-2.99933 -4.85953,-2.99933 -0.156693,0 -0.565659,0.58532 -0.908773,1.30069 -0.343151,0.71536 -1.187873,1.73786 -1.877225,2.27222 -0.78949,0.61197 -1.777014,2.04794 -2.668258,3.87986 -1.131061,2.32497 -1.759816,3.1486 -3.134221,4.10563 -1.30598,0.90939 -1.654647,1.34642 -1.450366,1.81777 0.460491,1.06246 0.624423,2.57183 0.382769,3.52434 -0.311327,1.22718 -1.007886,1.1688 -0.874748,-0.0733 0.07515,-0.70101 -0.08048,-1.02465 -0.537327,-1.11732 -0.800257,-0.16235 -0.884813,1.23504 -0.138943,2.29596 0.335287,0.47691 0.400808,0.99113 0.195572,1.53511 -0.376849,0.99902 -0.564667,1.0076 -2.077795,0.0949 -0.938024,-0.5658 -1.194303,-0.96466 -1.194303,-1.8585 0,-1.14654 0.880293,-4.25068 1.587652,-5.59838 0.209903,-0.39991 1.083399,-2.13862 1.941129,-3.86387 0.857734,-1.72514 2.037633,-3.68826 2.621996,-4.36266 1.466716,-1.69242 3.402921,-4.9229 3.407257,-5.68491 0.0051,-0.89733 1.74361,-4.48336 2.624565,-5.4137 0.646908,-0.68316 0.680827,-0.89304 0.264327,-1.636 -0.262784,-0.46877 -0.489518,-0.93412 -0.503849,-1.03409 -0.0954,-0.66582 -1.035847,-1.81778 -1.484024,-1.81778 -0.427046,0 -0.496315,-0.35547 -0.332457,-1.70609 0.113881,-0.93837 0.28079,-1.82418 0.370932,-1.96851 0.09018,-0.14432 -0.0059,-0.3184 -0.213431,-0.38682 -0.587193,-0.19364 0.4391,-2.07961 1.291465,-2.37336 0.404226,-0.13929 0.853247,-0.22274 0.997813,-0.18544 0.144566,0.0373 0.723344,-0.11696 1.286173,-0.34281 0.56283,-0.22586 1.573835,-0.37392 2.246688,-0.32902 0.744069,0.0496 1.499935,-0.166 1.929259,-0.55039 0.396105,-0.35463 0.705889,-0.45095 0.705889,-0.21949 0,0.22688 0.658815,0.74503 1.464032,1.15145 1.6348,0.82512 2.089554,1.85969 1.496114,3.40386 -0.454717,1.18319 -0.178925,1.82675 1.785723,4.16743 1.3055,1.55529 1.33589,1.56819 3.33861,1.41535 4.14773,-0.31652 6.68737,-2.02751 13.24097,-8.92018 l 1.75588,-1.84679 -1.71347,-2.46803 c -1.14991,-1.65629 -2.01474,-2.52886 -2.62938,-2.6529 -1.19206,-0.24061 -2.56955,-1.15207 -2.56955,-1.7002 0,-0.23735 -0.49537,-0.81506 -1.10079,-1.28383 -1.13411,-0.87809 -2.574,-4.17252 -2.574,-5.88923 0,-0.48952 -0.41341,-1.37612 -0.91869,-1.97021 -0.50528,-0.59409 -0.9187,-1.23569 -0.9187,-1.42575 0,-0.19009 -0.35094,-0.65728 -0.77989,-1.03817 -0.42892,-0.38094 -1.27155,-1.55147 -1.87249,-2.60124 -0.6009,-1.04977 -1.21587,-1.90866 -1.36658,-1.90866 -0.77982,0 -3.281134,-6.22661 -5.54965,-13.8151 -0.448323,-1.49967 -1.563215,-4.11726 -2.477463,-5.81688 -0.914286,-1.69962 0.80926,1.49967 0,0 -0.80926,-1.49966 -2.676204,-2.59333 -2.846714,-2.65997 -0.17051,-0.0667 -6.98232,-2.00729 -3.329502,-4.28919 0.508758,-0.31782 -3.410144,-3.808 -3.410144,-3.808 -0.188223,-0.11509 -6.207394,-2.17069 -6.417701,-2.55948 -0.377878,-0.69857 4.77143,-0.49846 60.006254,-0.49846 h 51.8291 v 139.96875 h -24.8327 l -1.36396,-1.51253 z m -14.49774,-25.75061 c 0.92435,-1.06802 0.46559,-3.88495 -0.82918,-5.09196 -1.35199,-1.26022 -8.96132,-7.59176 -9.93293,-8.26506 -0.86376,-0.59856 -0.72617,-0.31889 3.84088,7.80698 3.26229,5.80453 5.29242,7.43253 6.92145,5.5504 z m 1.59746,-2.03271 c -0.1227,-0.31629 -0.22306,-0.6435 -0.22306,-0.72711 0,-0.0836 -0.14989,-0.15205 -0.33308,-0.15205 -0.18319,0 -0.24658,0.3272 -0.14089,0.72712 0.10572,0.39991 0.35598,0.72711 0.55614,0.72711 0.20017,0 0.26356,-0.25878 0.14089,-0.57508 z m -4.86063,-6.05974 c -0.1492,-0.24994 -0.62942,-0.94524 -1.06719,-1.54511 -0.43778,-0.59987 -1.6707,-2.80846 -2.73984,-4.90799 -2.53123,-4.97053 -2.44983,-4.88001 -3.58854,-3.99402 -0.5102,0.39704 -1.13312,0.72187 -1.38429,0.72187 -0.25117,0 -0.65477,0.23614 -0.89686,0.52476 -0.35962,0.42867 -0.082,0.87831 1.5168,2.45611 1.7622,1.73913 8.03748,7.16203 8.3175,7.18821 0.0624,0.006 -0.008,-0.19396 -0.15773,-0.4439 z m -37.18878,-6.89301 c -0.2637,-0.26087 -0.43483,-0.28233 -0.43483,-0.0545 0,0.48527 0.43458,0.91521 0.67983,0.67258 0.1044,-0.10331 -0.006,-0.38144 -0.245,-0.61805 z m -0.69585,-1.73899 c 0.10568,-0.39991 0.0423,-0.72711 -0.14089,-0.72711 -0.18319,0 -0.33309,0.3272 -0.33309,0.72711 0,0.39991 0.0634,0.72711 0.14089,0.72711 0.0775,0 0.22736,-0.3272 0.33309,-0.72711 z m -0.5054,-1.81778 c -0.0184,-0.83239 -0.0468,-0.8477 -0.33602,-0.18177 -0.1737,0.39991 -0.32492,1.05431 -0.33602,1.45422 -0.0165,0.60012 0.042,0.63186 0.33602,0.18178 0.1959,-0.29994 0.34712,-0.95434 0.33602,-1.45423 z m 20.97234,-1.72688 c -0.004,-0.14997 -0.22541,-0.89733 -0.49407,-1.66079 -0.49999,-1.4206 -5.15866,-6.42839 -5.98034,-6.42839 -0.3835,0 -1.97189,2.72812 -1.97189,3.38677 0,0.13683 0.46303,0.24878 1.02894,0.24878 1.27986,0 1.91089,0.59521 1.91089,1.80243 0,0.80942 0.32128,1.05606 2.48048,1.90394 2.73205,1.07285 3.03426,1.14745 3.02614,0.74721 z m 7.79862,-2.04598 c 0.74929,-0.82429 1.36945,-1.79426 1.37804,-2.15552 0.008,-0.36125 -0.67799,-1.9897 -1.5258,-3.61876 -1.11544,-2.14334 -1.56178,-3.45908 -1.61499,-4.76075 -0.0497,-1.21627 -0.26455,-1.90445 -0.66341,-2.12527 -0.32445,-0.17963 -0.58988,-0.6203 -0.58988,-0.97927 0,-0.35899 -0.32452,-0.94325 -0.72114,-1.29833 -0.39661,-0.3551 -0.90072,-1.18399 -1.12022,-1.84199 -0.21953,-0.658 -0.63911,-1.28746 -0.93251,-1.39885 -0.69986,-0.2657 -0.69894,2.00795 0.004,9.85198 0.75227,8.3934 1.48127,10.50747 3.4644,10.04757 0.52744,-0.12227 1.57207,-0.89674 2.32136,-1.72099 z m -9.83261,-3.95257 c -0.73069,-2.26964 -2.15849,-5.71291 -2.37045,-5.71691 -0.10106,-0.002 -0.55985,0.68196 -1.01953,1.51937 l -0.83579,1.52257 2.11046,2.10997 c 1.16075,1.16046 2.2235,2.10996 2.36163,2.10996 0.1381,0 0.0272,-0.6953 -0.24628,-1.54511 z m -11.75562,-7.88188 c 0.11542,-0.18482 -0.0697,-0.38933 -0.41143,-0.45444 -0.57481,-0.10954 -0.57224,-0.16697 0.0342,-0.76696 0.36726,-0.36335 0.93784,-0.55995 1.29742,-0.44703 0.41646,0.13077 1.14484,-0.26056 2.07427,-1.1144 0.78783,-0.72377 2.5948,-2.09833 4.01543,-3.05456 1.42067,-0.95622 2.80518,-2.0034 3.07667,-2.32704 0.31728,-0.37821 1.06833,-0.58841 2.10227,-0.58841 1.08652,0 1.60867,-0.15559 1.60867,-0.47935 0,-1.37446 -1.21165,-4.21433 -2.19623,-5.14758 -0.61108,-0.57922 -1.11107,-1.33159 -1.11107,-1.67192 0,-1.00883 -1.20312,-2.10382 -2.43322,-2.21456 -0.85935,-0.0773 -1.55061,0.21874 -2.75608,1.18047 -0.88497,0.70606 -2.14306,1.65152 -2.79578,2.10109 -0.65271,0.44957 -2.17455,2.01333 -3.38182,3.47504 -1.20732,1.46171 -2.77465,2.92975 -3.483,3.26229 -0.70835,0.33255 -1.38528,0.76052 -1.50434,0.9511 -0.29321,0.46935 0.67211,3.19125 1.91945,5.41224 0.81587,1.45281 1.24409,1.84821 2.12428,1.96157 0.60633,0.0781 1.21668,0.16816 1.35636,0.20016 0.13964,0.032 0.34837,-0.093 0.46383,-0.27786 z"
       inkscape:connector-curvature="0" />
    <path
       style="stroke-width:0.3103117"
       sodipodi:nodetypes="cccccccscccsccccccccssscscccccccsscccccscccccccscccccccccsccccccscccscccccccsccscccccccccccccccccccccccccccccccccccccscsccccccccccccccccc"
       id="path3962"
       d="m 1031.1343,152.19646 -13.4589,-29.16948 0.248,-41.280185 14.2342,-12.405142 1.7366,3.272008 c 0.7579,1.66148 1.4769,3.61728 1.5975,4.346344 0.2312,1.39493 1.4606,4.62943 1.7018,4.47737 0.078,-0.0493 0.8998,1.04822 1.8272,2.43823 1.0888,1.632 2.0676,2.80878 2.7622,3.32173 0.8725,0.64421 1.5362,1.54795 3.5073,4.77599 2.349,3.84697 2.4226,4.01414 2.1754,4.94334 -0.1409,0.52909 -0.1341,1.14943 0.015,1.3786 0.1489,0.22936 0.2357,0.64535 0.1923,0.92491 -0.1949,1.262085 4.0024,3.429445 11.2649,5.817145 1.6469,0.54143 3.746,1.50663 4.6648,2.14476 0.9186,0.63816 1.9895,1.13204 2.3794,1.09774 0.3901,-0.0342 1.7763,0.36909 3.0807,0.89666 2.379,0.96241 5.4004,1.43456 7.6701,1.19895 0.6684,-0.0697 1.2062,-0.25586 1.1946,-0.41418 -0.065,-0.90687 -3.5054,-3.34388 -4.486,-3.17838 -0.4924,0.0792 -1.3456,-0.94251 -0.9811,-1.17786 0.3591,-0.23158 0.1722,-3.03373 -0.2453,-3.67565 -0.3174,-0.48826 -0.2512,-0.69682 0.3432,-1.08046 0.4702,-0.30301 0.7183,-0.74657 0.6858,-1.224645 -0.028,-0.41217 0.039,-0.80727 0.1482,-0.87789 0.1097,-0.0706 0.4654,-0.61417 0.7909,-1.20777 2.0814,-2.74249 5.3325,-2.45047 7.6273,-1.04786 2.039,1.28455 3.3709,4.467845 2.5602,6.119275 -0.57,1.16104 -0.288,1.52362 1.955,2.51539 3.299,1.45882 13.2581,8.50734 15.0711,10.66656 0.9089,1.0825 0.9118,1.1117 0.3842,3.97846 -0.6288,3.41629 -1.66,6.61795 -2.7376,8.49946 -0.8038,1.40341 -0.7161,2.03777 0.3065,2.21841 0.3258,0.0575 0.6974,0.26634 0.826,0.46408 0.4085,0.62881 4.2712,2.90506 5.2158,3.07417 1.096,0.19595 0.9154,0.37756 -0.5778,0.58127 -1.1016,0.14968 -1.1084,0.15994 -0.6556,0.85606 0.6577,1.4263 -0.4339,3.7574 -2.0389,4.16234 -1.6005,0.63054 -3.5746,0.45372 -4.241,-1.0904 -0.2477,-0.58662 -0.5104,-0.90254 -0.6631,-0.80397 -0.1399,0.0906 -0.2656,0.014 -0.2787,-0.17027 -0.043,-0.59165 -0.8283,-0.22091 -1.1998,0.56618 -0.1982,0.41967 -0.2677,0.7095 -0.1547,0.64424 0.1138,-0.0648 0.2194,0.0922 0.2429,0.34589 0.055,0.80663 0.5262,1.59333 0.7,1.17003 0.1071,-0.26014 0.2049,-0.20342 0.2998,0.17374 0.083,0.32992 0.27,0.48787 0.4535,0.38552 0.172,-0.0957 0.1538,0.0658 -0.04,0.35872 -0.279,0.4219 -0.5597,0.42037 -1.3457,-0.007 -0.7802,-0.42391 -0.9851,-0.42601 -0.955,-0.01 0.021,0.29113 -0.066,0.61932 -0.1946,0.72891 -0.1083,0.67057 -0.9207,2.37406 -1.0474,2.57824 -1.6089,2.30471 -4.911,3.52717 -7.5737,3.72233 -2.8139,-0.20336 -6.1434,-0.40881 -8.3967,-0.43159 -0.7455,-0.0443 -0.7895,0.007 -0.5598,0.65317 1.9965,2.74201 3.9759,6.02057 6.0477,8.3195 0.7235,0.78865 0.8881,0.83582 1.341,0.3839 0.2837,-0.28355 0.5856,-0.40842 0.6705,-0.27788 0.33,0.50712 0.4844,0.62013 0.8591,0.63238 0.2714,0.009 0.3768,0.21257 0.3477,0.67412 -0.033,0.52924 -0.1329,0.61933 -0.5011,0.45092 -0.3066,-0.14013 -0.2592,-0.0133 0.1415,0.379 2.5435,2.49026 2.5665,3.06516 0.1987,4.92064 -1.2869,1.00819 -1.7987,1.62044 -2.0228,2.4197 -0.165,0.58841 -0.56,1.23776 -0.8777,1.44278 -0.5644,0.36451 -0.5351,0.68411 0.2224,2.42146 0.1416,0.32611 0.3957,0.82212 0.5633,1.10314 0.1655,0.28226 0.161,0.50609 -0.014,0.50029 -0.3855,-0.0125 0.4878,1.94606 1.864,4.18059 0.7704,1.25081 -2.2035,1.79288 -2.3728,2.32231 -0.1331,0.41654 -3.1242,9.84486 -3.1242,9.84486 l 1.8034,11.03552 -2.1118,8.9197 z m 48.342,7.92986 c -0.016,-0.20838 0.1221,-0.37501 0.3048,-0.36911 0.1829,0.006 0.1998,-0.19314 0.038,-0.4419 -0.3898,-0.59883 -3.9023,-4.00216 -4.8935,-4.7409 -0.8647,-0.64431 -1.0545,-0.80928 -1.3627,-1.18462 -0.1153,-0.14064 -0.3355,-0.17453 -0.4891,-0.0754 -0.2005,0.12969 0.2974,0.96744 1.7701,2.97768 2.528,3.45251 4.7373,5.28079 4.6329,3.83393 z m 17.338,-41.1067 c 0.024,-1.06707 -0.072,-1.32793 -0.5359,-1.47291 -0.3102,-0.0969 -0.719,-0.33437 -0.9082,-0.52784 -0.6999,-0.49306 -1.4941,-0.8584 -2.0928,-1.28355 -0.6726,-0.48005 -1.2524,-0.85375 -1.2885,-0.83053 0.059,0.78189 -0.5749,14.32752 3.2034,14.77526 2.1625,-2.25848 1.5817,-8.07819 1.6218,-10.66053 z m -21.8766,15.10196 c -0.1217,0.0797 -0.1422,0.26623 -0.045,0.41648 0.1838,0.77983 -0.5117,2.95732 0.222,3.00826 0.7268,-0.56686 1.3658,-0.23109 2.1116,-0.3602 2.2758,-0.41297 -2.2019,-3.08978 -2.2889,-3.06411 z m -5.7431,2.41547 c 0.1366,-1.6366 0.134,-3.51228 -0.01,-4.16841 -0.292,-1.37205 0.069,-3.89495 0.8301,-5.79616 l 0.5247,-1.31159 1.3149,-0.10151 c 1.5587,-0.12079 4.8766,0.89186 7.7567,2.36755 2.0299,1.03999 2.6572,1.17458 2.2267,0.4775 -0.1234,-0.18917 -0.6605,-1.24233 -1.2039,-2.33359 -0.8551,-1.7173 -1.1522,-2.09153 -2.2087,-2.78266 -1.5769,-1.03153 -2.0998,-2.22799 -2.0024,-4.58258 l 0.074,-1.80231 -2.0029,-0.47282 c -2.7576,-0.65073 -5.658,-1.77988 -9.2653,-3.60751 -1.6804,-0.85133 -3.5908,-1.74907 -4.2452,-1.99508 -0.6543,-0.24615 -1.5475,-0.58583 -1.9848,-0.75498 -0.4372,-0.16928 -2.5216,-1.26899 -4.6318,-2.44416 -5.9026,-3.28682 -5.919,-3.2914 -5.5989,-1.68347 0.2361,1.18453 0.3405,2.3421 0.2881,3.18935 -0.022,0.35711 0.1487,0.79759 0.38,0.97858 0.2334,0.18294 0.3619,0.71052 0.2874,1.18829 -0.073,0.4724 -0.02,1.03166 0.1167,1.24266 0.1369,0.21134 0.1298,0.56231 -0.017,0.78066 -0.1465,0.21819 -0.062,0.71071 0.1871,1.09423 0.3069,0.47232 0.319,0.79415 0.037,0.99714 -0.2625,0.18888 -0.1,0.24051 0.4402,0.1396 0.9939,-0.18619 1.3457,0.23974 2.1613,2.6138 1.3565,3.94888 1.3855,4.00331 3.0054,5.65441 0.8618,0.87841 2.2302,2.48909 3.041,3.57901 0.8095,1.09079 1.709,2.1274 1.9963,2.30545 0.3155,0.1956 0.4707,0.4485 0.3919,0.63948 -0.071,0.17355 0.046,0.45371 0.2609,0.62241 0.2157,0.1684 0.4726,0.8203 0.5723,1.4477 0.1,0.62763 0.5622,1.8756 1.0278,2.77365 0.4657,0.89791 0.9081,2.12094 0.9832,2.71771 0.089,0.70203 0.4813,1.55805 1.1129,2.42519 l 0.9763,1.3399 1.4625,-0.88062 1.4623,-0.88066 0.2482,-2.97553 z"
       inkscape:connector-curvature="0" />
    <g
       id="text836"
       style="font-style:normal;font-variant:normal;font-weight:bold;font-stretch:normal;font-size:192px;line-height:1.25;font-family:sans-serif;-inkscape-font-specification:'sans-serif, Bold';font-variant-ligatures:normal;font-variant-caps:normal;font-variant-numeric:normal;font-feature-settings:normal;text-align:center;letter-spacing:0px;word-spacing:0px;writing-mode:lr-tb;text-anchor:middle;fill:#000000;fill-opacity:1;stroke:none"
       aria-label="FINLAND">
      <path
         id="path842"
         style="font-style:normal;font-variant:normal;font-weight:bold;font-stretch:normal;font-size:192px;font-family:sans-serif;-inkscape-font-specification:'sans-serif, Bold';font-variant-ligatures:normal;font-variant-caps:normal;font-variant-numeric:normal;font-feature-settings:normal;text-align:center;writing-mode:lr-tb;text-anchor:middle"
         d="m 153.26593,144.16391 h 97.40625 v 27.28125 h -61.3125 v 26.0625 h 57.65625 v 27.28125 h -57.65625 v 59.34375 h -36.09375 z" />
      <path
         id="path844"
         style="font-style:normal;font-variant:normal;font-weight:bold;font-stretch:normal;font-size:192px;font-family:sans-serif;-inkscape-font-specification:'sans-serif, Bold';font-variant-ligatures:normal;font-variant-caps:normal;font-variant-numeric:normal;font-feature-settings:normal;text-align:center;writing-mode:lr-tb;text-anchor:middle"
         d="m 284.51593,144.16391 h 36.09375 v 139.96875 h -36.09375 z" />
      <path
         id="path846"
         style="font-style:normal;font-variant:normal;font-weight:bold;font-stretch:normal;font-size:192px;font-family:sans-serif;-inkscape-font-specification:'sans-serif, Bold';font-variant-ligatures:normal;font-variant-caps:normal;font-variant-numeric:normal;font-feature-settings:normal;text-align:center;writing-mode:lr-tb;text-anchor:middle"
         d="m 356.14093,144.16391 h 40.3125 l 50.90625,96 v -96 h 34.21875 v 139.96875 h -40.3125 l -50.90625,-96 v 96 h -34.21875 z" />
      <path
         id="path848"
         style="font-style:normal;font-variant:normal;font-weight:bold;font-stretch:normal;font-size:192px;font-family:sans-serif;-inkscape-font-specification:'sans-serif, Bold';font-variant-ligatures:normal;font-variant-caps:normal;font-variant-numeric:normal;font-feature-settings:normal;text-align:center;writing-mode:lr-tb;text-anchor:middle"
         d="m 517.01593,144.16391 h 36.09375 v 112.6875 h 63.375 v 27.28125 h -99.46875 z" />
      <path
         id="path850"
         style="font-style:normal;font-variant:normal;font-weight:bold;font-stretch:normal;font-size:192px;font-family:sans-serif;-inkscape-font-specification:'sans-serif, Bold';font-variant-ligatures:normal;font-variant-caps:normal;font-variant-numeric:normal;font-feature-settings:normal;text-align:center;writing-mode:lr-tb;text-anchor:middle"
         d="m 724.20343,258.63266 h -56.4375 l -8.90625,25.5 h -36.28125 l 51.84375,-139.96875 h 43.03125 l 51.84375,139.96875 h -36.28125 z m -47.4375,-25.96875 h 38.34375 l -19.125,-55.6875 z" />
      <path
         id="path852"
         style="font-style:normal;font-variant:normal;font-weight:bold;font-stretch:normal;font-size:192px;font-family:sans-serif;-inkscape-font-specification:'sans-serif, Bold';font-variant-ligatures:normal;font-variant-caps:normal;font-variant-numeric:normal;font-feature-settings:normal;text-align:center;writing-mode:lr-tb;text-anchor:middle"
         d="m 787.76593,144.16391 h 40.3125 l 50.90625,96 v -96 h 34.21875 v 139.96875 h -40.3125 l -50.90625,-96 v 96 h -34.21875 z" />
      <path
         sodipodi:nodetypes="ccscsssccscccscccscc"
         inkscape:connector-curvature="0"
         id="path854"
         style="font-style:normal;font-variant:normal;font-weight:bold;font-stretch:normal;font-size:192px;font-family:sans-serif;-inkscape-font-specification:'sans-serif, Bold';font-variant-ligatures:normal;font-variant-caps:normal;font-variant-numeric:normal;font-feature-settings:normal;text-align:center;writing-mode:lr-tb;text-anchor:middle"
         d="m 984.73468,171.44516 v 85.40625 h 12.9375 c 14.75002,0 26.00002,-3.65625 33.75002,-10.96875 7.8125,-7.3125 11.7187,-17.9375 11.7187,-31.875 0,-13.875 -3.875,-24.4375 -11.625,-31.6875 -7.75,-7.25 -19.0312,-10.875 -33.84372,-10.875 z m -36.09375,-27.28125 h 38.0625 c 21.24997,0 37.06247,1.53125 47.43747,4.59375 10.4375,3 19.375,8.125 26.8125,15.375 6.5625,6.3125 11.4375,13.59375 14.625,21.84375 3.1875,8.25 4.7813,17.59375 4.7813,28.03125 0,10.5625 -17.0914,11.96421 -20.2789,20.27671 -6.9184,7.10203 -17.8202,17.5402 -24.3827,23.8527 -7.5,7.25 -9.8992,10.39731 -18.3902,17.19071 -7.6301,5.86992 -9.6045,8.80488 -30.60447,8.80488 h -38.0625 z" />
    </g>
    <text
       id="text876"
       y="138.34048"
       x="540.69385"
       style="font-style:normal;font-variant:normal;font-weight:bold;font-stretch:normal;font-size:192px;line-height:1.25;font-family:Montserrat;-inkscape-font-specification:'Montserrat, Bold';font-variant-ligatures:normal;font-variant-caps:normal;font-variant-numeric:normal;font-feature-settings:normal;text-align:center;letter-spacing:0px;word-spacing:0px;writing-mode:lr-tb;text-anchor:middle;fill:#000000;fill-opacity:1;stroke:none"
       xml:space="preserve"><tspan
         y="138.34048"
         x="540.69385"
         id="tspan874"
         sodipodi:role="line">CLIMBING</tspan></text>
    <path
       sodipodi:nodetypes="cscccc"
       inkscape:connector-curvature="0"
       id="path1156"
       d="m 33.593794,147.83015 c 4.671454,7.57375 5.199454,9.61131 14.403298,13.36777 6.644422,2.71185 15.556357,5.60682 19.184929,5.85817 1.204375,0.63158 8.491696,0.71317 8.73344,0.96445 10.182381,-0.50438 7.688343,-0.54524 9.204337,-0.52935 0.67781,-0.65211 10.402406,-1.63458 11.58602,-3.15078"
       style="fill:none;stroke:#000000;stroke-width:1px;stroke-linecap:butt;stroke-linejoin:miter;stroke-opacity:1" />
    <path
       sodipodi:nodetypes="cscscccsccsc"
       inkscape:connector-curvature="0"
       id="path1348"
       d="m 96.705818,164.34041 c -0.223811,2.88469 -0.67627,9.79545 -0.627684,12.83128 0.07658,4.78515 0.265165,5.74524 0.265165,5.74524 0.156272,0.31254 0.918008,3.13072 0.967219,3.71052 0.270218,3.18377 0.231175,2.43762 0.270218,3.18377 0.19476,1.18913 1.060991,6.58526 1.635186,7.15946 0.458796,3.24302 1.879078,5.72398 3.933278,7.77818 0.97362,0.97361 1.23744,1.02706 2.13833,2.50964 0.87536,1.44056 0.87764,1.3721 1.13204,1.90977 0.56234,0.56235 3.62463,6.277 4.06586,7.15946 0.89841,1.79682 3.47839,5.45841 3.29089,6.67222 -1.5e-4,9.6e-4 0,0.002 -1e-5,0.003"
       style="fill:none;stroke:#000000;stroke-width:1px;stroke-linecap:butt;stroke-linejoin:miter;stroke-opacity:1" />
  </g>
</svg>
